<mxfile modified="2023-08-19T20:38:58.293Z" host="app.diagrams.net" agent="Mozilla/5.0 (Windows NT 10.0; Win64; x64) AppleWebKit/537.36 (KHTML, like Gecko) Chrome/115.0.0.0 Safari/537.36" etag="qxxU-Hc9kU1dXFpTP5NY" version="21.6.5" type="device">
  <diagram id="7gcUSTIZ7YSJ5vT40chW" name="Page-1">
    <mxGraphModel dx="2593" dy="1338" grid="0" gridSize="10" guides="1" tooltips="1" connect="1" arrows="1" fold="1" page="0" pageScale="1" pageWidth="1169" pageHeight="827" math="0" shadow="0">
      <root>
        <mxCell id="0" />
        <mxCell id="1" parent="0" />
        <mxCell id="YkggqUMwKx66I1lC0KBP-31" value="" style="html=1;whiteSpace=wrap;strokeColor=#2075b8;" vertex="1" parent="1">
          <mxGeometry x="-493" y="-94" width="1065" height="816" as="geometry" />
        </mxCell>
        <mxCell id="YkggqUMwKx66I1lC0KBP-5" value="" style="shape=image;verticalLabelPosition=bottom;labelBackgroundColor=#ffffff;verticalAlign=top;aspect=fixed;imageAspect=0;image=data:image/svg+xml,PHN2ZyB4bWxuczpkYz0iaHR0cDovL3B1cmwub3JnL2RjL2VsZW1lbnRzLzEuMS8iIHhtbG5zOmNjPSJodHRwOi8vY3JlYXRpdmVjb21tb25zLm9yZy9ucyMiIHhtbG5zOnJkZj0iaHR0cDovL3d3dy53My5vcmcvMTk5OS8wMi8yMi1yZGYtc3ludGF4LW5zIyIgeG1sbnM6c3ZnPSJodHRwOi8vd3d3LnczLm9yZy8yMDAwL3N2ZyIgeG1sbnM9Imh0dHA6Ly93d3cudzMub3JnLzIwMDAvc3ZnIiB4bWxuczpzb2RpcG9kaT0iaHR0cDovL3NvZGlwb2RpLnNvdXJjZWZvcmdlLm5ldC9EVEQvc29kaXBvZGktMC5kdGQiIHhtbG5zOmlua3NjYXBlPSJodHRwOi8vd3d3Lmlua3NjYXBlLm9yZy9uYW1lc3BhY2VzL2lua3NjYXBlIiB2ZXJzaW9uPSIxLjEiIGlkPSJzdmcxMDQ1NzIiIGlua3NjYXBlOnZlcnNpb249IjAuOTIuMyAoMjQwNTU0NiwgMjAxOC0wMy0xMSkiIHNvZGlwb2RpOmRvY25hbWU9InNxbC5zdmciIHg9IjBweCIgeT0iMHB4IiB2aWV3Qm94PSIwIDAgNDYuMDMgNjEuMDIiIHhtbDpzcGFjZT0icHJlc2VydmUiIHdpZHRoPSI0Ni4wMjk5OTkiIGhlaWdodD0iNjEuMDIiPjxtZXRhZGF0YSBpZD0ibWV0YWRhdGExMDQ4Ij48cmRmOlJERj48Y2M6V29yayByZGY6YWJvdXQ9IiI+PGRjOmZvcm1hdD5pbWFnZS9zdmcreG1sPC9kYzpmb3JtYXQ+PGRjOnR5cGUgcmRmOnJlc291cmNlPSJodHRwOi8vcHVybC5vcmcvZGMvZGNtaXR5cGUvU3RpbGxJbWFnZSIvPjxkYzp0aXRsZS8+PC9jYzpXb3JrPjwvcmRmOlJERj48L21ldGFkYXRhPjxkZWZzIGlkPSJkZWZzMTA0NiI+JiN4YTsJJiN4YTsmI3hhOwkmI3hhOyYjeGE7CSYjeGE7JiN4YTsJJiN4YTsmI3hhOwkmI3hhOyYjeGE7CSYjeGE7JiN4YTsJJiN4YTsmI3hhOwkmI3hhOyYjeGE7CSYjeGE7JiN4YTsJCSYjeGE7CSYjeGE7CQkmI3hhOwkmI3hhOwkJJiN4YTsJJiN4YTsJCSYjeGE7CSYjeGE7CQkmI3hhOwkmI3hhOwkJJiN4YTsJJiN4YTsJCSYjeGE7CSYjeGE7CQkmI3hhOwk8L2RlZnM+JiN4YTs8ZmlsdGVyIGlkPSJmaWx0ZXJfMiI+JiN4YTsJPGZlR2F1c3NpYW5CbHVyIGlkPSJmZUdhdXNzaWFuQmx1cjEwNDQ4OSIgc3RkRGV2aWF0aW9uPSIyIi8+JiN4YTs8L2ZpbHRlcj4mI3hhOzxzb2RpcG9kaTpuYW1lZHZpZXcgYm9yZGVyY29sb3I9IiM2NjY2NjYiIGJvcmRlcm9wYWNpdHk9IjEiIGZpdC1tYXJnaW4tYm90dG9tPSIwIiBmaXQtbWFyZ2luLWxlZnQ9IjAiIGZpdC1tYXJnaW4tcmlnaHQ9IjAiIGZpdC1tYXJnaW4tdG9wPSIwIiBncmlkdG9sZXJhbmNlPSIxMCIgZ3VpZGV0b2xlcmFuY2U9IjEwIiBpZD0ibmFtZWR2aWV3MTA0NTc0IiBpbmtzY2FwZTpjdXJyZW50LWxheWVyPSJzdmcxMDQ1NzIiIGlua3NjYXBlOmN4PSIwLjI3NDc3MzkyIiBpbmtzY2FwZTpjeT0iMjcuOTI1ODA5IiBpbmtzY2FwZTpwYWdlb3BhY2l0eT0iMCIgaW5rc2NhcGU6cGFnZXNoYWRvdz0iMiIgaW5rc2NhcGU6d2luZG93LWhlaWdodD0iMTAxNyIgaW5rc2NhcGU6d2luZG93LW1heGltaXplZD0iMSIgaW5rc2NhcGU6d2luZG93LXdpZHRoPSIxOTIwIiBpbmtzY2FwZTp3aW5kb3cteD0iLTgiIGlua3NjYXBlOndpbmRvdy15PSItOCIgaW5rc2NhcGU6em9vbT0iNy42MDUyNjMyIiBvYmplY3R0b2xlcmFuY2U9IjEwIiBwYWdlY29sb3I9IiNmZmZmZmYiIHNob3dncmlkPSJmYWxzZSI+JiN4YTsJPC9zb2RpcG9kaTpuYW1lZHZpZXc+JiN4YTsmI3hhOzxwYXRoIGlkPSJwYXRoMTA0NTAyIiBpbmtzY2FwZTpjb25uZWN0b3ItY3VydmF0dXJlPSIwIiBzdHlsZT0iZmlsbDojMDA3MmM2IiBkPSJtIDAsOC4zNCB2IDQ0LjM0IGMgMCw0LjYxIDEwLjMxLDguMzQgMjMuMDIsOC4zNCBWIDguMzQgWiIvPiYjeGE7JiN4YTs8cGF0aCBpZD0icGF0aDEwNDUxMCIgaW5rc2NhcGU6Y29ubmVjdG9yLWN1cnZhdHVyZT0iMCIgc3R5bGU9ImZpbGw6IzAwNzJjNiIgZD0ibSAyMi43LDYxLjAyIGggMC4zMiBjIDEyLjcxLDAgMjMuMDEsLTMuNzMgMjMuMDEsLTguMzQgViA4LjM0IEggMjIuNyBaIi8+JiN4YTsmI3hhOzxwYXRoIGlkPSJwYXRoMTA0NTE4IiBpbmtzY2FwZTpjb25uZWN0b3ItY3VydmF0dXJlPSIwIiBzdHlsZT0iZmlsbDojZmZmZmZmO2ZpbGwtb3BhY2l0eTowLjE1IiBkPSJtIDIyLjcsNjEuMDIgaCAwLjMyIGMgMTIuNzEsMCAyMy4wMSwtMy43MyAyMy4wMSwtOC4zNCBWIDguMzQgSCAyMi43IFoiLz4mI3hhOyYjeGE7PHBhdGggaWQ9InBhdGgxMDQ1MjYiIGlua3NjYXBlOmNvbm5lY3Rvci1jdXJ2YXR1cmU9IjAiIHN0eWxlPSJmaWxsOiNmZmZmZmYiIGQ9Im0gNDYuMDMsOC4zMyBjIDAsNC42MSAtMTAuMyw4LjM0IC0yMy4wMSw4LjM0IEMgMTAuMzEsMTYuNjcgMCwxMi45NCAwLDguMzMgMCwzLjczIDEwLjMxLDAgMjMuMDIsMCAzNS43MywwIDQ2LjAzLDMuNzMgNDYuMDMsOC4zMyBaIi8+JiN4YTsmI3hhOzxwYXRoIGlkPSJwYXRoMTA0NTM0IiBpbmtzY2FwZTpjb25uZWN0b3ItY3VydmF0dXJlPSIwIiBzdHlsZT0iZmlsbDojN2ZiYTAwIiBkPSJtIDQxLjMyLDcuODUgYyAwLDMuMDQgLTguMTksNS41IC0xOC4zMSw1LjUgLTEwLjExLDAgLTE4LjMxLC0yLjQ2IC0xOC4zMSwtNS41IDAsLTMuMDQgOC4yLC01LjUgMTguMzEsLTUuNSAxMC4xMiwwIDE4LjMxLDIuNDYgMTguMzEsNS41IHoiLz4mI3hhOyYjeGE7PHBhdGggaWQ9InBhdGgxMDQ1NDIiIGlua3NjYXBlOmNvbm5lY3Rvci1jdXJ2YXR1cmU9IjAiIHN0eWxlPSJmaWxsOiNiOGQ0MzIiIGQ9Im0gMzcuNSwxMS4yMSBjIDIuMzksLTAuOTMgMy44MywtMi4wOSAzLjgzLC0zLjM2IDAsLTMuMDQgLTguMTksLTUuNSAtMTguMzEsLTUuNSAtMTAuMTEsMCAtMTguMzEsMi40NiAtMTguMzEsNS41IDAsMS4yNyAxLjQ0LDIuNDMgMy44NCwzLjM2IDMuMzUsLTEuMyA4LjU4LC0yLjE0IDE0LjQ3LC0yLjE0IDUuOSwwIDExLjEzLDAuODQgMTQuNDgsMi4xNCB6Ii8+JiN4YTsmI3hhOzxwYXRoIGlkPSJwYXRoMTA0NTUwIiBpbmtzY2FwZTpjb25uZWN0b3ItY3VydmF0dXJlPSIwIiBzdHlsZT0iZmlsbDojZmZmZmZmIiBkPSJtIDE1LjcxLDM5LjExIGMgMCwxLjM4IC0wLjUsMi40NSAtMS41LDMuMjEgLTEsMC43NSAtMi4zOCwxLjEzIC00LjE0LDEuMTMgLTEuNSwwIC0yLjc1LC0wLjI3IC0zLjc2LC0wLjgxIFYgMzkuNCBjIDEuMTYsMC45OCAyLjQ0LDEuNDggMy44NCwxLjQ4IDAuNjcsMCAxLjIsLTAuMTQgMS41NiwtMC40MSAwLjM3LC0wLjI3IDAuNTYsLTAuNjMgMC41NiwtMS4wNyAwLC0wLjQ0IC0wLjE4LC0wLjgyIC0wLjUzLC0xLjE1IEMgMTEuMzgsMzcuOTMgMTAuNjYsMzcuNTEgOS41NywzNyA3LjM2LDM1Ljk2IDYuMjUsMzQuNTQgNi4yNSwzMi43NCBjIDAsLTEuMyAwLjQ4LC0yLjM1IDEuNDUsLTMuMTMgMC45NiwtMC43OSAyLjI1LC0xLjE4IDMuODUsLTEuMTggMS40MiwwIDIuNTksMC4xOCAzLjUyLDAuNTUgdiAzLjAzIEMgMTQuMDksMzEuMzQgMTIuOTgsMzEgMTEuNzMsMzEgYyAtMC42MywwIC0xLjEyLDAuMTMgLTEuNDksMC40IC0wLjM2LDAuMjcgLTAuNTQsMC42MiAtMC41NCwxLjA3IDAsMC40NiAwLjE0LDAuODMgMC40NCwxLjEzIDAuMjksMC4yOSAwLjg5LDAuNjUgMS44LDEuMDkgMS4zNiwwLjY0IDIuMzMsMS4yOSAyLjkxLDEuOTUgMC41NywwLjY2IDAuODYsMS40OSAwLjg2LDIuNDcgeiIvPiYjeGE7JiN4YTs8cGF0aCBpZD0icGF0aDEwNDU1OCIgaW5rc2NhcGU6Y29ubmVjdG9yLWN1cnZhdHVyZT0iMCIgc3R5bGU9ImZpbGw6I2ZmZmZmZiIgZD0ibSAzMS4zMywzNS44NCBjIDAsMS43MSAtMC4zOSwzLjE5IC0xLjE2LDQuNDUgLTAuNzgsMS4yNSAtMS44NywyLjEzIC0zLjI4LDIuNjQgbCA0LjIxLDMuOSBoIC00LjI1IGwgLTMuMDEsLTMuMzcgYyAtMS4yOSwtMC4wNSAtMi40NiwtMC4zOSAtMy40OSwtMS4wMyAtMS4wNCwtMC42MyAtMS44NCwtMS41IC0yLjQsLTIuNjEgLTAuNTcsLTEuMSAtMC44NSwtMi4zMyAtMC44NSwtMy42OSAwLC0xLjUgMC4zMSwtMi44NSAwLjkyLC00LjAyIDAuNjEsLTEuMTggMS40NywtMi4wOSAyLjU3LC0yLjcyIDEuMTEsLTAuNjQgMi4zOCwtMC45NiAzLjgxLC0wLjk2IDEuMzQsMCAyLjU0LDAuMzEgMy41OSwwLjkzIDEuMDYsMC42MSAxLjg4LDEuNDggMi40NywyLjYyIDAuNTgsMS4xMyAwLjg3LDIuNDIgMC44NywzLjg2IHogbSAtMy40NCwwLjE4IGMgMCwtMS40NyAtMC4zMiwtMi42MyAtMC45NiwtMy40OSAtMC42NSwtMC44NSAtMS41MiwtMS4yOCAtMi42NCwtMS4yOCAtMS4xMywwIC0yLjA0LDAuNDMgLTIuNzIsMS4yOSAtMC42OCwwLjg1IC0xLjAzLDEuOTkgLTEuMDMsMy40MiAwLDEuNDIgMC4zNCwyLjU1IDEuMDEsMy40IDAuNjcsMC44NCAxLjU1LDEuMjcgMi42NiwxLjI3IDEuMTMsMCAyLjAyLC0wLjQxIDIuNjgsLTEuMjMgMC42NywtMC44MiAxLC0xLjk1IDEsLTMuMzggeiIvPiYjeGE7JiN4YTs8cGF0aCBpZD0icGF0aDEwNDU2NiIgaW5rc2NhcGU6Y29ubmVjdG9yLWN1cnZhdHVyZT0iMCIgc3R5bGU9ImZpbGw6I2ZmZmZmZiIgZD0iTSA0Mi4zOSw0My4yIEggMzMuNzQgViAyOC42NyBoIDMuMjcgdiAxMS44OCBoIDUuMzggeiIvPiYjeGE7PC9zdmc+;" vertex="1" parent="1">
          <mxGeometry x="339.00000000000006" y="414.5" width="79.93" height="106" as="geometry" />
        </mxCell>
        <mxCell id="YkggqUMwKx66I1lC0KBP-6" value="" style="shape=image;verticalLabelPosition=bottom;labelBackgroundColor=#ffffff;verticalAlign=top;aspect=fixed;imageAspect=0;image=data:image/svg+xml,PHN2ZyB4bWxuczpjYz0iaHR0cDovL2NyZWF0aXZlY29tbW9ucy5vcmcvbnMjIiB4bWxuczpkYz0iaHR0cDovL3B1cmwub3JnL2RjL2VsZW1lbnRzLzEuMS8iIHhtbG5zOmlua3NjYXBlPSJodHRwOi8vd3d3Lmlua3NjYXBlLm9yZy9uYW1lc3BhY2VzL2lua3NjYXBlIiB4bWxuczpyZGY9Imh0dHA6Ly93d3cudzMub3JnLzE5OTkvMDIvMjItcmRmLXN5bnRheC1ucyMiIHhtbG5zOnNvZGlwb2RpPSJodHRwOi8vc29kaXBvZGkuc291cmNlZm9yZ2UubmV0L0RURC9zb2RpcG9kaS0wLmR0ZCIgeG1sbnM6c3ZnPSJodHRwOi8vd3d3LnczLm9yZy8yMDAwL3N2ZyIgeG1sbnM9Imh0dHA6Ly93d3cudzMub3JnLzIwMDAvc3ZnIiB4bWxuczp4bGluaz0iaHR0cDovL3d3dy53My5vcmcvMTk5OS94bGluayIgdmVyc2lvbj0iMS4xIiBpZD0ic3ZnNTY0MTEiIGlua3NjYXBlOnZlcnNpb249IjAuOTIuMyAoMjQwNTU0NiwgMjAxOC0wMy0xMSkiIHNvZGlwb2RpOmRvY25hbWU9ImF6dXJlX2NvbnRhaW5lcl9pbnN0YW5jZXMuc3ZnIiB4PSIwcHgiIHk9IjBweCIgdmlld0JveD0iMCAwIDM3LjcgMzcuOCIgc3R5bGU9ImVuYWJsZS1iYWNrZ3JvdW5kOm5ldyAwIDAgMzcuNyAzNy44OyIgeG1sOnNwYWNlPSJwcmVzZXJ2ZSI+JiN4YTs8c29kaXBvZGk6bmFtZWR2aWV3IGJvcmRlcmNvbG9yPSIjNjY2NjY2IiBib3JkZXJvcGFjaXR5PSIxIiBmaXQtbWFyZ2luLWJvdHRvbT0iMCIgZml0LW1hcmdpbi1sZWZ0PSIwIiBmaXQtbWFyZ2luLXJpZ2h0PSIwIiBmaXQtbWFyZ2luLXRvcD0iMCIgZ3JpZHRvbGVyYW5jZT0iMTAiIGd1aWRldG9sZXJhbmNlPSIxMCIgaWQ9Im5hbWVkdmlldzU2NDEzIiBpbmtzY2FwZTpjdXJyZW50LWxheWVyPSJzdmc1NjQxMSIgaW5rc2NhcGU6Y3g9IjI3LjYxODI3MyIgaW5rc2NhcGU6Y3k9IjIyLjQ3Mzg3NCIgaW5rc2NhcGU6cGFnZW9wYWNpdHk9IjAiIGlua3NjYXBlOnBhZ2VzaGFkb3c9IjIiIGlua3NjYXBlOndpbmRvdy1oZWlnaHQ9IjEwMTciIGlua3NjYXBlOndpbmRvdy1tYXhpbWl6ZWQ9IjEiIGlua3NjYXBlOndpbmRvdy13aWR0aD0iMTkyMCIgaW5rc2NhcGU6d2luZG93LXg9Ii04IiBpbmtzY2FwZTp3aW5kb3cteT0iLTgiIGlua3NjYXBlOnpvb209IjEwLjQyNTkxNCIgb2JqZWN0dG9sZXJhbmNlPSIxMCIgcGFnZWNvbG9yPSIjZmZmZmZmIiBzaG93Z3JpZD0iZmFsc2UiPiYjeGE7CTwvc29kaXBvZGk6bmFtZWR2aWV3PiYjeGE7PGcgaWQ9Imc1NjQwOSIgdHJhbnNmb3JtPSJ0cmFuc2xhdGUoLTEyLjI4NjgzNiwtMTIuMjgyMzczKSI+JiN4YTsJPHRpdGxlIGlkPSJ0aXRsZTU2MzY1Ij5QYWdlLTE8L3RpdGxlPiYjeGE7CTxnIGlkPSJncm91cDU3NjEtMSIgdHJhbnNmb3JtPSJ0cmFuc2xhdGUoMTIuNDQxOCwtMTIuMjg5MikiPiYjeGE7CQk8dGl0bGUgaWQ9InRpdGxlNTYzNjciPkF6dXJlIENvbnRhaW5lciBJbnN0YW5jZXM8L3RpdGxlPiYjeGE7CQk8ZyBpZD0ic2hhcGU1NzYyLTIiIHRyYW5zZm9ybT0idHJhbnNsYXRlKDAsLTEzLjYyOTMpIj4mI3hhOwkJCTx0aXRsZSBpZD0idGl0bGU1NjM2OSI+U2hlZXQuNTc2MjwvdGl0bGU+JiN4YTsJCQk8cGF0aCBpZD0icGF0aDU2MzcxIiBpbmtzY2FwZTpjb25uZWN0b3ItY3VydmF0dXJlPSIwIiBzdHlsZT0iZmlsbDojRkZGRkZGOyIgZD0iTTMxLjUsNDYuNzVjLTAuMjctNC45OC00LjUyLTguOC05LjUtOC41NCAgICAgYy0yLjc0LDAuMTUtNS4yNiwxLjUzLTYuODYsMy43NmMtMy4xMy0yLjQxLTcuNjItMS44My0xMC4wMywxLjI5Yy0xLjM0LDEuNzQtMS44MSw0LTEuMjcsNi4xM2MtMy40MiwxLjU0LTQuOTQsNS41Ny0zLjM5LDguOTkgICAgIGMxLjEsMi40MywzLjUyLDQsNi4xOSwzLjk5aDIzYzQuMzgtMC4wMSw3LjkyLTMuNTYsNy45MS03Ljk0QzM3LjU0LDUwLjc5LDM1LjA0LDQ3LjYxLDMxLjUsNDYuNzV6Ii8+JiN4YTsJCTwvZz4mI3hhOwkJPGcgaWQ9InNoYXBlNTc2My00IiB0cmFuc2Zvcm09InRyYW5zbGF0ZSgwLC0xMy42MjkzKSI+JiN4YTsJCQk8dGl0bGUgaWQ9InRpdGxlNTYzNzQiPlNoZWV0LjU3NjM8L3RpdGxlPiYjeGE7CQkJPHBhdGggaWQ9InBhdGg1NjM3NiIgaW5rc2NhcGU6Y29ubmVjdG9yLWN1cnZhdHVyZT0iMCIgc3R5bGU9ImZpbGw6IzI3QTlFMTtmaWxsLW9wYWNpdHk6MC42OyIgZD0iTTMxLjUsNDYuNzUgICAgIGMtMC4yNy00Ljk4LTQuNTItOC44LTkuNS04LjU0Yy0yLjc0LDAuMTUtNS4yNiwxLjUzLTYuODYsMy43NmMtMy4xMy0yLjQxLTcuNjItMS44My0xMC4wMywxLjI5Yy0xLjM0LDEuNzQtMS44MSw0LTEuMjcsNi4xMyAgICAgYy0zLjQyLDEuNTQtNC45NCw1LjU3LTMuMzksOC45OWMxLjEsMi40MywzLjUyLDQsNi4xOSwzLjk5aDIzYzQuMzgtMC4wMSw3LjkyLTMuNTYsNy45MS03Ljk0ICAgICBDMzcuNTQsNTAuNzksMzUuMDQsNDcuNjEsMzEuNSw0Ni43NXoiLz4mI3hhOwkJPC9nPiYjeGE7CQk8ZyBpZD0ic2hhcGU1NzY0LTYiIHRyYW5zZm9ybT0idHJhbnNsYXRlKDguODU4MjQpIj4mI3hhOwkJCTx0aXRsZSBpZD0idGl0bGU1NjM3OSI+U2hlZXQuNTc2NDwvdGl0bGU+JiN4YTsJCQk8cGF0aCBpZD0icGF0aDU2MzgxIiBpbmtzY2FwZTpjb25uZWN0b3ItY3VydmF0dXJlPSIwIiBzdHlsZT0iZmlsbDojNjcyQTdBOyIgZD0iTTAuNzYsNDEuMTdDMC4zNCw0MS4xNywwLDQxLjUxLDAsNDEuOTMgICAgIGMwLDAsMCwwLDAsMGwwLDE5LjY4YzAsMC40MiwwLjM0LDAuNzYsMC43NiwwLjc2YzAsMCwwLDAsMCwwbDE4LjE3LDBjMC40MiwwLDAuNzYtMC4zNCwwLjc2LTAuNzZsMC0xOS42OSAgICAgYzAtMC40Mi0wLjM0LTAuNzYtMC43Ni0wLjc2aDBMMC43Niw0MS4xN3oiLz4mI3hhOwkJPC9nPiYjeGE7CQk8ZyBpZD0ic2hhcGU1NzY1LTgiIHRyYW5zZm9ybT0idHJhbnNsYXRlKDIwLjE3ODEsLTI1Ljc0NDMpIj4mI3hhOwkJCTx0aXRsZSBpZD0idGl0bGU1NjM4NCI+U2hlZXQuNTc2NTwvdGl0bGU+JiN4YTsJCTwvZz4mI3hhOwkJPGcgaWQ9InNoYXBlNTc2Ni05IiB0cmFuc2Zvcm09InRyYW5zbGF0ZSgyNi4yMzU2LC0yMi43MTU1KSI+JiN4YTsJCQk8dGl0bGUgaWQ9InRpdGxlNTYzODciPlNoZWV0LjU3NjY8L3RpdGxlPiYjeGE7CQk8L2c+JiN4YTsJCTxnIGlkPSJzaGFwZTU3NjctMTAiIHRyYW5zZm9ybT0idHJhbnNsYXRlKDE0LjkxNTcsLTIxLjIwMTIpIj4mI3hhOwkJCTx0aXRsZSBpZD0idGl0bGU1NjM5MCI+U2hlZXQuNTc2NzwvdGl0bGU+JiN4YTsJCQk8cGF0aCBpZD0icGF0aDU2MzkyIiBpbmtzY2FwZTpjb25uZWN0b3ItY3VydmF0dXJlPSIwIiBzdHlsZT0iZmlsbDojRkZGRkZGOyIgZD0iTTIuMjcsNjIuMzd2LTUuM0gwbDMuNzktNS4zbDMuNzgsNS4zSDUuM3Y1LjMgICAgIEgyLjI3eiIvPiYjeGE7CQk8L2c+JiN4YTsJCTxnIGlkPSJzaGFwZTU3NjgtMTIiIHRyYW5zZm9ybT0idHJhbnNsYXRlKDIwLjE3ODEsLTI1Ljc0NDMpIj4mI3hhOwkJCTx0aXRsZSBpZD0idGl0bGU1NjM5NSI+U2hlZXQuNTc2ODwvdGl0bGU+JiN4YTsJCTwvZz4mI3hhOwkJPGcgaWQ9InNoYXBlNTc2OS0xMyIgdHJhbnNmb3JtPSJ0cmFuc2xhdGUoMTEuMTI5OCwtMi4yNzE1NSkiPiYjeGE7CQkJPHRpdGxlIGlkPSJ0aXRsZTU2Mzk4Ij5TaGVldC41NzY5PC90aXRsZT4mI3hhOwkJCTxwYXRoIGlkPSJwYXRoNTY0MDAiIGlua3NjYXBlOmNvbm5lY3Rvci1jdXJ2YXR1cmU9IjAiIHN0eWxlPSJmaWxsOiNCOTIwMjU7ZmlsbC1vcGFjaXR5OjAuMzsiIGQ9Ik0xMy42Myw0NS43MUgwdjE2LjY2aDE1LjE0ICAgICBWNDUuNzFIMTMuNjN6IE00LjU0LDYwLjg1SDEuNTFWNDcuMjJoMy4wM1Y2MC44NXogTTkuMDksNjAuODVINi4wNlY0Ny4yMmgzLjAzVjYwLjg1eiBNMTMuNjMsNjAuODVIMTAuNlY0Ny4yMmgzLjAzVjYwLjg1eiIvPiYjeGE7CQk8L2c+JiN4YTsJCTxnIGlkPSJzaGFwZTU3NzAtMTUiIHRyYW5zZm9ybT0idHJhbnNsYXRlKDExLjEyOTgsLTIuMjcxNTUpIj4mI3hhOwkJCTx0aXRsZSBpZD0idGl0bGU1NjQwMyI+U2hlZXQuNTc3MDwvdGl0bGU+JiN4YTsJCQk8cGF0aCBpZD0icGF0aDU2NDA1IiBpbmtzY2FwZTpjb25uZWN0b3ItY3VydmF0dXJlPSIwIiBzdHlsZT0iZmlsbDojRkZGRkZGOyIgZD0iTTEzLjYzLDQ1LjcxSDB2MTYuNjZoMTUuMTRWNDUuNzFIMTMuNjN6ICAgICAgTTQuNTQsNjAuODVIMS41MVY0Ny4yMmgzLjAzVjYwLjg1eiBNOS4wOSw2MC44NUg2LjA2VjQ3LjIyaDMuMDNWNjAuODV6IE0xMy42Myw2MC44NUgxMC42VjQ3LjIyaDMuMDNWNjAuODV6Ii8+JiN4YTsJCTwvZz4mI3hhOwk8L2c+JiN4YTs8L2c+JiN4YTs8L3N2Zz4=;" vertex="1" parent="1">
          <mxGeometry x="-401" y="6" width="91" height="91" as="geometry" />
        </mxCell>
        <mxCell id="YkggqUMwKx66I1lC0KBP-64" value="" style="rounded=1;whiteSpace=wrap;html=1;dashed=1;dashPattern=8 8;strokeColor=#67317e;" vertex="1" parent="1">
          <mxGeometry x="-457" y="99" width="612" height="452" as="geometry" />
        </mxCell>
        <mxCell id="YkggqUMwKx66I1lC0KBP-7" value="&lt;b&gt;Azure Container Instances&lt;/b&gt;" style="text;html=1;align=center;verticalAlign=middle;resizable=0;points=[];autosize=1;strokeColor=none;fillColor=none;fontSize=20;" vertex="1" parent="1">
          <mxGeometry x="-329" y="59" width="270" height="36" as="geometry" />
        </mxCell>
        <mxCell id="YkggqUMwKx66I1lC0KBP-42" value="" style="group" vertex="1" connectable="0" parent="1">
          <mxGeometry x="-432" y="251" width="158.10000000000002" height="141" as="geometry" />
        </mxCell>
        <mxCell id="YkggqUMwKx66I1lC0KBP-3" value="TechNews.Web" style="text;html=1;align=center;verticalAlign=middle;resizable=0;points=[];autosize=1;strokeColor=none;fillColor=none;fontSize=20;" vertex="1" parent="YkggqUMwKx66I1lC0KBP-42">
          <mxGeometry x="1.1000000000000227" y="105" width="157" height="36" as="geometry" />
        </mxCell>
        <mxCell id="YkggqUMwKx66I1lC0KBP-19" value="" style="shape=image;verticalLabelPosition=bottom;labelBackgroundColor=#ffffff;verticalAlign=top;aspect=fixed;imageAspect=0;image=data:image/svg+xml,PHN2ZyB4bWxuczpjYz0iaHR0cDovL2NyZWF0aXZlY29tbW9ucy5vcmcvbnMjIiB4bWxuczpkYz0iaHR0cDovL3B1cmwub3JnL2RjL2VsZW1lbnRzLzEuMS8iIHhtbG5zOmlua3NjYXBlPSJodHRwOi8vd3d3Lmlua3NjYXBlLm9yZy9uYW1lc3BhY2VzL2lua3NjYXBlIiB4bWxuczpyZGY9Imh0dHA6Ly93d3cudzMub3JnLzE5OTkvMDIvMjItcmRmLXN5bnRheC1ucyMiIHhtbG5zOnNvZGlwb2RpPSJodHRwOi8vc29kaXBvZGkuc291cmNlZm9yZ2UubmV0L0RURC9zb2RpcG9kaS0wLmR0ZCIgeG1sbnM6c3ZnPSJodHRwOi8vd3d3LnczLm9yZy8yMDAwL3N2ZyIgeG1sbnM9Imh0dHA6Ly93d3cudzMub3JnLzIwMDAvc3ZnIiB4bWxuczp4bGluaz0iaHR0cDovL3d3dy53My5vcmcvMTk5OS94bGluayIgdmVyc2lvbj0iMS4xIiBpZD0ic3ZnMTE0MjUwIiBpbmtzY2FwZTp2ZXJzaW9uPSIwLjkyLjMgKDI0MDU1NDYsIDIwMTgtMDMtMTEpIiBzb2RpcG9kaTpkb2NuYW1lPSJ3ZWJwYWdlXzEuc3ZnIiB4PSIwcHgiIHk9IjBweCIgdmlld0JveD0iMCAwIDYxLjQ2IDQ1IiBzdHlsZT0iZW5hYmxlLWJhY2tncm91bmQ6bmV3IDAgMCA2MS40NiA0NTsiIHhtbDpzcGFjZT0icHJlc2VydmUiPiYjeGE7PHNvZGlwb2RpOm5hbWVkdmlldyBib3JkZXJjb2xvcj0iIzY2NjY2NiIgYm9yZGVyb3BhY2l0eT0iMSIgZml0LW1hcmdpbi1ib3R0b209IjAiIGZpdC1tYXJnaW4tbGVmdD0iMCIgZml0LW1hcmdpbi1yaWdodD0iMCIgZml0LW1hcmdpbi10b3A9IjAiIGdyaWR0b2xlcmFuY2U9IjEwIiBndWlkZXRvbGVyYW5jZT0iMTAiIGlkPSJuYW1lZHZpZXcxMTQyNTIiIGlua3NjYXBlOmN1cnJlbnQtbGF5ZXI9InN2ZzExNDI1MCIgaW5rc2NhcGU6Y3g9IjQwLjk3MDU5MiIgaW5rc2NhcGU6Y3k9IjI5Ljk5OTk5NSIgaW5rc2NhcGU6cGFnZW9wYWNpdHk9IjAiIGlua3NjYXBlOnBhZ2VzaGFkb3c9IjIiIGlua3NjYXBlOndpbmRvdy1oZWlnaHQ9IjEwMTciIGlua3NjYXBlOndpbmRvdy1tYXhpbWl6ZWQ9IjEiIGlua3NjYXBlOndpbmRvdy13aWR0aD0iMTkyMCIgaW5rc2NhcGU6d2luZG93LXg9Ii04IiBpbmtzY2FwZTp3aW5kb3cteT0iLTgiIGlua3NjYXBlOnpvb209IjE0LjQ1IiBvYmplY3R0b2xlcmFuY2U9IjEwIiBwYWdlY29sb3I9IiNmZmZmZmYiIHNob3dncmlkPSJmYWxzZSI+JiN4YTsJPC9zb2RpcG9kaTpuYW1lZHZpZXc+JiN4YTs8ZyBpZD0iZzExNDI0OCI+JiN4YTsJPHRpdGxlIGlkPSJ0aXRsZTExNDE1OSI+UGFnZS0xPC90aXRsZT4mI3hhOwk8ZyBpZD0iZ3JvdXA1NDk2LTEiPiYjeGE7CQk8dGl0bGUgaWQ9InRpdGxlMTE0MTYxIj5XZWJwYWdlICMxPC90aXRsZT4mI3hhOwkJPGcgaWQ9Imdyb3VwNTQ5Ny0yIj4mI3hhOwkJCTx0aXRsZSBpZD0idGl0bGUxMTQxNjMiPk1hbmFnZW1lbnQgUm9sZXMvUGVybWlzc2lvbnMuNzQ1MzwvdGl0bGU+JiN4YTsJCQk8ZyBpZD0iZ3JvdXA1NDk4LTMiPiYjeGE7CQkJCTx0aXRsZSBpZD0idGl0bGUxMTQxNjUiPldlYnNpdGVzICMyPC90aXRsZT4mI3hhOwkJCQk8ZyBpZD0ic2hhcGU1NDk5LTQiPiYjeGE7CQkJCQk8dGl0bGUgaWQ9InRpdGxlMTE0MTY3Ij5TaGVldC41NDk5PC90aXRsZT4mI3hhOwkJCQkJPHBhdGggaWQ9InBhdGgxMTQxNjkiIGlua3NjYXBlOmNvbm5lY3Rvci1jdXJ2YXR1cmU9IjAiIHN0eWxlPSJmaWxsOiMzRjU3NjU7IiBkPSJNNTkuMTEsMEMyLjI3LDAsMi4yNywwLDIuMjcsMCAgICAgICBDMC4zOCwwLDAsMC40NSwwLDIuMzRjMCw0MC4zOSwwLDQwLjM5LDAsNDAuMzlDMCw0NC42MiwwLjM4LDQ1LDIuMjcsNDVjNTYuODQsMCw1Ni44NCwwLDU2Ljg0LDBjMS45NywwLDIuMzUtMC4zOCwyLjM1LTIuMjcgICAgICAgYzAtNDAuMzksMC00MC4zOSwwLTQwLjM5QzYxLjQ2LDAuNDUsNjEuMDgsMCw1OS4xMSwweiIvPiYjeGE7CQkJCTwvZz4mI3hhOwkJCQk8ZyBpZD0ic2hhcGU1NTAwLTYiIHRyYW5zZm9ybT0idHJhbnNsYXRlKDEuNTg3NDIsLTM3Ljc1MTcpIj4mI3hhOwkJCQkJPHRpdGxlIGlkPSJ0aXRsZTExNDE3MiI+U2hlZXQuNTUwMDwvdGl0bGU+JiN4YTsJCQkJCTxwYXRoIGlkPSJwYXRoMTE0MTc0IiBpbmtzY2FwZTpjb25uZWN0b3ItY3VydmF0dXJlPSIwIiBzdHlsZT0iZmlsbDojMjZBOUUwOyIgZD0iTTYuMTIsNDEuOThDNi4xMiw0My43Miw0Ljc2LDQ1LDMuMSw0NSAgICAgICBTMCw0My43MiwwLDQxLjk4YzAtMS42NiwxLjQ0LTMuMDIsMy4xLTMuMDJTNi4xMiw0MC4zMiw2LjEyLDQxLjk4eiIvPiYjeGE7CQkJCTwvZz4mI3hhOwkJCQk8ZyBpZD0ic2hhcGU1NTAxLTgiIHRyYW5zZm9ybT0idHJhbnNsYXRlKDIuODcyNDgsLTM5LjQxMjgpIj4mI3hhOwkJCQkJPHRpdGxlIGlkPSJ0aXRsZTExNDE3NyI+U2hlZXQuNTUwMTwvdGl0bGU+JiN4YTsJCQkJCTxwYXRoIGlkPSJwYXRoMTE0MTc5IiBpbmtzY2FwZTpjb25uZWN0b3ItY3VydmF0dXJlPSIwIiBzdHlsZT0iZmlsbDojRkZGRkZGOyIgZD0iTTEuMjEsNDMuMzRsMS4wNi0wLjk4SDEuNDRMMCw0My42NEwxLjQ0LDQ1ICAgICAgIGgwLjgzbC0xLjA2LTEuMDZoMi40MnYtMC42SDEuMjF6Ii8+JiN4YTsJCQkJPC9nPiYjeGE7CQkJCTxnIGlkPSJzaGFwZTU1MDItMTAiIHRyYW5zZm9ybT0idHJhbnNsYXRlKDguODQ0MjEsLTM5LjQxMjgpIj4mI3hhOwkJCQkJPHRpdGxlIGlkPSJ0aXRsZTExNDE4MiI+U2hlZXQuNTUwMjwvdGl0bGU+JiN4YTsJCQkJCTxwYXRoIGlkPSJwYXRoMTE0MTg0IiBpbmtzY2FwZTpjb25uZWN0b3ItY3VydmF0dXJlPSIwIiBzdHlsZT0iZmlsbDojRkZGRkZGOyIgZD0iTTAsNDIuMTNWNDVoNTEuMTh2LTIuODdIMHoiLz4mI3hhOwkJCQk8L2c+JiN4YTsJCQkJPGcgaWQ9InNoYXBlNTUwMy0xMiIgdHJhbnNmb3JtPSJ0cmFuc2xhdGUoMTUuNzk4NiwtMTMuMTM3NikiPiYjeGE7CQkJCQk8dGl0bGUgaWQ9InRpdGxlMTE0MTg3Ij5TaGVldC41NTAzPC90aXRsZT4mI3hhOwkJCQkJPHBhdGggaWQ9InBhdGgxMTQxODkiIGlua3NjYXBlOmNvbm5lY3Rvci1jdXJ2YXR1cmU9IjAiIHN0eWxlPSJmaWxsOiNGRkZGRkY7IiBkPSJNMjguOCwzOC40M2MwLTEuNTEtMS4yMS0yLjc5LTIuOC0yLjc5ICAgICAgIGMtNC4yMywwLTQuMjMsMC00LjIzLDBjLTMuNy0zLjYzLTMuNy0zLjYzLTMuNy0zLjYzYy05LjA3LDAtOS4wNywwLTkuMDcsMGMtMy44NiwzLjctMy44NiwzLjctMy44NiwzLjcgICAgICAgYy0yLjM0LDAuMjMtNC4yMywyLjE5LTQuMjMsNC42MWMwLDAuOSwwLDAuOSwwLDAuOWMtMC45MSwwLTAuOTEsMC0wLjkxLDBjMCwxLjgyLDAsMS44MiwwLDEuODJjMy45MywwLDMuOTMsMCwzLjkzLDAgICAgICAgQzQuMzEsNDQuMTcsNS4zNyw0NSw2LjU4LDQ1czIuMTktMC44MywyLjU3LTEuOTZjMTEuNDksMCwxMS40OSwwLDExLjQ5LDBjMC40NSwxLjEzLDEuNDMsMS45NiwyLjY0LDEuOTZzMi4xOS0wLjgzLDIuNjUtMS45NiAgICAgICBjMy43OCwwLDMuNzgsMCwzLjc4LDBjMC0xLjgyLDAtMS44MiwwLTEuODJjLTAuOTEsMC0wLjkxLDAtMC45MSwwVjM4LjQzeiBNMjYuOTksMzguNDNjMCwyLjc5LDAsMi43OSwwLDIuNzkgICAgICAgYy0xLjA2LDAtMS4wNiwwLTEuMDYsMGMtMC40Ni0xLjA1LTEuNDQtMS44OC0yLjY1LTEuODhjLTEuMjEsMC0yLjE5LDAuODMtMi42NCwxLjg4Yy03LjY0LDAtNy42NCwwLTcuNjQsMCAgICAgICBjMC0zLjY5LDAtMy42OSwwLTMuNjljMTMsMCwxMywwLDEzLDBDMjYuNjEsMzcuNTMsMjYuOTksMzcuOSwyNi45OSwzOC40M3ogTTE5LjEyLDM1LjY0Yy02LjEyLDAtNi4xMiwwLTYuMTIsMCAgICAgICBjMC0xLjgxLDAtMS44MSwwLTEuODFjNC4zMSwwLDQuMzEsMCw0LjMxLDBMMTkuMTIsMzUuNjR6IE05LjY4LDMzLjgzYzEuNTEsMCwxLjUxLDAsMS41MSwwYzAsMS44MSwwLDEuODEsMCwxLjgxICAgICAgIGMtMy4zMywwLTMuMzMsMC0zLjMzLDBMOS42OCwzMy44M3ogTTIuOCw0MC4zMmMwLTEuNTksMS4yMS0yLjc5LDIuODctMi43OWM1LjUyLDAsNS41MiwwLDUuNTIsMGMwLDMuNjksMCwzLjY5LDAsMy42OSAgICAgICBjLTIuMDQsMC0yLjA0LDAtMi4wNCwwYy0wLjM4LTEuMDUtMS4zNi0xLjg4LTIuNTctMS44OHMtMi4yNywwLjgzLTIuNjUsMS44OGMtMS4xMywwLTEuMTMsMC0xLjEzLDBMMi44LDQwLjMyeiBNNi41OCw0My4wNCAgICAgICBjLTAuNTMsMC0wLjkxLTAuMzgtMC45MS0wLjkxYzAtMC40NSwwLjM4LTAuOTEsMC45MS0wLjkxYzAuNDUsMCwwLjksMC40NiwwLjksMC45MUM3LjQ4LDQyLjY2LDcuMDMsNDMuMDQsNi41OCw0My4wNHogICAgICAgIE0yMy4yOCw0My4wNGMtMC41MywwLTAuOS0wLjM4LTAuOS0wLjkxYzAtMC40NSwwLjM3LTAuOTEsMC45LTAuOTFjMC41MywwLDAuOTEsMC40NiwwLjkxLDAuOTEgICAgICAgQzI0LjE5LDQyLjY2LDIzLjgxLDQzLjA0LDIzLjI4LDQzLjA0eiIvPiYjeGE7CQkJCTwvZz4mI3hhOwkJCQk8ZyBpZD0ic2hhcGU1NTA0LTE0IiB0cmFuc2Zvcm09InRyYW5zbGF0ZSgxLjMxNzczLC0yLjEzMjg3KSI+JiN4YTsJCQkJCTx0aXRsZSBpZD0idGl0bGUxMTQxOTIiPlNoZWV0LjU1MDQ8L3RpdGxlPiYjeGE7CQkJCQk8cGF0aCBpZD0icGF0aDExNDE5NCIgaW5rc2NhcGU6Y29ubmVjdG9yLWN1cnZhdHVyZT0iMCIgc3R5bGU9ImZpbGw6IzAwQjBGMDsiIGQ9Ik0wLDEwLjU2VjQ1aDU4LjUyVjEwLjU2SDB6Ii8+JiN4YTsJCQkJPC9nPiYjeGE7CQkJPC9nPiYjeGE7CQk8L2c+JiN4YTsJCTxnIGlkPSJncm91cDU1MDUtMTYiIHRyYW5zZm9ybT0idHJhbnNsYXRlKDQuMjkwNDUsLTYuNzUwMDEpIj4mI3hhOwkJCTx0aXRsZSBpZD0idGl0bGUxMTQxOTkiPldlYjwvdGl0bGU+JiN4YTsJCQk8ZyBpZD0ic2hhcGU1NTA2LTE3Ij4mI3hhOwkJCQk8dGl0bGUgaWQ9InRpdGxlMTE0MjAxIj5TaGVldC41NTA2PC90aXRsZT4mI3hhOwkJCQk8cGF0aCBpZD0icGF0aDExNDIwMyIgaW5rc2NhcGU6Y29ubmVjdG9yLWN1cnZhdHVyZT0iMCIgc3R5bGU9ImZpbGw6I0ZGRkZGRjsiIGQ9Ik0wLDIxLjg3VjQ1aDUyLjg3VjIxLjg3SDB6Ii8+JiN4YTsJCQk8L2c+JiN4YTsJCQk8ZyBpZD0ic2hhcGU1NTA3LTE5IiB0cmFuc2Zvcm09InRyYW5zbGF0ZSgwLC0yMy4xMzA5KSI+JiN4YTsJCQkJPHRpdGxlIGlkPSJ0aXRsZTExNDIwNiI+U2hlZXQuNTUwNzwvdGl0bGU+JiN4YTsJCQkJPHBhdGggaWQ9InBhdGgxMTQyMDgiIGlua3NjYXBlOmNvbm5lY3Rvci1jdXJ2YXR1cmU9IjAiIHN0eWxlPSJmaWxsOiM1MDUwNTA7IiBkPSJNMCw0Mi41NVY0NWg1Mi44N3YtMi40NUgweiIvPiYjeGE7CQkJPC9nPiYjeGE7CQkJPGcgaWQ9InNoYXBlNTUwOC0yMSIgdHJhbnNmb3JtPSJ0cmFuc2xhdGUoNTAuNzc0LC0yMy44MzE5KSI+JiN4YTsJCQkJPHRpdGxlIGlkPSJ0aXRsZTExNDIxMSI+U2hlZXQuNTUwODwvdGl0bGU+JiN4YTsJCQkJPHBhdGggaWQ9InBhdGgxMTQyMTMiIGlua3NjYXBlOmNvbm5lY3Rvci1jdXJ2YXR1cmU9IjAiIHN0eWxlPSJmaWxsOiNGOUY3Rjg7IiBkPSJNMS4wNSw0NWMtMC4zMSwwLTAuMzEsMC0wLjMxLDAgICAgICBjLTAuMTUtMC4zMy0wLjE1LTAuMzMtMC4xNS0wLjMzYy0wLjA2LTAuMDQtMC4wNi0wLjA0LTAuMDYtMC4wOWwwLDBjMCwwLjA1LDAsMC4wNSwwLDAuMDlDMC4zMyw0NSwwLjMzLDQ1LDAuMzMsNDUgICAgICBDMCw0NSwwLDQ1LDAsNDVjMC4zNy0wLjUzLDAuMzctMC41MywwLjM3LTAuNTNjLTAuMy0wLjUyLTAuMy0wLjUyLTAuMy0wLjUyYzAuMywwLDAuMywwLDAuMywwYzAuMTYsMC4zNSwwLjE2LDAuMzUsMC4xNiwwLjM1ICAgICAgdjAuMDRsMCwwbDAuMDYtMC4wNGMwLjE1LTAuMzUsMC4xNS0wLjM1LDAuMTUtMC4zNWMwLjMxLDAsMC4zMSwwLDAuMzEsMEMwLjcsNDQuNDcsMC43LDQ0LjQ3LDAuNyw0NC40N0wxLjA1LDQ1eiIvPiYjeGE7CQkJPC9nPiYjeGE7CQkJPGcgaWQ9InNoYXBlNTUwOS0yMyIgdHJhbnNmb3JtPSJ0cmFuc2xhdGUoNC45MDIzMiwtMTcuODczOSkiPiYjeGE7CQkJCTx0aXRsZSBpZD0idGl0bGUxMTQyMTYiPlNoZWV0LjU1MDk8L3RpdGxlPiYjeGE7CQkJCTxwYXRoIGlkPSJwYXRoMTE0MjE4IiBpbmtzY2FwZTpjb25uZWN0b3ItY3VydmF0dXJlPSIwIiBzdHlsZT0iZmlsbDojREZERkRGOyIgZD0iTTAsNDMuMjVWNDVoMjMuODF2LTEuNzVIMHoiLz4mI3hhOwkJCTwvZz4mI3hhOwkJCTxnIGlkPSJzaGFwZTU1MTAtMjUiIHRyYW5zZm9ybT0idHJhbnNsYXRlKDQuOTAyMzIsLTE0LjM2OTIpIj4mI3hhOwkJCQk8dGl0bGUgaWQ9InRpdGxlMTE0MjIxIj5TaGVldC41NTEwPC90aXRsZT4mI3hhOwkJCQk8cGF0aCBpZD0icGF0aDExNDIyMyIgaW5rc2NhcGU6Y29ubmVjdG9yLWN1cnZhdHVyZT0iMCIgc3R5bGU9ImZpbGw6I0RGREZERjsiIGQ9Ik0wLDQzLjZWNDVoMjMuODF2LTEuNEgweiIvPiYjeGE7CQkJPC9nPiYjeGE7CQkJPGcgaWQ9InNoYXBlNTUxMS0yNyIgdHJhbnNmb3JtPSJ0cmFuc2xhdGUoNC45MDIzMiwtMTAuODY0NSkiPiYjeGE7CQkJCTx0aXRsZSBpZD0idGl0bGUxMTQyMjYiPlNoZWV0LjU1MTE8L3RpdGxlPiYjeGE7CQkJCTxwYXRoIGlkPSJwYXRoMTE0MjI4IiBpbmtzY2FwZTpjb25uZWN0b3ItY3VydmF0dXJlPSIwIiBzdHlsZT0iZmlsbDojREZERkRGOyIgZD0iTTAsNDMuNlY0NWgyMy44MXYtMS40SDB6Ii8+JiN4YTsJCQk8L2c+JiN4YTsJCQk8ZyBpZD0ic2hhcGU1NTEyLTI5IiB0cmFuc2Zvcm09InRyYW5zbGF0ZSg0LjkwMjMyLC03LjM1OTg0KSI+JiN4YTsJCQkJPHRpdGxlIGlkPSJ0aXRsZTExNDIzMSI+U2hlZXQuNTUxMjwvdGl0bGU+JiN4YTsJCQkJPHBhdGggaWQ9InBhdGgxMTQyMzMiIGlua3NjYXBlOmNvbm5lY3Rvci1jdXJ2YXR1cmU9IjAiIHN0eWxlPSJmaWxsOiNERkRGREY7IiBkPSJNMCw0My42VjQ1aDIzLjgxdi0xLjRIMHoiLz4mI3hhOwkJCTwvZz4mI3hhOwkJCTxnIGlkPSJzaGFwZTU1MTMtMzEiIHRyYW5zZm9ybT0idHJhbnNsYXRlKDQuOTAyMzIsLTMuODU1MTUpIj4mI3hhOwkJCQk8dGl0bGUgaWQ9InRpdGxlMTE0MjM2Ij5TaGVldC41NTEzPC90aXRsZT4mI3hhOwkJCQk8cGF0aCBpZD0icGF0aDExNDIzOCIgaW5rc2NhcGU6Y29ubmVjdG9yLWN1cnZhdHVyZT0iMCIgc3R5bGU9ImZpbGw6I0RGREZERjsiIGQ9Ik0wLDQzLjZWNDVoMjMuODF2LTEuNEgweiIvPiYjeGE7CQkJPC9nPiYjeGE7CQkJPGcgaWQ9InNoYXBlNTUxNC0zMyIgdHJhbnNmb3JtPSJ0cmFuc2xhdGUoMzAuODE0NiwtMy44NTUxNSkiPiYjeGE7CQkJCTx0aXRsZSBpZD0idGl0bGUxMTQyNDEiPlNoZWV0LjU1MTQ8L3RpdGxlPiYjeGE7CQkJCTxwYXRoIGlkPSJwYXRoMTE0MjQzIiBpbmtzY2FwZTpjb25uZWN0b3ItY3VydmF0dXJlPSIwIiBzdHlsZT0iZmlsbDojREZERkRGOyIgZD0iTTAsMjkuMjNWNDVoMTguNTZWMjkuMjNIMHoiLz4mI3hhOwkJCTwvZz4mI3hhOwkJPC9nPiYjeGE7CTwvZz4mI3hhOzwvZz4mI3hhOzwvc3ZnPg==;" vertex="1" parent="YkggqUMwKx66I1lC0KBP-42">
          <mxGeometry x="18" y="22" width="115.21" height="85" as="geometry" />
        </mxCell>
        <mxCell id="YkggqUMwKx66I1lC0KBP-1" value="" style="shape=image;verticalLabelPosition=bottom;labelBackgroundColor=#ffffff;verticalAlign=top;aspect=fixed;imageAspect=0;image=data:image/svg+xml,PHN2ZyB4bWxuczpjYz0iaHR0cDovL2NyZWF0aXZlY29tbW9ucy5vcmcvbnMjIiB4bWxuczpkYz0iaHR0cDovL3B1cmwub3JnL2RjL2VsZW1lbnRzLzEuMS8iIHhtbG5zOmlua3NjYXBlPSJodHRwOi8vd3d3Lmlua3NjYXBlLm9yZy9uYW1lc3BhY2VzL2lua3NjYXBlIiB4bWxuczpyZGY9Imh0dHA6Ly93d3cudzMub3JnLzE5OTkvMDIvMjItcmRmLXN5bnRheC1ucyMiIHhtbG5zOnNvZGlwb2RpPSJodHRwOi8vc29kaXBvZGkuc291cmNlZm9yZ2UubmV0L0RURC9zb2RpcG9kaS0wLmR0ZCIgeG1sbnM6c3ZnPSJodHRwOi8vd3d3LnczLm9yZy8yMDAwL3N2ZyIgeG1sbnM9Imh0dHA6Ly93d3cudzMub3JnLzIwMDAvc3ZnIiB4bWxuczp4bGluaz0iaHR0cDovL3d3dy53My5vcmcvMTk5OS94bGluayIgdmVyc2lvbj0iMS4xIiBpZD0ic3ZnMTcwNzg2IiBpbmtzY2FwZTp2ZXJzaW9uPSIwLjkyLjMgKDI0MDU1NDYsIDIwMTgtMDMtMTEpIiBzb2RpcG9kaTpkb2NuYW1lPSJkb3RuZXRfY29yZS5zdmciIHg9IjBweCIgeT0iMHB4IiB2aWV3Qm94PSIwIDAgNDggNDgiIHN0eWxlPSJlbmFibGUtYmFja2dyb3VuZDpuZXcgMCAwIDQ4IDQ4OyIgeG1sOnNwYWNlPSJwcmVzZXJ2ZSI+JiN4YTs8c29kaXBvZGk6bmFtZWR2aWV3IGJvcmRlcmNvbG9yPSIjNjY2NjY2IiBib3JkZXJvcGFjaXR5PSIxIiBmaXQtbWFyZ2luLWJvdHRvbT0iMCIgZml0LW1hcmdpbi1sZWZ0PSIwIiBmaXQtbWFyZ2luLXJpZ2h0PSIwIiBmaXQtbWFyZ2luLXRvcD0iMCIgZ3JpZHRvbGVyYW5jZT0iMTAiIGd1aWRldG9sZXJhbmNlPSIxMCIgaWQ9Im5hbWVkdmlldzE3MDc4OCIgaW5rc2NhcGU6Y3VycmVudC1sYXllcj0ic3ZnMTcwNzg2IiBpbmtzY2FwZTpjeD0iMzEuNTU0NjA5IiBpbmtzY2FwZTpjeT0iMzEuNTU0NjA2IiBpbmtzY2FwZTpwYWdlb3BhY2l0eT0iMCIgaW5rc2NhcGU6cGFnZXNoYWRvdz0iMiIgaW5rc2NhcGU6d2luZG93LWhlaWdodD0iMTAxNyIgaW5rc2NhcGU6d2luZG93LW1heGltaXplZD0iMSIgaW5rc2NhcGU6d2luZG93LXdpZHRoPSIxOTIwIiBpbmtzY2FwZTp3aW5kb3cteD0iLTgiIGlua3NjYXBlOndpbmRvdy15PSItOCIgaW5rc2NhcGU6em9vbT0iMTIuOTYxNDQ1IiBvYmplY3R0b2xlcmFuY2U9IjEwIiBwYWdlY29sb3I9IiNmZmZmZmYiIHNob3dncmlkPSJmYWxzZSI+JiN4YTsJPC9zb2RpcG9kaTpuYW1lZHZpZXc+JiN4YTs8Y2lyY2xlIGlkPSJlbGxpcHNlMTcwNzM1IiBzdHlsZT0iZmlsbDojNUMyRDkxOyIgY3g9IjI0IiBjeT0iMjQiIHI9IjI0Ii8+JiN4YTs8cGF0aCBpZD0icGF0aDE3MDc0MCIgaW5rc2NhcGU6Y29ubmVjdG9yLWN1cnZhdHVyZT0iMCIgc3R5bGU9ImZpbGw6I0ZGRkZGRjtmaWxsLW9wYWNpdHk6MC4wOTg7IiBkPSJNNy4zNiw2Ljc1ICBDLTIuNTMsMTUuNTctMy40LDMwLjc0LDUuNDIsNDAuNjRTMjkuNDEsNTEuNCwzOS4zLDQyLjU4YzAuNjktMC42MSwxLjM0LTEuMjYsMS45NS0xLjk1TDcuMzYsNi43NXoiLz4mI3hhOzxwYXRoIGlkPSJwYXRoMTcwNzQ1IiBpbmtzY2FwZTpjb25uZWN0b3ItY3VydmF0dXJlPSIwIiBzdHlsZT0iZmlsbDojRkZGRkZGOyIgZD0iTTUuNTUsMjcuOTRjLTAuMjgsMC0wLjU2LTAuMTEtMC43NS0wLjMyICBjLTAuMi0wLjItMC4zMS0wLjQ3LTAuMzEtMC43NWMwLTAuMjgsMC4xMS0wLjU1LDAuMzEtMC43NUM1LDI1LjkxLDUuMjcsMjUuOCw1LjU1LDI1LjhjMC4yOCwwLDAuNTUsMC4xMSwwLjc1LDAuMzIgIGMwLjIsMC4yLDAuMzEsMC40NywwLjMxLDAuNzVjMCwwLjI4LTAuMTEsMC41NS0wLjMxLDAuNzVDNi4xMSwyNy44Miw1Ljg0LDI3Ljk0LDUuNTUsMjcuOTR6Ii8+JiN4YTs8cGF0aCBpZD0icGF0aDE3MDc1MCIgaW5rc2NhcGU6Y29ubmVjdG9yLWN1cnZhdHVyZT0iMCIgc3R5bGU9ImZpbGw6I0ZGRkZGRjsiIGQ9Ik0yMC40NSwyNy43NWgtMS45N2wtNy4wMi0xMC45MSAgYy0wLjE4LTAuMjctMC4zMi0wLjU1LTAuNDQtMC44NWgtMC4wNmMwLjA3LDAuNjIsMC4wOSwxLjI1LDAuMDgsMS44N3Y5Ljg5aC0xLjZWMTQuMDhoMi4wOGw2Ljg0LDEwLjcxICBjMC4yOCwwLjQ0LDAuNDcsMC43NSwwLjU1LDAuOTFoMC4wNGMtMC4wOC0wLjY3LTAuMTEtMS4zNC0wLjEtMi4wMXYtOS42MWgxLjZWMjcuNzV6Ii8+JiN4YTs8cGF0aCBpZD0icGF0aDE3MDc1NSIgaW5rc2NhcGU6Y29ubmVjdG9yLWN1cnZhdHVyZT0iMCIgc3R5bGU9ImZpbGw6I0ZGRkZGRjsiIGQ9Ik0zMS4yNywyNy43NUgyNFYxNC4wOGg2LjkzdjEuNDRoLTUuM3Y0LjU1aDQuOTQgIHYxLjQ0aC00Ljk0djQuNzRoNS42NEwzMS4yNywyNy43NXoiLz4mI3hhOzxwYXRoIGlkPSJwYXRoMTcwNzYwIiBpbmtzY2FwZTpjb25uZWN0b3ItY3VydmF0dXJlPSIwIiBzdHlsZT0iZmlsbDojRkZGRkZGOyIgZD0iTTQyLDE1LjUyaC0zLjk3djEyLjIzaC0xLjZWMTUuNTJIMzIuNXYtMS40NEg0MiAgVjE1LjUyeiIvPiYjeGE7PHBhdGggaWQ9InBhdGgxNzA3NjUiIGlua3NjYXBlOmNvbm5lY3Rvci1jdXJ2YXR1cmU9IjAiIHN0eWxlPSJmaWxsOiNGMkYyRjI7IiBkPSJNMTkuNTksMzcuMDVjLTAuNTQsMC4yNi0xLjE0LDAuMzktMS43NCwwLjM3ICBjLTAuODEsMC4wNC0xLjU5LTAuMjgtMi4xNS0wLjg2Yy0wLjU1LTAuNjItMC44NC0xLjQyLTAuODEtMi4yNWMtMC4wNC0wLjkxLDAuMjktMS43OSwwLjkxLTIuNDVjMC42MS0wLjYyLDEuNDQtMC45NiwyLjMxLTAuOTMgIGMwLjUxLTAuMDIsMS4wMiwwLjA3LDEuNSwwLjI2djAuNzVjLTAuNDYtMC4yNS0wLjk4LTAuMzgtMS41LTAuMzdjLTAuNjctMC4wMi0xLjMyLDAuMjUtMS43NywwLjc1Yy0wLjQ2LDAuNTMtMC43LDEuMjItMC42NywxLjkzICBjLTAuMDQsMC42NywwLjE5LDEuMzMsMC42MywxLjg0YzAuNDMsMC40NiwxLjAzLDAuNzEsMS42NiwwLjY4YzAuNTgsMC4wMSwxLjE0LTAuMTMsMS42NC0wLjQyTDE5LjU5LDM3LjA1eiIvPiYjeGE7PHBhdGggaWQ9InBhdGgxNzA3NzAiIGlua3NjYXBlOmNvbm5lY3Rvci1jdXJ2YXR1cmU9IjAiIHN0eWxlPSJmaWxsOiNGMkYyRjI7IiBkPSJNMjIuNjYsMzcuNDJjLTAuNjEsMC4wMi0xLjE5LTAuMjItMS42LTAuNjcgIGMtMC40MS0wLjQ2LTAuNjItMS4wNi0wLjU5LTEuNjdjLTAuMDQtMC42NSwwLjE4LTEuMjksMC42Mi0xLjc3YzAuNDQtMC40MywxLjA1LTAuNjcsMS42Ny0wLjY0YzAuNTktMC4wMywxLjE2LDAuMTksMS41NywwLjYyICBjMC40LDAuNDgsMC42LDEuMSwwLjU2LDEuNzJjMC4wMywwLjYzLTAuMTgsMS4yNS0wLjYsMS43M0MyMy44NywzNy4xOSwyMy4yNywzNy40NCwyMi42NiwzNy40MnogTTIyLjcxLDMzLjMyICBjLTAuNDItMC4wMi0wLjgyLDAuMTYtMS4wOSwwLjQ3Yy0wLjI5LDAuMzctMC40MywwLjgzLTAuNDEsMS4zYy0wLjAyLDAuNDYsMC4xMiwwLjkxLDAuNDEsMS4yNmMwLjI3LDAuMzEsMC42NywwLjQ4LDEuMDksMC40NyAgYzAuNDEsMC4wMiwwLjgtMC4xNCwxLjA3LTAuNDVjMC4yNy0wLjM3LDAuNDEtMC44MywwLjM4LTEuMjljMC4wMy0wLjQ2LTAuMTEtMC45Mi0wLjM4LTEuM0MyMy41MSwzMy40NywyMy4xMiwzMy4zLDIyLjcxLDMzLjMyeiIvPiYjeGE7PHBhdGggaWQ9InBhdGgxNzA3NzUiIGlua3NjYXBlOmNvbm5lY3Rvci1jdXJ2YXR1cmU9IjAiIHN0eWxlPSJmaWxsOiNGMkYyRjI7IiBkPSJNMjguMzksMzMuNTRjLTAuMTYtMC4xMS0wLjM1LTAuMTYtMC41NS0wLjE0ICBjLTAuMzEsMC4wMS0wLjU5LDAuMTctMC43NSwwLjQ0Yy0wLjIyLDAuMzUtMC4zMywwLjc2LTAuMywxLjE4djIuM2gtMC43NXYtNC41aDAuNzV2MC45NGMwLjA4LTAuMjksMC4yNC0wLjU1LDAuNDctMC43NSAgYzAuMi0wLjE3LDAuNDUtMC4yNywwLjcxLTAuMjdjMC4xNC0wLjAxLDAuMjgsMC4wMSwwLjQyLDAuMDZMMjguMzksMzMuNTR6Ii8+JiN4YTs8cGF0aCBpZD0icGF0aDE3MDc4MCIgaW5rc2NhcGU6Y29ubmVjdG9yLWN1cnZhdHVyZT0iMCIgc3R5bGU9ImZpbGw6I0YyRjJGMjsiIGQ9Ik0zMi43OCwzNS4yNWgtMy4xNyAgYy0wLjAyLDAuNDIsMC4xMSwwLjgzLDAuMzgsMS4xNWMwLjI4LDAuMjgsMC42NywwLjQzLDEuMDcsMC40MWMwLjUxLTAuMDEsMS0wLjE4LDEuMzktMC41djAuNjdjLTAuNDYsMC4zLTEuMDEsMC40Ni0xLjU2LDAuNDMgIGMtMC41NywwLjAzLTEuMTItMC4yLTEuNS0wLjYyYy0wLjM5LTAuNDktMC41OS0xLjEtMC41NS0xLjcyYy0wLjAzLTAuNjIsMC4xOC0xLjI0LDAuNTktMS43MWMwLjM4LTAuNDMsMC45My0wLjY4LDEuNS0wLjY2ICBjMC41Mi0wLjAzLDEuMDMsMC4xOCwxLjM3LDAuNTdjMC4zNSwwLjQ2LDAuNTIsMS4wMiwwLjQ4LDEuNTlWMzUuMjV6IE0zMi4wMywzNC42NGMwLjAyLTAuMzUtMC4wOS0wLjY5LTAuMy0wLjk3ICBjLTAuMjEtMC4yMy0wLjUxLTAuMzYtMC44Mi0wLjM0Yy0wLjMzLDAtMC42NCwwLjEzLTAuODYsMC4zN2MtMC4yNSwwLjI2LTAuNDEsMC41OS0wLjQ1LDAuOTVMMzIuMDMsMzQuNjR6Ii8+JiN4YTs8L3N2Zz4=;" vertex="1" parent="YkggqUMwKx66I1lC0KBP-42">
          <mxGeometry width="52" height="52" as="geometry" />
        </mxCell>
        <mxCell id="YkggqUMwKx66I1lC0KBP-39" value="" style="shape=image;verticalLabelPosition=bottom;labelBackgroundColor=#ffffff;verticalAlign=top;aspect=fixed;imageAspect=0;image=data:image/svg+xml,PHN2ZyB4bWxuczpkYz0iaHR0cDovL3B1cmwub3JnL2RjL2VsZW1lbnRzLzEuMS8iIHhtbG5zOmNjPSJodHRwOi8vY3JlYXRpdmVjb21tb25zLm9yZy9ucyMiIHhtbG5zOnJkZj0iaHR0cDovL3d3dy53My5vcmcvMTk5OS8wMi8yMi1yZGYtc3ludGF4LW5zIyIgeG1sbnM6c3ZnPSJodHRwOi8vd3d3LnczLm9yZy8yMDAwL3N2ZyIgeG1sbnM9Imh0dHA6Ly93d3cudzMub3JnLzIwMDAvc3ZnIiB4bWxuczpzb2RpcG9kaT0iaHR0cDovL3NvZGlwb2RpLnNvdXJjZWZvcmdlLm5ldC9EVEQvc29kaXBvZGktMC5kdGQiIHhtbG5zOmlua3NjYXBlPSJodHRwOi8vd3d3Lmlua3NjYXBlLm9yZy9uYW1lc3BhY2VzL2lua3NjYXBlIiB2ZXJzaW9uPSIxLjEiIGlkPSJzdmcxMDQ1NzIiIGlua3NjYXBlOnZlcnNpb249IjAuOTIuMyAoMjQwNTU0NiwgMjAxOC0wMy0xMSkiIHNvZGlwb2RpOmRvY25hbWU9InNxbC5zdmciIHg9IjBweCIgeT0iMHB4IiB2aWV3Qm94PSIwIDAgNDYuMDMgNjEuMDIiIHhtbDpzcGFjZT0icHJlc2VydmUiIHdpZHRoPSI0Ni4wMjk5OTkiIGhlaWdodD0iNjEuMDIiPjxtZXRhZGF0YSBpZD0ibWV0YWRhdGExMDQ4Ij48cmRmOlJERj48Y2M6V29yayByZGY6YWJvdXQ9IiI+PGRjOmZvcm1hdD5pbWFnZS9zdmcreG1sPC9kYzpmb3JtYXQ+PGRjOnR5cGUgcmRmOnJlc291cmNlPSJodHRwOi8vcHVybC5vcmcvZGMvZGNtaXR5cGUvU3RpbGxJbWFnZSIvPjxkYzp0aXRsZS8+PC9jYzpXb3JrPjwvcmRmOlJERj48L21ldGFkYXRhPjxkZWZzIGlkPSJkZWZzMTA0NiI+JiN4YTsJJiN4YTsmI3hhOwkmI3hhOyYjeGE7CSYjeGE7JiN4YTsJJiN4YTsmI3hhOwkmI3hhOyYjeGE7CSYjeGE7JiN4YTsJJiN4YTsmI3hhOwkmI3hhOyYjeGE7CSYjeGE7JiN4YTsJCSYjeGE7CSYjeGE7CQkmI3hhOwkmI3hhOwkJJiN4YTsJJiN4YTsJCSYjeGE7CSYjeGE7CQkmI3hhOwkmI3hhOwkJJiN4YTsJJiN4YTsJCSYjeGE7CSYjeGE7CQkmI3hhOwk8L2RlZnM+JiN4YTs8ZmlsdGVyIGlkPSJmaWx0ZXJfMiI+JiN4YTsJPGZlR2F1c3NpYW5CbHVyIGlkPSJmZUdhdXNzaWFuQmx1cjEwNDQ4OSIgc3RkRGV2aWF0aW9uPSIyIi8+JiN4YTs8L2ZpbHRlcj4mI3hhOzxzb2RpcG9kaTpuYW1lZHZpZXcgYm9yZGVyY29sb3I9IiM2NjY2NjYiIGJvcmRlcm9wYWNpdHk9IjEiIGZpdC1tYXJnaW4tYm90dG9tPSIwIiBmaXQtbWFyZ2luLWxlZnQ9IjAiIGZpdC1tYXJnaW4tcmlnaHQ9IjAiIGZpdC1tYXJnaW4tdG9wPSIwIiBncmlkdG9sZXJhbmNlPSIxMCIgZ3VpZGV0b2xlcmFuY2U9IjEwIiBpZD0ibmFtZWR2aWV3MTA0NTc0IiBpbmtzY2FwZTpjdXJyZW50LWxheWVyPSJzdmcxMDQ1NzIiIGlua3NjYXBlOmN4PSIwLjI3NDc3MzkyIiBpbmtzY2FwZTpjeT0iMjcuOTI1ODA5IiBpbmtzY2FwZTpwYWdlb3BhY2l0eT0iMCIgaW5rc2NhcGU6cGFnZXNoYWRvdz0iMiIgaW5rc2NhcGU6d2luZG93LWhlaWdodD0iMTAxNyIgaW5rc2NhcGU6d2luZG93LW1heGltaXplZD0iMSIgaW5rc2NhcGU6d2luZG93LXdpZHRoPSIxOTIwIiBpbmtzY2FwZTp3aW5kb3cteD0iLTgiIGlua3NjYXBlOndpbmRvdy15PSItOCIgaW5rc2NhcGU6em9vbT0iNy42MDUyNjMyIiBvYmplY3R0b2xlcmFuY2U9IjEwIiBwYWdlY29sb3I9IiNmZmZmZmYiIHNob3dncmlkPSJmYWxzZSI+JiN4YTsJPC9zb2RpcG9kaTpuYW1lZHZpZXc+JiN4YTsmI3hhOzxwYXRoIGlkPSJwYXRoMTA0NTAyIiBpbmtzY2FwZTpjb25uZWN0b3ItY3VydmF0dXJlPSIwIiBzdHlsZT0iZmlsbDojMDA3MmM2IiBkPSJtIDAsOC4zNCB2IDQ0LjM0IGMgMCw0LjYxIDEwLjMxLDguMzQgMjMuMDIsOC4zNCBWIDguMzQgWiIvPiYjeGE7JiN4YTs8cGF0aCBpZD0icGF0aDEwNDUxMCIgaW5rc2NhcGU6Y29ubmVjdG9yLWN1cnZhdHVyZT0iMCIgc3R5bGU9ImZpbGw6IzAwNzJjNiIgZD0ibSAyMi43LDYxLjAyIGggMC4zMiBjIDEyLjcxLDAgMjMuMDEsLTMuNzMgMjMuMDEsLTguMzQgViA4LjM0IEggMjIuNyBaIi8+JiN4YTsmI3hhOzxwYXRoIGlkPSJwYXRoMTA0NTE4IiBpbmtzY2FwZTpjb25uZWN0b3ItY3VydmF0dXJlPSIwIiBzdHlsZT0iZmlsbDojZmZmZmZmO2ZpbGwtb3BhY2l0eTowLjE1IiBkPSJtIDIyLjcsNjEuMDIgaCAwLjMyIGMgMTIuNzEsMCAyMy4wMSwtMy43MyAyMy4wMSwtOC4zNCBWIDguMzQgSCAyMi43IFoiLz4mI3hhOyYjeGE7PHBhdGggaWQ9InBhdGgxMDQ1MjYiIGlua3NjYXBlOmNvbm5lY3Rvci1jdXJ2YXR1cmU9IjAiIHN0eWxlPSJmaWxsOiNmZmZmZmYiIGQ9Im0gNDYuMDMsOC4zMyBjIDAsNC42MSAtMTAuMyw4LjM0IC0yMy4wMSw4LjM0IEMgMTAuMzEsMTYuNjcgMCwxMi45NCAwLDguMzMgMCwzLjczIDEwLjMxLDAgMjMuMDIsMCAzNS43MywwIDQ2LjAzLDMuNzMgNDYuMDMsOC4zMyBaIi8+JiN4YTsmI3hhOzxwYXRoIGlkPSJwYXRoMTA0NTM0IiBpbmtzY2FwZTpjb25uZWN0b3ItY3VydmF0dXJlPSIwIiBzdHlsZT0iZmlsbDojN2ZiYTAwIiBkPSJtIDQxLjMyLDcuODUgYyAwLDMuMDQgLTguMTksNS41IC0xOC4zMSw1LjUgLTEwLjExLDAgLTE4LjMxLC0yLjQ2IC0xOC4zMSwtNS41IDAsLTMuMDQgOC4yLC01LjUgMTguMzEsLTUuNSAxMC4xMiwwIDE4LjMxLDIuNDYgMTguMzEsNS41IHoiLz4mI3hhOyYjeGE7PHBhdGggaWQ9InBhdGgxMDQ1NDIiIGlua3NjYXBlOmNvbm5lY3Rvci1jdXJ2YXR1cmU9IjAiIHN0eWxlPSJmaWxsOiNiOGQ0MzIiIGQ9Im0gMzcuNSwxMS4yMSBjIDIuMzksLTAuOTMgMy44MywtMi4wOSAzLjgzLC0zLjM2IDAsLTMuMDQgLTguMTksLTUuNSAtMTguMzEsLTUuNSAtMTAuMTEsMCAtMTguMzEsMi40NiAtMTguMzEsNS41IDAsMS4yNyAxLjQ0LDIuNDMgMy44NCwzLjM2IDMuMzUsLTEuMyA4LjU4LC0yLjE0IDE0LjQ3LC0yLjE0IDUuOSwwIDExLjEzLDAuODQgMTQuNDgsMi4xNCB6Ii8+JiN4YTsmI3hhOzxwYXRoIGlkPSJwYXRoMTA0NTUwIiBpbmtzY2FwZTpjb25uZWN0b3ItY3VydmF0dXJlPSIwIiBzdHlsZT0iZmlsbDojZmZmZmZmIiBkPSJtIDE1LjcxLDM5LjExIGMgMCwxLjM4IC0wLjUsMi40NSAtMS41LDMuMjEgLTEsMC43NSAtMi4zOCwxLjEzIC00LjE0LDEuMTMgLTEuNSwwIC0yLjc1LC0wLjI3IC0zLjc2LC0wLjgxIFYgMzkuNCBjIDEuMTYsMC45OCAyLjQ0LDEuNDggMy44NCwxLjQ4IDAuNjcsMCAxLjIsLTAuMTQgMS41NiwtMC40MSAwLjM3LC0wLjI3IDAuNTYsLTAuNjMgMC41NiwtMS4wNyAwLC0wLjQ0IC0wLjE4LC0wLjgyIC0wLjUzLC0xLjE1IEMgMTEuMzgsMzcuOTMgMTAuNjYsMzcuNTEgOS41NywzNyA3LjM2LDM1Ljk2IDYuMjUsMzQuNTQgNi4yNSwzMi43NCBjIDAsLTEuMyAwLjQ4LC0yLjM1IDEuNDUsLTMuMTMgMC45NiwtMC43OSAyLjI1LC0xLjE4IDMuODUsLTEuMTggMS40MiwwIDIuNTksMC4xOCAzLjUyLDAuNTUgdiAzLjAzIEMgMTQuMDksMzEuMzQgMTIuOTgsMzEgMTEuNzMsMzEgYyAtMC42MywwIC0xLjEyLDAuMTMgLTEuNDksMC40IC0wLjM2LDAuMjcgLTAuNTQsMC42MiAtMC41NCwxLjA3IDAsMC40NiAwLjE0LDAuODMgMC40NCwxLjEzIDAuMjksMC4yOSAwLjg5LDAuNjUgMS44LDEuMDkgMS4zNiwwLjY0IDIuMzMsMS4yOSAyLjkxLDEuOTUgMC41NywwLjY2IDAuODYsMS40OSAwLjg2LDIuNDcgeiIvPiYjeGE7JiN4YTs8cGF0aCBpZD0icGF0aDEwNDU1OCIgaW5rc2NhcGU6Y29ubmVjdG9yLWN1cnZhdHVyZT0iMCIgc3R5bGU9ImZpbGw6I2ZmZmZmZiIgZD0ibSAzMS4zMywzNS44NCBjIDAsMS43MSAtMC4zOSwzLjE5IC0xLjE2LDQuNDUgLTAuNzgsMS4yNSAtMS44NywyLjEzIC0zLjI4LDIuNjQgbCA0LjIxLDMuOSBoIC00LjI1IGwgLTMuMDEsLTMuMzcgYyAtMS4yOSwtMC4wNSAtMi40NiwtMC4zOSAtMy40OSwtMS4wMyAtMS4wNCwtMC42MyAtMS44NCwtMS41IC0yLjQsLTIuNjEgLTAuNTcsLTEuMSAtMC44NSwtMi4zMyAtMC44NSwtMy42OSAwLC0xLjUgMC4zMSwtMi44NSAwLjkyLC00LjAyIDAuNjEsLTEuMTggMS40NywtMi4wOSAyLjU3LC0yLjcyIDEuMTEsLTAuNjQgMi4zOCwtMC45NiAzLjgxLC0wLjk2IDEuMzQsMCAyLjU0LDAuMzEgMy41OSwwLjkzIDEuMDYsMC42MSAxLjg4LDEuNDggMi40NywyLjYyIDAuNTgsMS4xMyAwLjg3LDIuNDIgMC44NywzLjg2IHogbSAtMy40NCwwLjE4IGMgMCwtMS40NyAtMC4zMiwtMi42MyAtMC45NiwtMy40OSAtMC42NSwtMC44NSAtMS41MiwtMS4yOCAtMi42NCwtMS4yOCAtMS4xMywwIC0yLjA0LDAuNDMgLTIuNzIsMS4yOSAtMC42OCwwLjg1IC0xLjAzLDEuOTkgLTEuMDMsMy40MiAwLDEuNDIgMC4zNCwyLjU1IDEuMDEsMy40IDAuNjcsMC44NCAxLjU1LDEuMjcgMi42NiwxLjI3IDEuMTMsMCAyLjAyLC0wLjQxIDIuNjgsLTEuMjMgMC42NywtMC44MiAxLC0xLjk1IDEsLTMuMzggeiIvPiYjeGE7JiN4YTs8cGF0aCBpZD0icGF0aDEwNDU2NiIgaW5rc2NhcGU6Y29ubmVjdG9yLWN1cnZhdHVyZT0iMCIgc3R5bGU9ImZpbGw6I2ZmZmZmZiIgZD0iTSA0Mi4zOSw0My4yIEggMzMuNzQgViAyOC42NyBoIDMuMjcgdiAxMS44OCBoIDUuMzggeiIvPiYjeGE7PC9zdmc+;" vertex="1" parent="1">
          <mxGeometry x="337" y="158.5" width="79.93" height="106" as="geometry" />
        </mxCell>
        <mxCell id="YkggqUMwKx66I1lC0KBP-40" value="&lt;font style=&quot;font-size: 20px;&quot;&gt;TechNews&lt;/font&gt;" style="text;html=1;align=center;verticalAlign=middle;resizable=0;points=[];autosize=1;strokeColor=none;fillColor=none;" vertex="1" parent="1">
          <mxGeometry x="418" y="199" width="110" height="36" as="geometry" />
        </mxCell>
        <mxCell id="YkggqUMwKx66I1lC0KBP-46" value="" style="group" vertex="1" connectable="0" parent="1">
          <mxGeometry x="-107.00000000000004" y="383" width="178" height="146.5" as="geometry" />
        </mxCell>
        <mxCell id="YkggqUMwKx66I1lC0KBP-17" value="" style="shape=image;verticalLabelPosition=bottom;labelBackgroundColor=#ffffff;verticalAlign=top;aspect=fixed;imageAspect=0;image=data:image/svg+xml,PHN2ZyB4bWxuczpjYz0iaHR0cDovL2NyZWF0aXZlY29tbW9ucy5vcmcvbnMjIiB4bWxuczpkYz0iaHR0cDovL3B1cmwub3JnL2RjL2VsZW1lbnRzLzEuMS8iIHhtbG5zOmlua3NjYXBlPSJodHRwOi8vd3d3Lmlua3NjYXBlLm9yZy9uYW1lc3BhY2VzL2lua3NjYXBlIiB4bWxuczpyZGY9Imh0dHA6Ly93d3cudzMub3JnLzE5OTkvMDIvMjItcmRmLXN5bnRheC1ucyMiIHhtbG5zOnNvZGlwb2RpPSJodHRwOi8vc29kaXBvZGkuc291cmNlZm9yZ2UubmV0L0RURC9zb2RpcG9kaS0wLmR0ZCIgeG1sbnM6c3ZnPSJodHRwOi8vd3d3LnczLm9yZy8yMDAwL3N2ZyIgeG1sbnM9Imh0dHA6Ly93d3cudzMub3JnLzIwMDAvc3ZnIiB4bWxuczp4bGluaz0iaHR0cDovL3d3dy53My5vcmcvMTk5OS94bGluayIgdmVyc2lvbj0iMS4xIiBpZD0ic3ZnMTk4MDc4IiBpbmtzY2FwZTp2ZXJzaW9uPSIwLjkyLjMgKDI0MDU1NDYsIDIwMTgtMDMtMTEpIiBzb2RpcG9kaTpkb2NuYW1lPSJyZXN0LnN2ZyIgeD0iMHB4IiB5PSIwcHgiIHZpZXdCb3g9IjAgMCA1Ny42NSA1Ny42NSIgc3R5bGU9ImVuYWJsZS1iYWNrZ3JvdW5kOm5ldyAwIDAgNTcuNjUgNTcuNjU7IiB4bWw6c3BhY2U9InByZXNlcnZlIj4mI3hhOzxzb2RpcG9kaTpuYW1lZHZpZXcgYm9yZGVyY29sb3I9IiM2NjY2NjYiIGJvcmRlcm9wYWNpdHk9IjEiIGZpdC1tYXJnaW4tYm90dG9tPSIwIiBmaXQtbWFyZ2luLWxlZnQ9IjAiIGZpdC1tYXJnaW4tcmlnaHQ9IjAiIGZpdC1tYXJnaW4tdG9wPSIwIiBncmlkdG9sZXJhbmNlPSIxMCIgZ3VpZGV0b2xlcmFuY2U9IjEwIiBpZD0ibmFtZWR2aWV3MTk4MDgwIiBpbmtzY2FwZTpjdXJyZW50LWxheWVyPSJzdmcxOTgwNzgiIGlua3NjYXBlOmN4PSIzOC40MzAyMyIgaW5rc2NhcGU6Y3k9IjM4LjQzNjQ5NiIgaW5rc2NhcGU6cGFnZW9wYWNpdHk9IjAiIGlua3NjYXBlOnBhZ2VzaGFkb3c9IjIiIGlua3NjYXBlOndpbmRvdy1oZWlnaHQ9IjEwMTciIGlua3NjYXBlOndpbmRvdy1tYXhpbWl6ZWQ9IjEiIGlua3NjYXBlOndpbmRvdy13aWR0aD0iMTkyMCIgaW5rc2NhcGU6d2luZG93LXg9Ii04IiBpbmtzY2FwZTp3aW5kb3cteT0iLTgiIGlua3NjYXBlOnpvb209IjguOTE0MjA2OSIgb2JqZWN0dG9sZXJhbmNlPSIxMCIgcGFnZWNvbG9yPSIjZmZmZmZmIiBzaG93Z3JpZD0iZmFsc2UiPiYjeGE7CTwvc29kaXBvZGk6bmFtZWR2aWV3PiYjeGE7PGcgaWQ9ImcxOTgwNzYiIHRyYW5zZm9ybT0idHJhbnNsYXRlKC03LjY1LC03LjY1MDAwMTEpIj4mI3hhOwk8dGl0bGUgaWQ9InRpdGxlMTk4MDM4Ij5QYWdlLTE8L3RpdGxlPiYjeGE7CTxnIGlkPSJncm91cDEwNjktMSIgdHJhbnNmb3JtPSJ0cmFuc2xhdGUoNy42NSwtNy42NSkiPiYjeGE7CQk8dGl0bGUgaWQ9InRpdGxlMTk4MDQwIj5SRVNUPC90aXRsZT4mI3hhOwkJPGcgaWQ9InNoYXBlMTA3MC0yIj4mI3hhOwkJCTx0aXRsZSBpZD0idGl0bGUxOTgwNDIiPlNoZWV0LjEwNzA8L3RpdGxlPiYjeGE7CQkJPGNpcmNsZSBpZD0iZWxsaXBzZTE5ODA0NCIgc3R5bGU9ImZpbGw6IzEwN0MxMDsiIGN4PSIyOC44MiIgY3k9IjQ0LjEyIiByPSIyOC44MiIvPiYjeGE7CQk8L2c+JiN4YTsJCTxnIGlkPSJzaGFwZTEwNzEtNCI+JiN4YTsJCQk8dGl0bGUgaWQ9InRpdGxlMTk4MDQ3Ij5TaGVldC4xMDcxPC90aXRsZT4mI3hhOwkJCTxwYXRoIGlkPSJwYXRoMTk4MDQ5IiBpbmtzY2FwZTpjb25uZWN0b3ItY3VydmF0dXJlPSIwIiBzdHlsZT0iZmlsbDojMDA0QjFDOyIgZD0iTTguODYsMjMuMzdDMy4zOSwyOC42MywwLDM1Ljk4LDAsNDQuMTIgICAgIGMwLDE1LjkzLDEyLjksMjguODMsMjguODIsMjguODNjOC4xNSwwLDE1LjQ5LTMuMzksMjAuNzUtOC44N0w4Ljg2LDIzLjM3eiIvPiYjeGE7CQk8L2c+JiN4YTsJCTxnIGlkPSJncm91cDEwNzItNiIgdHJhbnNmb3JtPSJ0cmFuc2xhdGUoNi42NzI0NCwtMjAuOTk4NykiPiYjeGE7CQkJPHRpdGxlIGlkPSJ0aXRsZTE5ODA1MiI+U2hlZXQuMTA3MjwvdGl0bGU+JiN4YTsJCQk8ZyBpZD0ic2hhcGUxMDczLTciIHRyYW5zZm9ybT0idHJhbnNsYXRlKDAsLTAuMjU1ODAxKSI+JiN4YTsJCQkJPHRpdGxlIGlkPSJ0aXRsZTE5ODA1NCI+U2hlZXQuMTA3MzwvdGl0bGU+JiN4YTsJCQkJPHBhdGggaWQ9InBhdGgxOTgwNTYiIGlua3NjYXBlOmNvbm5lY3Rvci1jdXJ2YXR1cmU9IjAiIHN0eWxlPSJmaWxsOiNGRkZGRkY7IiBkPSJNMTAuODUsNzIuOTVIOC43NEw2LjIxLDY4LjcgICAgICBjLTAuMjQtMC4zOS0wLjQ2LTAuNzMtMC42OC0xLjAxYy0wLjIyLTAuMjctMC40NC0wLjUtMC42Ny0wLjY4Yy0wLjIzLTAuMTctMC40Ny0wLjMtMC43NC0wLjM4Yy0wLjI2LTAuMDgtMC41Ni0wLjEyLTAuODktMC4xMiAgICAgIEgxLjc3djYuNDRIMFY1Ny44MWg0LjUyYzAuNjYsMCwxLjI3LDAuMDgsMS44MywwLjI1YzAuNTYsMC4xNiwxLjA0LDAuNDEsMS40NiwwLjc1YzAuNDEsMC4zNCwwLjczLDAuNzYsMC45NiwxLjI2ICAgICAgYzAuMjMsMC41MSwwLjM1LDEuMDksMC4zNSwxLjc3YzAsMC41My0wLjA4LDEuMDEtMC4yNCwxLjQ1Yy0wLjE2LDAuNDQtMC4zOCwwLjgzLTAuNjcsMS4xOGMtMC4zLDAuMzQtMC42NSwwLjY0LTEuMDYsMC44OCAgICAgIHMtMC44NywwLjQzLTEuMzksMC41NnYwLjA1YzAuMjYsMC4xMSwwLjQ4LDAuMjQsMC42NiwwLjM4YzAuMTksMC4xNSwwLjM3LDAuMzIsMC41NCwwLjUxYzAuMTYsMC4yLDAuMzMsMC40MiwwLjUsMC42NyAgICAgIGMwLjE2LDAuMjUsMC4zNSwwLjU0LDAuNTUsMC44OEwxMC44NSw3Mi45NXogTTEuNzcsNTkuNDF2NS40OWgyLjQxYzAuNDQsMCwwLjg1LTAuMDcsMS4yMy0wLjJzMC43LTAuMzIsMC45OC0wLjU3ICAgICAgYzAuMjctMC4yNSwwLjQ5LTAuNTYsMC42NC0wLjkyYzAuMTYtMC4zNiwwLjIzLTAuNzcsMC4yMy0xLjIyYzAtMC44MS0wLjI2LTEuNDQtMC43OC0xLjljLTAuNTMtMC40NS0xLjI5LTAuNjgtMi4yOC0wLjY4SDEuNzd6ICAgICAgIi8+JiN4YTsJCQk8L2c+JiN4YTsJCQk8ZyBpZD0ic2hhcGUxMDc0LTkiIHRyYW5zZm9ybT0idHJhbnNsYXRlKDEyLjkzMDYsLTAuMjU1ODAxKSI+JiN4YTsJCQkJPHRpdGxlIGlkPSJ0aXRsZTE5ODA1OSI+U2hlZXQuMTA3NDwvdGl0bGU+JiN4YTsJCQkJPHBhdGggaWQ9InBhdGgxOTgwNjEiIGlua3NjYXBlOmNvbm5lY3Rvci1jdXJ2YXR1cmU9IjAiIHN0eWxlPSJmaWxsOiNGRkZGRkY7IiBkPSJNOC4wMiw3Mi45NUgwVjU3LjgxaDcuNjh2MS42SDEuNzd2NS4wNGg1LjQ3ICAgICAgdjEuNTlIMS43N3Y1LjNoNi4yNVY3Mi45NXoiLz4mI3hhOwkJCTwvZz4mI3hhOwkJCTxnIGlkPSJzaGFwZTEwNzUtMTEiIHRyYW5zZm9ybT0idHJhbnNsYXRlKDIzLjE1ODMpIj4mI3hhOwkJCQk8dGl0bGUgaWQ9InRpdGxlMTk4MDY0Ij5TaGVldC4xMDc1PC90aXRsZT4mI3hhOwkJCQk8cGF0aCBpZD0icGF0aDE5ODA2NiIgaW5rc2NhcGU6Y29ubmVjdG9yLWN1cnZhdHVyZT0iMCIgc3R5bGU9ImZpbGw6I0ZGRkZGRjsiIGQ9Ik0wLDcyLjA4di0yLjA5YzAuMjQsMC4yMSwwLjUzLDAuNCwwLjg2LDAuNTcgICAgICBzMC42OSwwLjMxLDEuMDYsMC40M2MwLjM3LDAuMTEsMC43NCwwLjIsMS4xMSwwLjI2YzAuMzcsMC4wNywwLjcyLDAuMSwxLjAzLDAuMWMxLjA5LDAsMS45MS0wLjIsMi40NS0wLjYxICAgICAgYzAuNTQtMC40LDAuODEtMC45OCwwLjgxLTEuNzRjMC0wLjQxLTAuMDktMC43Ny0wLjI3LTEuMDdjLTAuMTgtMC4zLTAuNDMtMC41OC0wLjc1LTAuODNjLTAuMzItMC4yNS0wLjY5LTAuNDktMS4xMi0wLjcyICAgICAgYy0wLjQ0LTAuMjItMC45LTAuNDctMS40LTAuNzJjLTAuNTMtMC4yNy0xLjAyLTAuNTQtMS40OC0wLjgxYy0wLjQ2LTAuMjgtMC44NS0wLjU4LTEuMTktMC45MXMtMC42LTAuNzEtMC44LTEuMTIgICAgICBjLTAuMTktMC40Mi0wLjI5LTAuOTEtMC4yOS0xLjQ4YzAtMC42OSwwLjE1LTEuMjksMC40NS0xLjhjMC4zMS0wLjUxLDAuNzEtMC45MywxLjItMS4yNmMwLjQ5LTAuMzMsMS4wNS0wLjU3LDEuNjgtMC43NCAgICAgIGMwLjYzLTAuMTYsMS4yNy0wLjI0LDEuOTMtMC4yNGMxLjQ5LDAsMi41OCwwLjE4LDMuMjYsMC41NHYyYy0wLjktMC42Mi0yLjA0LTAuOTMtMy40NC0wLjkzYy0wLjM5LDAtMC43OCwwLjA0LTEuMTYsMC4xMiAgICAgIGMtMC4zOSwwLjA4LTAuNzQsMC4yMS0xLjA0LDAuMzljLTAuMywwLjE5LTAuNTUsMC40Mi0wLjc0LDAuNzFzLTAuMjgsMC42NC0wLjI4LDEuMDZjMCwwLjM4LDAuMDcsMC43MiwwLjIxLDEgICAgICBjMC4xNSwwLjI4LDAuMzYsMC41NCwwLjY0LDAuNzdzMC42MywwLjQ2LDEuMDMsMC42N2MwLjQxLDAuMjIsMC44NywwLjQ2LDEuNCwwLjcyQzUuNyw2NC42Miw2LjIyLDY0LjksNi43LDY1LjIgICAgICBjMC40OSwwLjI5LDAuOTEsMC42MiwxLjI4LDAuOThjMC4zNiwwLjM2LDAuNjUsMC43NiwwLjg3LDEuMTljMC4yMSwwLjQ0LDAuMzIsMC45NCwwLjMyLDEuNWMwLDAuNzUtMC4xNSwxLjM4LTAuNDQsMS44OSAgICAgIGMtMC4yOSwwLjUyLTAuNjgsMC45NC0xLjE4LDEuMjdjLTAuNSwwLjMyLTEuMDcsMC41NS0xLjcxLDAuN2MtMC42NSwwLjE0LTEuMzQsMC4yMi0yLjA1LDAuMjJjLTAuMjQsMC0wLjU0LTAuMDItMC44OS0wLjA2ICAgICAgcy0wLjcxLTAuMS0xLjA4LTAuMTdjLTAuMzYtMC4wOC0wLjcxLTAuMTctMS4wNC0wLjI4QzAuNDYsNzIuMzMsMC4yLDcyLjIxLDAsNzIuMDh6Ii8+JiN4YTsJCQk8L2c+JiN4YTsJCQk8ZyBpZD0ic2hhcGUxMDc2LTEzIiB0cmFuc2Zvcm09InRyYW5zbGF0ZSgzMy43OTgxLC0wLjI1NTgwMSkiPiYjeGE7CQkJCTx0aXRsZSBpZD0idGl0bGUxOTgwNjkiPlNoZWV0LjEwNzY8L3RpdGxlPiYjeGE7CQkJCTxwYXRoIGlkPSJwYXRoMTk4MDcxIiBpbmtzY2FwZTpjb25uZWN0b3ItY3VydmF0dXJlPSIwIiBzdHlsZT0iZmlsbDojRkZGRkZGOyIgZD0iTTEwLjUsNTkuNDFINi4xM3YxMy41NEg0LjM2VjU5LjQxSDB2LTEuNiAgICAgIGgxMC41VjU5LjQxeiIvPiYjeGE7CQkJPC9nPiYjeGE7CQk8L2c+JiN4YTsJPC9nPiYjeGE7PC9nPiYjeGE7PC9zdmc+;" vertex="1" parent="YkggqUMwKx66I1lC0KBP-46">
          <mxGeometry x="83.5" width="49" height="49" as="geometry" />
        </mxCell>
        <mxCell id="YkggqUMwKx66I1lC0KBP-18" value="" style="shape=image;verticalLabelPosition=bottom;labelBackgroundColor=#ffffff;verticalAlign=top;aspect=fixed;imageAspect=0;image=data:image/svg+xml,PHN2ZyB4bWxuczpjYz0iaHR0cDovL2NyZWF0aXZlY29tbW9ucy5vcmcvbnMjIiB4bWxuczpkYz0iaHR0cDovL3B1cmwub3JnL2RjL2VsZW1lbnRzLzEuMS8iIHhtbG5zOmlua3NjYXBlPSJodHRwOi8vd3d3Lmlua3NjYXBlLm9yZy9uYW1lc3BhY2VzL2lua3NjYXBlIiB4bWxuczpyZGY9Imh0dHA6Ly93d3cudzMub3JnLzE5OTkvMDIvMjItcmRmLXN5bnRheC1ucyMiIHhtbG5zOnNvZGlwb2RpPSJodHRwOi8vc29kaXBvZGkuc291cmNlZm9yZ2UubmV0L0RURC9zb2RpcG9kaS0wLmR0ZCIgeG1sbnM6c3ZnPSJodHRwOi8vd3d3LnczLm9yZy8yMDAwL3N2ZyIgeG1sbnM9Imh0dHA6Ly93d3cudzMub3JnLzIwMDAvc3ZnIiB4bWxuczp4bGluaz0iaHR0cDovL3d3dy53My5vcmcvMTk5OS94bGluayIgdmVyc2lvbj0iMS4xIiBpZD0ic3ZnMTcwNzg2IiBpbmtzY2FwZTp2ZXJzaW9uPSIwLjkyLjMgKDI0MDU1NDYsIDIwMTgtMDMtMTEpIiBzb2RpcG9kaTpkb2NuYW1lPSJkb3RuZXRfY29yZS5zdmciIHg9IjBweCIgeT0iMHB4IiB2aWV3Qm94PSIwIDAgNDggNDgiIHN0eWxlPSJlbmFibGUtYmFja2dyb3VuZDpuZXcgMCAwIDQ4IDQ4OyIgeG1sOnNwYWNlPSJwcmVzZXJ2ZSI+JiN4YTs8c29kaXBvZGk6bmFtZWR2aWV3IGJvcmRlcmNvbG9yPSIjNjY2NjY2IiBib3JkZXJvcGFjaXR5PSIxIiBmaXQtbWFyZ2luLWJvdHRvbT0iMCIgZml0LW1hcmdpbi1sZWZ0PSIwIiBmaXQtbWFyZ2luLXJpZ2h0PSIwIiBmaXQtbWFyZ2luLXRvcD0iMCIgZ3JpZHRvbGVyYW5jZT0iMTAiIGd1aWRldG9sZXJhbmNlPSIxMCIgaWQ9Im5hbWVkdmlldzE3MDc4OCIgaW5rc2NhcGU6Y3VycmVudC1sYXllcj0ic3ZnMTcwNzg2IiBpbmtzY2FwZTpjeD0iMzEuNTU0NjA5IiBpbmtzY2FwZTpjeT0iMzEuNTU0NjA2IiBpbmtzY2FwZTpwYWdlb3BhY2l0eT0iMCIgaW5rc2NhcGU6cGFnZXNoYWRvdz0iMiIgaW5rc2NhcGU6d2luZG93LWhlaWdodD0iMTAxNyIgaW5rc2NhcGU6d2luZG93LW1heGltaXplZD0iMSIgaW5rc2NhcGU6d2luZG93LXdpZHRoPSIxOTIwIiBpbmtzY2FwZTp3aW5kb3cteD0iLTgiIGlua3NjYXBlOndpbmRvdy15PSItOCIgaW5rc2NhcGU6em9vbT0iMTIuOTYxNDQ1IiBvYmplY3R0b2xlcmFuY2U9IjEwIiBwYWdlY29sb3I9IiNmZmZmZmYiIHNob3dncmlkPSJmYWxzZSI+JiN4YTsJPC9zb2RpcG9kaTpuYW1lZHZpZXc+JiN4YTs8Y2lyY2xlIGlkPSJlbGxpcHNlMTcwNzM1IiBzdHlsZT0iZmlsbDojNUMyRDkxOyIgY3g9IjI0IiBjeT0iMjQiIHI9IjI0Ii8+JiN4YTs8cGF0aCBpZD0icGF0aDE3MDc0MCIgaW5rc2NhcGU6Y29ubmVjdG9yLWN1cnZhdHVyZT0iMCIgc3R5bGU9ImZpbGw6I0ZGRkZGRjtmaWxsLW9wYWNpdHk6MC4wOTg7IiBkPSJNNy4zNiw2Ljc1ICBDLTIuNTMsMTUuNTctMy40LDMwLjc0LDUuNDIsNDAuNjRTMjkuNDEsNTEuNCwzOS4zLDQyLjU4YzAuNjktMC42MSwxLjM0LTEuMjYsMS45NS0xLjk1TDcuMzYsNi43NXoiLz4mI3hhOzxwYXRoIGlkPSJwYXRoMTcwNzQ1IiBpbmtzY2FwZTpjb25uZWN0b3ItY3VydmF0dXJlPSIwIiBzdHlsZT0iZmlsbDojRkZGRkZGOyIgZD0iTTUuNTUsMjcuOTRjLTAuMjgsMC0wLjU2LTAuMTEtMC43NS0wLjMyICBjLTAuMi0wLjItMC4zMS0wLjQ3LTAuMzEtMC43NWMwLTAuMjgsMC4xMS0wLjU1LDAuMzEtMC43NUM1LDI1LjkxLDUuMjcsMjUuOCw1LjU1LDI1LjhjMC4yOCwwLDAuNTUsMC4xMSwwLjc1LDAuMzIgIGMwLjIsMC4yLDAuMzEsMC40NywwLjMxLDAuNzVjMCwwLjI4LTAuMTEsMC41NS0wLjMxLDAuNzVDNi4xMSwyNy44Miw1Ljg0LDI3Ljk0LDUuNTUsMjcuOTR6Ii8+JiN4YTs8cGF0aCBpZD0icGF0aDE3MDc1MCIgaW5rc2NhcGU6Y29ubmVjdG9yLWN1cnZhdHVyZT0iMCIgc3R5bGU9ImZpbGw6I0ZGRkZGRjsiIGQ9Ik0yMC40NSwyNy43NWgtMS45N2wtNy4wMi0xMC45MSAgYy0wLjE4LTAuMjctMC4zMi0wLjU1LTAuNDQtMC44NWgtMC4wNmMwLjA3LDAuNjIsMC4wOSwxLjI1LDAuMDgsMS44N3Y5Ljg5aC0xLjZWMTQuMDhoMi4wOGw2Ljg0LDEwLjcxICBjMC4yOCwwLjQ0LDAuNDcsMC43NSwwLjU1LDAuOTFoMC4wNGMtMC4wOC0wLjY3LTAuMTEtMS4zNC0wLjEtMi4wMXYtOS42MWgxLjZWMjcuNzV6Ii8+JiN4YTs8cGF0aCBpZD0icGF0aDE3MDc1NSIgaW5rc2NhcGU6Y29ubmVjdG9yLWN1cnZhdHVyZT0iMCIgc3R5bGU9ImZpbGw6I0ZGRkZGRjsiIGQ9Ik0zMS4yNywyNy43NUgyNFYxNC4wOGg2LjkzdjEuNDRoLTUuM3Y0LjU1aDQuOTQgIHYxLjQ0aC00Ljk0djQuNzRoNS42NEwzMS4yNywyNy43NXoiLz4mI3hhOzxwYXRoIGlkPSJwYXRoMTcwNzYwIiBpbmtzY2FwZTpjb25uZWN0b3ItY3VydmF0dXJlPSIwIiBzdHlsZT0iZmlsbDojRkZGRkZGOyIgZD0iTTQyLDE1LjUyaC0zLjk3djEyLjIzaC0xLjZWMTUuNTJIMzIuNXYtMS40NEg0MiAgVjE1LjUyeiIvPiYjeGE7PHBhdGggaWQ9InBhdGgxNzA3NjUiIGlua3NjYXBlOmNvbm5lY3Rvci1jdXJ2YXR1cmU9IjAiIHN0eWxlPSJmaWxsOiNGMkYyRjI7IiBkPSJNMTkuNTksMzcuMDVjLTAuNTQsMC4yNi0xLjE0LDAuMzktMS43NCwwLjM3ICBjLTAuODEsMC4wNC0xLjU5LTAuMjgtMi4xNS0wLjg2Yy0wLjU1LTAuNjItMC44NC0xLjQyLTAuODEtMi4yNWMtMC4wNC0wLjkxLDAuMjktMS43OSwwLjkxLTIuNDVjMC42MS0wLjYyLDEuNDQtMC45NiwyLjMxLTAuOTMgIGMwLjUxLTAuMDIsMS4wMiwwLjA3LDEuNSwwLjI2djAuNzVjLTAuNDYtMC4yNS0wLjk4LTAuMzgtMS41LTAuMzdjLTAuNjctMC4wMi0xLjMyLDAuMjUtMS43NywwLjc1Yy0wLjQ2LDAuNTMtMC43LDEuMjItMC42NywxLjkzICBjLTAuMDQsMC42NywwLjE5LDEuMzMsMC42MywxLjg0YzAuNDMsMC40NiwxLjAzLDAuNzEsMS42NiwwLjY4YzAuNTgsMC4wMSwxLjE0LTAuMTMsMS42NC0wLjQyTDE5LjU5LDM3LjA1eiIvPiYjeGE7PHBhdGggaWQ9InBhdGgxNzA3NzAiIGlua3NjYXBlOmNvbm5lY3Rvci1jdXJ2YXR1cmU9IjAiIHN0eWxlPSJmaWxsOiNGMkYyRjI7IiBkPSJNMjIuNjYsMzcuNDJjLTAuNjEsMC4wMi0xLjE5LTAuMjItMS42LTAuNjcgIGMtMC40MS0wLjQ2LTAuNjItMS4wNi0wLjU5LTEuNjdjLTAuMDQtMC42NSwwLjE4LTEuMjksMC42Mi0xLjc3YzAuNDQtMC40MywxLjA1LTAuNjcsMS42Ny0wLjY0YzAuNTktMC4wMywxLjE2LDAuMTksMS41NywwLjYyICBjMC40LDAuNDgsMC42LDEuMSwwLjU2LDEuNzJjMC4wMywwLjYzLTAuMTgsMS4yNS0wLjYsMS43M0MyMy44NywzNy4xOSwyMy4yNywzNy40NCwyMi42NiwzNy40MnogTTIyLjcxLDMzLjMyICBjLTAuNDItMC4wMi0wLjgyLDAuMTYtMS4wOSwwLjQ3Yy0wLjI5LDAuMzctMC40MywwLjgzLTAuNDEsMS4zYy0wLjAyLDAuNDYsMC4xMiwwLjkxLDAuNDEsMS4yNmMwLjI3LDAuMzEsMC42NywwLjQ4LDEuMDksMC40NyAgYzAuNDEsMC4wMiwwLjgtMC4xNCwxLjA3LTAuNDVjMC4yNy0wLjM3LDAuNDEtMC44MywwLjM4LTEuMjljMC4wMy0wLjQ2LTAuMTEtMC45Mi0wLjM4LTEuM0MyMy41MSwzMy40NywyMy4xMiwzMy4zLDIyLjcxLDMzLjMyeiIvPiYjeGE7PHBhdGggaWQ9InBhdGgxNzA3NzUiIGlua3NjYXBlOmNvbm5lY3Rvci1jdXJ2YXR1cmU9IjAiIHN0eWxlPSJmaWxsOiNGMkYyRjI7IiBkPSJNMjguMzksMzMuNTRjLTAuMTYtMC4xMS0wLjM1LTAuMTYtMC41NS0wLjE0ICBjLTAuMzEsMC4wMS0wLjU5LDAuMTctMC43NSwwLjQ0Yy0wLjIyLDAuMzUtMC4zMywwLjc2LTAuMywxLjE4djIuM2gtMC43NXYtNC41aDAuNzV2MC45NGMwLjA4LTAuMjksMC4yNC0wLjU1LDAuNDctMC43NSAgYzAuMi0wLjE3LDAuNDUtMC4yNywwLjcxLTAuMjdjMC4xNC0wLjAxLDAuMjgsMC4wMSwwLjQyLDAuMDZMMjguMzksMzMuNTR6Ii8+JiN4YTs8cGF0aCBpZD0icGF0aDE3MDc4MCIgaW5rc2NhcGU6Y29ubmVjdG9yLWN1cnZhdHVyZT0iMCIgc3R5bGU9ImZpbGw6I0YyRjJGMjsiIGQ9Ik0zMi43OCwzNS4yNWgtMy4xNyAgYy0wLjAyLDAuNDIsMC4xMSwwLjgzLDAuMzgsMS4xNWMwLjI4LDAuMjgsMC42NywwLjQzLDEuMDcsMC40MWMwLjUxLTAuMDEsMS0wLjE4LDEuMzktMC41djAuNjdjLTAuNDYsMC4zLTEuMDEsMC40Ni0xLjU2LDAuNDMgIGMtMC41NywwLjAzLTEuMTItMC4yLTEuNS0wLjYyYy0wLjM5LTAuNDktMC41OS0xLjEtMC41NS0xLjcyYy0wLjAzLTAuNjIsMC4xOC0xLjI0LDAuNTktMS43MWMwLjM4LTAuNDMsMC45My0wLjY4LDEuNS0wLjY2ICBjMC41Mi0wLjAzLDEuMDMsMC4xOCwxLjM3LDAuNTdjMC4zNSwwLjQ2LDAuNTIsMS4wMiwwLjQ4LDEuNTlWMzUuMjV6IE0zMi4wMywzNC42NGMwLjAyLTAuMzUtMC4wOS0wLjY5LTAuMy0wLjk3ICBjLTAuMjEtMC4yMy0wLjUxLTAuMzYtMC44Mi0wLjM0Yy0wLjMzLDAtMC42NCwwLjEzLTAuODYsMC4zN2MtMC4yNSwwLjI2LTAuNDEsMC41OS0wLjQ1LDAuOTVMMzIuMDMsMzQuNjR6Ii8+JiN4YTs8L3N2Zz4=;" vertex="1" parent="YkggqUMwKx66I1lC0KBP-46">
          <mxGeometry x="26.5" y="0.5" width="48" height="48" as="geometry" />
        </mxCell>
        <mxCell id="YkggqUMwKx66I1lC0KBP-21" value="TechNews.Core.Api" style="text;html=1;align=center;verticalAlign=middle;resizable=0;points=[];autosize=1;strokeColor=none;fillColor=none;fontSize=20;" vertex="1" parent="YkggqUMwKx66I1lC0KBP-46">
          <mxGeometry x="-16" y="110.5" width="194" height="36" as="geometry" />
        </mxCell>
        <mxCell id="YkggqUMwKx66I1lC0KBP-20" value="" style="sketch=0;html=1;dashed=0;whitespace=wrap;fillColor=#2875E2;strokeColor=#ffffff;points=[[0.005,0.63,0],[0.1,0.2,0],[0.9,0.2,0],[0.5,0,0],[0.995,0.63,0],[0.72,0.99,0],[0.5,1,0],[0.28,0.99,0]];verticalLabelPosition=bottom;align=center;verticalAlign=top;shape=mxgraph.kubernetes.icon;prIcon=api" vertex="1" parent="YkggqUMwKx66I1lC0KBP-46">
          <mxGeometry x="29.5" y="28.5" width="96" height="84" as="geometry" />
        </mxCell>
        <mxCell id="YkggqUMwKx66I1lC0KBP-48" value="" style="rounded=0;orthogonalLoop=1;jettySize=auto;html=1;strokeColor=#808080;entryX=0.005;entryY=0.63;entryDx=0;entryDy=0;entryPerimeter=0;" edge="1" parent="1" source="YkggqUMwKx66I1lC0KBP-80" target="YkggqUMwKx66I1lC0KBP-20">
          <mxGeometry relative="1" as="geometry">
            <mxPoint x="-289" y="326" as="sourcePoint" />
            <mxPoint x="-98" y="436" as="targetPoint" />
            <Array as="points" />
          </mxGeometry>
        </mxCell>
        <mxCell id="YkggqUMwKx66I1lC0KBP-51" value="" style="group" vertex="1" connectable="0" parent="1">
          <mxGeometry x="202.99999999999994" y="51" width="89.28999999999996" height="104" as="geometry" />
        </mxCell>
        <mxCell id="YkggqUMwKx66I1lC0KBP-15" value="" style="shape=image;verticalLabelPosition=bottom;labelBackgroundColor=default;verticalAlign=top;aspect=fixed;imageAspect=0;image=data:image/png,iVBORw0KGgoAAAANSUhEUgAAARIAAADtCAYAAABzhPpbAAAAAXNSR0IArs4c6QAAAARnQU1BAACxjwv8YQUAAAAJcEhZcwAADsMAAA7DAcdvqGQAAGsjSURBVHhe7X0HgCRVtfaZnGd2Z3dnc2DZJeekiOBTQQQERVGJihgwJ1Terz71mZ/hKYo+EQVFQEEQFAUVCQqCCkhmYVmWzTubd2d2J4f/fOfcU3WrprqnZ6Znpnumv+5bJ9xb1VW3zv363opF/QwqoIACChgBip0soIACChg2CkRSQAEFjBgFIimggAJGjMIxkgIi6O7tp9auPmrp4NTZS+3d/eLr6TPJZVgHyoqLqLSkiGWoV5cVUX1lCdVXFFMdp1L2FzDxUSCSSQQlA5VIK7Z20SMbOujhdW30VHMnvbijm7a19ZI0fZ7EKSAVJcQDSGyeQDbVltCiqeV06OxKOnJuJR09r4oWTikTggHxlDIJFcgm/1EgkgmMtbu66d/rO+ixjR30ZHMHbWzpoe3tvbSLU0tnn5BKkUcYIuEwPQVcEUoXOUEWFzIdEvOUlxI1VJRQQ1UxNVaV0LyGMjqEieZwTkcw2TTVcoEC8goFIpkg2Lqnl5Zv7aSnN3fSfS+20T0v7KHm1h5p9HIgjBU7IKbkESMM8QWqgysTOtIijCRVzBTpjNDHH2fwaIkd/SLhW9RYRq/cu4ZevrCa9m+qoH2mV1BDZeFwXi6jQCR5il7ea509fXTjEy102d+3cY+jkzBCAEGoVAIQwjBb5mSPKs5mGdjmCfMEsfJxBAHkRZIfVNYnsUizPLU116liwQ8bh2JgQ76MSeVjL2+k0/ark6FQYTSUWygQSR4BB0Bvf66VfvtMK/c+uuiFbV3U3tMvPY0iZgO0LSUPpChhIN90TMQHnadWDvBU1X1H1PDghZA0/hARXYw4cSgQhqEOvyvnyiAfPZa68mJaMr2MDp5VSWfsX0cnLqmhKhztLWBcUSCSHMeGlh56dEM73fxUK936TAvt7uzjf2MdpihpKBGgiUd0y8NCzCe6+kQHXB6mgY+B+X3EzAGIB5EfVaoyMcR8YrIz1M2vZUUX6cqYzhKk0sfK9JoSeushDXQ6kwoO6E6rLuGcAsYaBSLJUTy+sYM+dccm+tuLbdxw+qWZGzlYtx6EAlWS6VJGbSD0OVt0hfgidgg3O8P3xi1t7FGox48qU0VyRmCzEuYpQYR5Ws58gc0JBALI0Cfwcx3xSp95UB1965SZNKe+TMoUMDYoEEkOAWdXrnpoB/2VyeO5LV3iA2kUc/M1MjAiAIlAkZ6J54cCKUl8mgeY3y+jk0CwVK2oqJ8Wla+l4+ofoiNrnqDGkh00pbSFakraqKqoUxpve18l7emrph09DbS1exo9sucQun/3MbS+axY3cF2ONnMlAAEr0MX2yAFAJMKj0vmtjMuzA7JRotHjKCZL+KdxqvkNB9bTO46aQlOrCr2U0UaBSMYZW/b0cq9jjxwwfXBNOyHkpafBjSEgENfwgx4IfPyJ90wwMWJxX02WL7r6VDdNfSVFvbS4YjW9pO4ROmva72n/quXsj4VHYrSEy+lj/fE9B9Gvt53OxHIoreqaz409uhQLOUwt+lR35OAcRhyqx3oi+Hh+1UNCgQ1/VXkxveeYqXTOoQ10wMwKKgfLFJB1FIhknNDL1f6d+7fT1+/dSq0dvRHyAEGgkcshRCeRZ+RhupbXTFYdsaiuZZwV6DoRGZkSHVz9DH1pwddoceUqKi/S3lCATCMkUq6IOvvK6en2/emzaz9NKzsXijcsoo1dNefniZAAVNGd7XQoQY/E+SPEgVIiQ3KBD7KEK2rfpgq6/IzZdOyCKiytgCyiQCRjDFzb8cN/bKdfPb6L1uzskYYMEpEhjCME6UHAZssIwe+NhD0V5IVlfB2wfNHdJMhz0xllW+njs39Ap0y9k8qLHYEMNSJSlXf+9r4qumn7GfT9TRfT7t5aybBZRPIktLXhq85J8rR8oENyMpJAnhCHlPHIJtC1p4IyxUwoGPagh3L+4VPkMv4CRo4CkYwR1uzslms+vnT3Fur0TtkKgXCDRqOX3gZ/jFQAIRkp68rD6fkwh86nsOEKpk4N86Dpl+fvp5fXP0BfW/h5aihp0QKDIZNISVWG/c3dM+nStV+if+85TBu98ysF+LbTeSqEIDqIQDziMIJAnhEF9AihiM9IJNQlj/VpNaX0jVNm0muW1tAM1gsYPgpEMsrY3dVHH72tmW55uoX2dDGBcCu24Yv1MkSigfMkiWCCMpKn+aK7spCAlRWP04FAilJEZUU99O1Fl9JxTCTQ0yLT6EhVLubv7C+n32w7k76x8ePEAzr2cPN2ZayoSJ6g4UP38xGuIk1nBXpIICAZnzDCcigT6aG4crhU/6PHTaNPnTCNh0BWWwUMBQUiGSVgCPPNv22l6x/bRTvauMlwgFrvQokjThpO54bOQpIRjpAFpJSBFKoQHfD9YouucJ7Ah+Mfn573dXp9423si+56O9MyJKSLnqQ89vX2l9D1286h7236AHX3a09Ao1DJQDXzqRd6kOd03y+SJ0YQgS155g99QjyejrRwSjm965gp9MFjGwsXuQ0RBSLJMnZ19NKtz7TSh367kTp7KTgLI2TBEg06HMo4ouCPkknoZ8G65UPXctAxER8+TgesTKgrbL6S4l76wvwv0GlTb9eMISAjkkkVSUl+9t2w/S307eZLqLevRMnAFRTdzWNkobr6xed0wMrAtJ6I6uqP91AS/bBZ8i6jRVPL6BdvnSs3EZYVzvJkhAKRZBF/XL5bhjGrdnQpCXDzRRwGBALJH5BDifmcLb0OXkZINqEPNiRgJAOo39mujCRkOF0kK+U8hPnmokvo2LoHeBloThkgw8hISzLxZXh2X38x3dVyIn1u/Zeox5EJEEg0eEgxVMKDiBUfA40fkDznN8KALaTBekAeLk+klId0OkvcwwQbjzd41ZIa+sVb5lF94YbBQVEgkizgqU0d9N9/2UK3LdstjReNHaEnkh0BOUT8RiChP0ocMV3kwDxAdfUBYZ76cDbmU3O/Rmc0/hbOkWGQaAmjydbGIWk+NFre8pu3v5kua/4YD3PKXLEoWUAaqQCWB0+gi/RsX2dFehzOZ8QRyCQ/zweJ4yefOmE6veclU6m2vEAoqVAgkhGgo6dfbqC7+DcbqKObmwQzA3oaRgpBrwM+509JILBd45N880N6Oibq03lUN78rzxOc1pzXUErHLSqlN5Z9iqbt/h1KDQ+ZREiKMom9lXhZtjc1nE83d3+WHlzVRRtaeuUgNfwoClIIdU6iizfwo9E7M9CllyE+JQohFJcPOySTqB/X+IjOPtG54H5NFfTr8+fR4sYK6WUWEEWBSIYJ3H37jl+vp4fXdQTDFyOJuBRS4XlgQ7c8FpqPj0gtK9KVB7QM4JcTK9CBqfzvefbhdXTk/Ap5MlljVQ+VLXsX0bY7ORdNJUMMJSLSlU3IG0AsVqaohIpmnkFd+32ftrUX0+bWHnpwdSf9+rHdSioMRCqKB8QQ+KApMahPPRFd8kAQ6lcC0XwljjAfNsqjDIY6Vqa8tIjedFAdXXb67ML1JzEUiGSIaOOex08f2inXg+C2fiEIbulCGtAhOYFcfNIIJJcxsoDNXyUD/hhhBGQStz0dZRc1ltJhcyto36ZyevlelXInLOYR9HURPX8p0cbrnCMLGCxSUuUn+JMJhbdtARPf0s/zBupNd2jYm1t76e4V7fTitm56ZF0nrd/VExCDSpfYUBm1jSQsz3obyEeeHXQ1colKTrIMluzEwdj5U8ro26fNpNP2rZMrZgvgPVcgksyBxxSe96t1dNeKPVTKLTZCEE7X4Yx3kJXnk+EOZ0JXskAZJQYro3boN13i1OVhXjxceWp1MX3mpEY6cl4Fcgeiv5vomfcSbb3NOUaATKIjVZkM/RFS4byiuecR7f8tVpJb6X0rO+hb9+ygnUzkHd3a6IUa+ItGj4j2iUP0IC/ql3nZgAx6Iuz3eyIRUnF6L5f5xPHT6TOvms77pMAmBSLJEDc/3UKX/L6ZmvnfUYgBjVxkSBqSuKz2UEACzsc6C7Eh+St+SLVD0oj2RkJ9cWMZXfSSejpwdhnNrisVXyLQE3kWJHI7twT8f3pINY9h0EiILSBd+aS8uC9mB4SCYU7T64kO/B5XSvLjANCg0TN5YkMn/fjBFtkviGQs0ohDdDR+kaE/TijhwVYkRxichx6ISOezMzq+fvCsCvrlOfNoybRyLjl5USCSQdDa2Uefu3Mz/eCB7XLVYzoSCYczns7LCCUn/gixmN/TRXrll8woo0PnVNAbD66hvVlHXlqARFbwcKb5WufIIhKjxFujVFGU5I/7YrYRStGC93AlfC4lmRhAAE83d9Fvn9pDj/LQZ93OnihZeDrKRnR8WFp5k70xEkFZn0DMZ72Y75wxi95z9JRJe2VsgUjSYGdHL73yylX0THNnSCLceHDjl68LkbCO8TJ0fIxIEFZCPNAgRfBHfH4ZTHHRGMk7Yb5yaiMdvaBSfBkBw5ll7+SeyB3O4aCLHR4yiYwBZdwPJs07mC+WD0IpmnM2D3O+w4tFbQ0ORPM9K9rpy3fuoLauPmn4ABo+1JAs8HNKBhEdH5YytBEfSAVEo3qf02XI4+kgnnMPa6Ar3zRnUr5eo0AkKXDvyj30rps3yL8bSASxob0RTfGeiOlCGpxCsnAy4mOdFVZFqk30yiVV9OZDa+ngOeVDe25GXyfRcx8k2vY7jn40k1FAcQUz3DGcjmXddePxuzv/TtTyMP+u9+iBSES57YhHWTrb14tKiWaexWTybf7dzJ96hhd7Pba+k655uJX+zb0URLkSCOhBpdr4OZCE6jbMMZ8mRxxOV9vXwzy8TuN6Hurg3T2TCQUiiQEvjsL9MbhCFcGoROGRBTNCcNm7r0uKEgN8aEYm4YOmpKJlQRgvWVhB7zimng6ePYxxNhrwiv/k4cwvnMMBPzBSlE4lmvoqoqY3EzUczxuSYv362ol23Eu06UYmlr9yJbaqPxJZboXi0ZbO9vX57+Vhzn/xOgy9gT6wqoOuZUJ5lIkFbwo0MkHjh4YW4JOMEoT+PHQhHTaEMNgrPRHWo2Ti8jktmFpKV501V558n43dkA8oEIkHVMSld2yiy+7fFvQ+pDfCfu2VKAkk9Uz4K70PJQknfT3Bh3e1XPnWJlrIgTcs4GDqM+dzI/6Lc6QA/9aQgIqoPYjoYO7hlNSpL1N0NRM9ejJR5wbn8BBEmluheOT5dpKOnsmBl/PsmQ1z4nhqYxd94OYtciFhhEScHvdZ70TIA3lspOqJ2DEVkWxjiHrHOxfKu3kmAwpE4tDe3Ufn3bCe/rBst5CDEYeSRkgeIjlI5JiIy5NeCMvkYYxJLQd9r8YyuvjYOnr5XlVykdOwIAdWP0K05Tcw1DcoBtvVbl32/iY32vPYHGb3HEOe9T8iWvVltZN+Vnzu9+L5vh3JY8KdfQ7Rvl/nCh3eurV19dPfVrbT5ffvkutTsHg0Ae2RoCZD8hDJE5Qxwggke9EzsV6IkUpgswG+++JJTXTJ8dPw0xMaBSJhrNjWRWf+Yq1crYp2bYRhRKFDGBCI8/E8qqMphETh90xEwma/+WbVl9CbDq6h84+ql3+sYQMHVld8kmhzqovN3C7Fjw8FpVO4kf6Mu0ovd44RYjOT3PMf5pbHxALEIy1i88r6djp9/nv0orXhEh0DD5e64sEW+sMze2hHW19AHFi8EQYoRCRs9iNfSYQlZ2Ae6aGwbgSC8tDN5p+hj7yskb70miaqGO6fRh5g0hMJ3o378itelH8X6Ylwq1cCCYnDhi9KMKGOsBCiCXT4tf2KT3T1nX9kPb33ZXUjvy29v4fo2QuItmM4w7tuKIsbrOzBvMzaw5yRDfD6bbudh18XOtuDH3WRCOSVTJUX6FwGw5wDvs/qSBiZR2LMBF/80w66c3lbQBr4mZBMQvIQQmGH6dYL0bJKKuJjpxGJlTlhr2r6/YULJuxjCSY1kdy1YjdddNMG2rS7N7hSVU7hcqCGQxs3rAGp8DxKFkoSKCfEgeR0yXPl4N+vqZw++copwzuQGgf+2V+4hIczN8JQnwE/OhLM4x7O/EudkWUsfx/3Tm5SPR5tibbbGD8vrhfx3pjDhLoPD5+KRla3WNw/V3XQV+/aKQ+kEgLhZgF/SChOcpJhjSsjRIFy7IBux1D0mAmk2j2cTt6nhn51znyqKhvpzso9TFoi+dPzu+msa9dRD+9564GAPOzeGb8nogdcPaJwEv+F4fGRUAeV4BkW5x5RK1ejsmvkwHAGJLL5eudgZLLgTMpUzCU65G/MmA3OkWV0rCZ67JXh2RzAj7p4BAY2r3yqcqZjmLPkC1x05M9cRUv41j076TYe7uCMXXxoE9W9PJZKGtCVTIKeCZcN/f109PwquvVt86lxgr1rZ1ISyS8f30XvvnmD/FsoYTABCHm43of4WAeBeLaQCM+vPoS5k7Cdn780u66EfvyWJprJMisAiTx7PtHOu2GozwdWatjgmQ/+M1HN4c4eJWz8KdHK/1Q9vgm+najzOqYqg5rH5fQH/JCLjby+0RpWbO2m9/56i1zVjJ8KSIM/RhooJ36ZR8lDyymhBD0TyxOf5i9sLKN/vH8vaqicOGSC+J9UuOmpFvrQ75pDEgFZ+CQiOvzFQgyiw88J7VVJBDqk2tKLET/RGw+upV9eMCt7JILhzEruiRiJYCXiyZCUN1iq2ovTvqyMMhpPJiqtV91+2+DbibrbboOvoylv/h3R85/hYt5FccME70ZaOqOMbrpwJr1yaVW4j50Um1cA5cTmeTQ/jBPEjugWSygLnRPyV23vptf9bA1tb4vdC5XHmFQ9kr+u3EOnXL1G/k1kB7sdayQCO3J2xgse/gY+IxG/J4KhzKWvmkIn7ZvF6wZwYPWFjxJt+ZWuQBJS+X2kKzPtTUR7X+GMUQS25XEe3rQtE16IrJQfgYPqPJ/p8fz57+Zhzn9zkZEPcwzXPNRKP/lni7vLOOyB+D0T9DQgkRf0SmC7XkiYNF97LP2034xy+su7F02IF59Pmh7JQ+va5RQv778IieCMXEAiIAaT7DcSkYOvouOfyJecx5OFjaV03fkzs0wiPJx57gKirTdGiQC6nwyBjzcwnqSVpUggkrEAGve0U52OZOsA3SVgUJ3nMT3wObmOh0/PfIiLDPKKjSHggqPqZN/i0Q3Y19jnFgMaB/YH4+LB6UEsWWI7uLTA2Xi/86n8x4Zn3OQ7JgWRvLijS54jggNo2IE+ifg71hKbTkcF+QESSuTjTM9Zh9TSj9+cxeMhAC42e/GTPJzBKV4OMv69SKMxJJKFB3++VKkmm6d7B0HtUfqbBlkHb73jeYYBeqx8kI9hzi1EKz7HRUY+zAF4F9P8KaV01dlN9KolVZEYkdjhFPyp8IoEQ2Qng8SOeMxBPr6xg956/Tq5riWfMeGHNqt3dtMh313BO4qH6G6naq/D7WjRPT/PY2ThD11gQ7IQWVteRBceU09vP3qIl5APBlz2/sIHiLa506U+8ONJZJEpBpTlrTtqi9PHADh78+iRznDwNyf2gKMASXrg43mS8ue+g2jpVzk7ewSP4QzO6vzu6T3S8DFMwc/pcMZJtm3og+GL+YPhjRvW+EMfnBrGdSa3vX1B3l60NqF7JO09fTycWROQiBDCEEgEtuSxLSTiJF5V8O3XTx8FEuF/0eU8nNmGy94ZiKl4r0N8XjLE/UlpAMa4S10xb+C6+HbSdgLx8iZFd2UNpm+4hmhZdoc5iINPvmoKff7kRokhPyYsRhAz1kPR2GI/GxZnYcypX+KJ0/2r2ugTtzfrD+UhJiyR4KzMm69bR09v6tKdFuzEwUlEyjrJX/VzPg7ELp1eRjdfOIuOSPWYw+ECw5lVl/Jw5s8wOBpdgzLwekQaDGC+uH8w+PP1Zvje32ygZ0e4rvb7hgG62/ak8kllpb4c4EPPbhMT8or/Zj07wxwAiz5pnyq52XIWD2fl4Dz7LHaCYY4nLbYs3nwygY48LPfH/9pJX793K2v5hwlJJN3cb3zXzevpzuV4tqoRB4hAdSUO3YFJJGKSv2q7+Q6YWU7XnNtEcxqyd1ZAgAOrK3k4s+UX2iCsUSC6LAG+bT4f8fxUyUfni04ZA3Q8r9Jfj7R6jEwAP98Q+GJkAkJedwX38nBqOLu9L1ypfMPbZtG8KaVBjASxwz8OmUQqSP6ZQYlJxCbriFW8H+n253bLSYF8woQkksse2E7XPbaLd47uPCEPt/OSdmR0R6tkofO5hKeV/fCsGVSKhWYT8jyRdxLtwMurQCIsLBnitsEvm5QfR7w80p5HeTJGaH0g/F0gIx0tyqsXwPS4T6QrK7qTG6/lYc4HlbCziOryIjkIO7u+JIgdjRn+aZYIFX+YE0hW/D8yJR5NXITO+eVa+sfaNv2RPMGEI5LfPN1Cn79zsx5YxQ5zOyjenbQdawEQ/HvwrsTORD4kKujEfarp+2+cLoGTVYBEVn2KSeQPrHNX3F88dEs+Uvnj8MulK7+Lf3ssjpWgERtZGjEYBtMhk3onBr+cIEYmMsy5meiFL+p6ZBFTqorpJh7q4tm6FjsSUyxh+bFlMSdxKL0Q0y02Ve/uIbrghvW0Zmd213U0MaGIZNPuHnrfLRsJd/Iaw8vO452jOu840ZFvZXRHI08CAWV4wkLKvnppFX3ltEbxZxUI6BcudsMZtm35vm4wX9wP+Hl+sgY7WOp4lqh3D+ujjO5NPIxaF12/eO8hlW6Ik0kkLyZl+U4VyfZaHuY8x8SdZeLEHb1XvGUGHTirXGOKfRZbiCn0eoVMfD/LMBZZsiKx6hKekH/xLRvkrE8+YMIQyZY9vXTc/71Iu9r7gp1kO0aY3naYs1VHjLHk+Y1E4Nd/kCL6j72r6POvZRLRn8ge0BNZySSCnogtHNL/IbN9H+D7JQ+RFkvWQDNJ3RuJWvAmvlHG9lu4/XoHdvHbAre+hsDPMN3WFfDJxE9AXMqynWqy+QZ30Vp2/+0RS5edOZ0WTy8LYiuIMUguYz0T+OOxGbG5EPS/rmyjT+bJmZwJQySo8LXcFQwIhH2y01ixHeWTi+RxdIlkm7/qx3ycjl9cSV9/3TSqzPZ5fZDI6ku5YaGb74Yz8Z9I9ZMRPxqU1wCBpGUNChyQ5H9pEMpooeMFoo3fYMU1bFvHiJ7Q6IEkPYl4Usk4meB08KZfE634EuvZJRPcJnH9eU2030zumfCPaQyGMRbEnPjVZ6Shf3QucT7iFJ8fPLidblvm3TWdo8A65z2+9/ftdP2ju9xOccTBipAHdhx2IvJE153FX6ebL5R7TSujb54xXcglq0AQr7iIu0/XqO0vH7olHxE/GpBLvj/IT4Gksn7q3U60+XJWRgnrv8h81aa/ZbDfBgI9YbsAk0Dgs7qAriKltHKA+db+iOjZS1jx8rIAxNlPeJgzBZfUI6bgc7FlPRLEFUhCyAOSnSgj8YrEdkgsRfT2G9fTVu5x5zLynkjW7uqmr9yzJSQOTrrjXLKdxGVtx7DwyjkfJOfgfbpXciDAn1XIcOb9RLv+pMHsLz/pt4Iy1mA4mS9d+aSUCbZexb2kXzkjW+B13vht3mbvXTvxdRqge9sKWHlLQESiPCMxz5eunAH+Zu6ZLPsoLyK7PRM8h/fn58ykmgqNMYktnoAcoGvsQXfxx/NILLKhManJ4hm3dlxw47qcPl6S10TS0tFLb7hmLe3Cy7xR+Rwd4Q7RHabJ7ShOrDpdd2rg4yl6ItecO1O6qFkFAnU1Dx+238yGd6APP4zkI/C5BgUklTOkyxsK+jt5iPNJbvR4X3AWIha9r81XcGPFkCZ2RgrwbX8bAj+vQ7xMSunV01Ak1mvjL0dlmINTwr9++2yaUVsisYWftGNvFneIMvgkdtkXxqlJlNH8e19oo+8/sD1nry/JayL5Dg9pnmzuCCuftwa6XOQDH2zWg53i7SB8bAfLPKxc/sbpVJntx+Dh1OMK3MXrzs4Y4j8DW3yIFK9hxMsB5k/KA/z8oaT+PUSrLiTaxL2IkWLNx3hI82nXQGMN3WC/azA98PN8GR8Pif1GqjJJfgxzln2EleyezZleU0xfPrUxjDv2yZ8dJ/ysxWRAJuy1i9MCUpGY1jKfur2Z7l+dm9eXYNvyEv9a207fuW+bXi/iKj2yA5Cw03gvQOev7AzZKTy/7hwti/fLXHVOk/x7ZBX4l1/1If6Xv8s5GPhxJENgoyG4QI+XATLxJ+UnIe08vA7NX2Xyex1R27+dbwjY+XtulMdx78s94T5Yfmz7fPh2kj4WZLLpVj01nOWeyeFzK+irp06TF6FZHCL2Qt3FJCRilVdGfRrLQjCe/uHf6Yvbcg0lX2A4PW+wp6uPzuAhzebdvVK5/vER0Z2Nd7DaOXzYbLqdFMoK/gv4zElT6aULh/Ce3UwgwxkeKmzjrnM8wA2BnSIfgG8ofh9WJp6SEC/TvZbX/RqizmeJShvZwf/WRVWcYrcH9LYSda3mnfIgD40+ysOZ77Nvqy7DR8Rmw37HENfNjkhnJOZ5Ekqgx+CX8YFL6Fsf53Xnf/zG4zk7e/+xi3nI3MUjvSc2dLo9bb8dlwyOS5UoyToLvcdY/Zv39HD899JJS2uDormAvHyMwE8e2kEfuLVZ76PBY+2YEVQHYRR7urI5CMPXRfJy8A/wrpfU03uOdY8AzBbk7Mz53BNJ88oI8bmqT5kfQ5LPkJg30l1rC2WJJ7UXM9lWHaY6ABJpf5J/hkkTB5NT/VzcH9hu+SnzGab788R9A2TCcqFHyqVaDvtn4V3D32M1ez1ULPpzd2ynPz3XJo8PwIFTeWA0JDdBexSBPnqgX14di7xeJjg8egCPK5FHEPT1UTkPv5d9fAnNqsvyPV8jQN4RCR4EgwvP5D00jiyk58FSCSXUoyRivRDO4+VA4g7e/33DdKrO5nERDGdWX0K09QY28C+u7gCB7ao9Zb6HjHwJuzFpvqEiMTq8BaeKnrg/qVzg4+WlK296UvmU0q1j2nIpliOvungb0dIvcaBk4TUiDjiF++4btshVq/qMEiWTQBcScWQi5AE/yMPpIBKWIJn9Z5bTfRfvRTXluXF0Iu+Okfz3XVvkFRJGCpHEgWE6f1nqBiKkJE8k25zZVFdC3zxjWpZJhHsiQiIYzmSBRGDHfUDEh2W55QE2T9J8w0HisrzfTPVbcV9SucDmZcXzk/R4eSCl9NYvSQoSlgPgAPm6q7lXiUcQ8D7NEqbXlNB3+I8L77Wx43Uan2Fs6h+eJvkDRJ7pLkF/prmTrvn3Tiw2J4B1zxvc9GQL3f7s7uAAaljxqFz0UFQXn+wcV44Tf93O0/yvntZIdRVZ3Hx071ec53oiDP6NANDFRnCnaDTpbMB84nfL8ZcV5KVAvFyqlAqJZVOshyFuA0llBFgOI55ndlxaecCfBwjKJiwTgG3JXw4QzMsJz4B9GncNZ+9iMFyn9OETGlzseoTidPws4tZiNYxpV47zJY8NPHKgLUcOvGaxJY0utrb10if+0CwV7Q9VlLVd5Tq/7RwWkqys+c47oo4OmZ3FBxPJgdVPuLMzsZ5IoKcJah9JtvgwvyVG4E8Byx+sXBzx+dLNG8mPrZuPpGX4vmA5g8w/QLryAHzx+QSxMkkYsFwncQB282+Jln+e9ez1TN50SC2dsHel/IzFZkR3UmzOEZ3zrVdiZ3Bw/dSHfrtRhkPjjbwhkl9wN25ja09QqSK5po2dYeOjlY9YMF39rMq0ibuX787qwVXei2s+zUx3rer4IUOguz0dz0tnA4HtzZ+qXDxlE4MtO+LHurp68MvGbSDR9uZPgvkD6erGMCAfE295g+X7gE+GOT8mWvlNGOLOBi555VTuEYexafHLwsUs/zxPJL6Rb7GOfCmr8nfPtNKqHV1sjS/ygkieau6gz/5psyMMV7kscdAU7Cy6S8HOiOmo9JryIvrJ2U3Zfffq+q8zifxcdX+xge6CNDHPIckWHwI3YX5DKj9geSNNSUiVH/GlWPck20dgu3kN/nwDJH4LUsWQpWCQZay+nP8wmFCyBDymEfdz4fm/YYxy4h/0dYlvNtBQNdZDMoFvd1cfve3G9bLM8UReEMlX7tkqp7/sBjzr4imhoEJV16SVDBnovAzo5xxeJzswa9j9L6Lm73AM8r8WfsQQ6LHGAKSzoYuNoI4FtsHKxP1AurzhYrBlJuVFfGm2w5AyL6H+DObPVNp6JCHlPB54+Nr/wv8Q7VnhHCMHHob0ir3xNj+N0QFxC6fTJbFhurUBpIfWddCt3DMZT+Q8keApUbc+0+JO2Wriugt18aOSnc5TSEwDnfOXTC/L7vUifR16hma4JCIrpqrAnw9Iyvdtg/mT8gA/fygpCenKpPIJsE2uPvwycT0xL1aPvm4QX0J9G+C3vLTS1b0hVqaob7fe5IcHdWcBOJCKS+inVPFfJMcofkZjNtQ1aYxH4t5J6Ylz/vf+vm1cj5XkNJHgvPmbr1tL/X3KvEoYKq03oteLoGJNaqWbrjbR/3v1VNGzhg1fI2p/hn/A2UCgJwR1YjkHsREFbr508wJWJp0/yHfLHWpKXFYMSf64L2Jj2Yx4vo/EPLc+BtPj88aXH89PNQTyEc+Llenf+RDR2iudNXLgGqiPHN8wIF7D3rXqkHZtFD4a42E7eHB1O934xC631LFHThPJI+s76KlNnd6xEatoJhDOh08YXKTqUo51qWznO+/IOnnqd9aA1ypsvd4Zcbhg9YEVMvg6IHZCAwN0Q6KI20BSOVlminVJSgNg83vLSFU2E19gu+X5+SnLMgbTM5WG+MFZIFImIR9wZYp4/v41TCS97erIAk7Zv5qO24uHOPwjiFmLXYn3iK4xL8dKnE/aACf+0hfv2iLHTMYDWJ+cRD/vz6/du5V7JVZZIAmXON90/rKtErWJihcfdFbwXt4PvrxBlpk1rPsvJpPtuvcMog/SSOJ6unl8G4j7zBYfluElNBY/30+pkFTW0oDlswjyHNL5DIGN5TDieT4G5Ll5kmBl4+V8v+mGyDxOJvmS0LmRaNV3nTFyIFb/6zU4i8ORzDGrsRvGteka+056uvVKVm7vpvtfHJ+7g3OWSO59cQ/94dlWV2Famagw7Ym4yhPd5UmlhpUuPk64lwb+rKFztV505i9z2HqGDSqeH9iY31tGvGwcfpmklAoDytnvcgp8HpJs3ye6t96G+HwD4H7PkKRDJvU6gKBMinxAysTy/WU79K/7GVHXNmeNHHga/ancM5HV5wniWWI5rktS4rA8SE1F9I6b1stNrWONnCWS//vHDq0s1lWqboytlSpVzB9nB2VUP2Z+BZ28XzV7sojWv/PE21H4cUEGQQ745YFU5YC0tjd/vJzB8tKV8ZFp+UheivXIaBmD1EGinqaefRhZpMoHLC+pTDzPK4PhDfW0EO1+xnlGDiweV7wumFrKusY4fL6OqRGIJqejFHQusb29l25+agzfnuiQk0TS3t1Htz/HvRHWpRJBGCzjp33ZJX5fV3LBgSmi974sy0MaAO9mwQ9E4ILW4Ocn6hk0oEQb87kULwOYLylvOEi3vIjP1ouRVM6QmJcw36C6236D6elk3Ge/6yNSJiHfB656bXbvaM4S8FqLi1wPGqugsa66xnyom21lrK3gEolrHxv7g645SSTn37BeXhJkhKGV5CrMJf6qj6UkKac2/McsqKQDZmXxACuA97+0/s0ZDPxYqgaUEkNoOEBge/PFy8d9o4Wk34r4sI6cUpUBkvKGUiepdEPE55ZrsDxI0d26ApH5HJLynC4HXTfxnwpuj8giTtyniqbGTwdLbOtPh+3B11mivEt/X9VGD6/P3sHgTJBzRLJiWxfdsXy3qyitPKlI2F6lSp6UgS9q4wrWr502TXxZRctdHDjuGgJ/2RnrQ2wwwTwJ8wFxeyyR9NuBL8X6poWbx4c//4BlxcrH881Otw5JeRFfit8wiT+WXdl95SmepIa70vWKV43tMHmxzmVV1/YgOkvk4REbl96xSR43MFbIOSL53bJW6rXHBHB1iZSKU6mVBgsfrVDriVh6+eIqIZOso+Vepxh4R/k/k1Z3OzXj8oA3Tzzft8cLth7xdRNksL1mB7qrT/MDvm5I8gGp/IDlpVuenxf3Jc0H7HrIKdnD/jPLaP8mvBtHf1alIwzTXfsAgeifq/o0j+jR9R20akd2e0vpkFNE0s0Ectn927SSpII0CYGI7irL8lxFsojkXXhMnS4wq+Ag71qlKn7TGopBfA4D9AwalSHQExoVYDYW2c5/PbmSOlzy9Y5eTZ2sI8Hn62ZHdMyT4EfC2QjTuzkNVkciXZk4gjJu3/iIlE/Id5CDru0vOit7wEVqbzlcH6WoMT0w5i1ZW7H2orq+wgKP3Rgr5NQT0m56qoXO+eU6KufaKMUjFLlSRMLmChTJSQ+6hgdf5QIdp59+QA197uSpbolZBG4jf/ZkorbHsDfhcNLB9CRfqrJAqvJAUh6ydvC6rOchVlfO7LrMMNTVHax8VQnRnEqiSpZW1p8HeuB3FeiXS8rz802mm3f6KUSHups2s4xzfrGJVmztdk9Qiz6K0Z6oJo9k5IQnqOlT1PqCp6nVVhTTC59aSrVj8BS1nOqRXIu35XGL0Q/ajkrrwoEo3C5l25XhiellHE9vOrRG8rMP/gfsa3cNmveirQjg6wOQpmyi7sqnKoc3rq3qzD8SAfztyASDlW/nulgdO6gYn8fsuASSlp/OlzRv726nZB9vP7pO/jDxUxL7rMjwxmLfdOeXPP7oUL+IdnH93Pr02NzMlzNEAgb9x5o2qTipPK4dk1JRTgZ+nideoQumlNG+TWVYXPaB0300yM1aWBGD6LHGPiDfIdATSMe3AfRE8pBDAsS3Z6To4f2yhYk1abkRX5pKS7rmxPTBltvHvz1KOG6vyrANsC3J6epXOaBtBHlF9Junx2Z4kzNE8qN/7qAdbX1BhVhFRCqMy7GIJS2Lo9xff12jDH1GDwi4WEAO9nMZ52fIDrtBaHmOoeyiTMq2cc8EsLLxeZKWMcDn1X+6vDEELpmXm01ZR4xLrEOXXLWlTSAvaCtaysjl3hf2yJPURhs5QSQ4yPrJO5odWWjlQAJqQ0fFoIqs0rSiJPHn6PkVtKhxlHojgPyQWz5WIg7fJ3oawhkwP5eFz/y+PlExlO0brKz8eaSpb4P5/LwkXxJSLa84i4/sTMBpB9TI6z8R40G880TiHwVEaptRDW1GEywcdMUjBkYbOUEkTzR3MJlYJbFDKgrxwVUhUpPLEglAaoVR9l9wNQD8S/Y+F4OtiA/fl1H+EP/tpuBuowIiqEkTxlbfSXWdtH98RPLdvJHlMUqyfAtGDLhCGw9Aws9ZrAeJJ/BZW/HbDApIm+F09SM75Wrx0USaPTB2+Pvqdq0Q3nphW3WL1DrBRyvFdK0kcchB1tMPGq2DrA5410lpg/zeAAzwuR6GYbB5BivrA49DyIm9lgUMtq2ZAGduphnBx+o9CcPJN19SXsUMp4wezj2iLiAH7Y2oX1zwOQNS2gzKsGWfbXt65M7g0UROhCTezxH0Ptj2mdWkJM5THdXjbP7gqdxZfbVEInj55fOczsCPxyG+NP96A+YZ4j8kUM3rsX8VN6Cc2HUjRybbDCSVw1B2EdcFkJRvvkherM6BoJyXlzivg++rXuKU0cO+M8vkCX+IdftpbRdqQWi7YcXpokLn1MW9/btXjt7ZJWDcryN5bGMHHX35SirjLS7F6zZZ4voQSEms4/oR/9oR//qRitJi+slbZ8ibx0Yd264nWvNB1fm3IxIQnatzgM8hMo+r9lRlM0E+ngL2V1l0t9HmH5DvSb+CoCIABpRP8sXkcK4pEd1btvmOvJ2o4ShxjSb+8EwbffHP2+Xspl1DIm/h48Qu1e16EkgpZ3ofLZlRTo9/eG8hl9HAuP+tXfso90ZYCtvyRmI7QRjQfWZVv5aBof4imsr/0HuN5kFWH/Wv5gmvFdYhE/jlTE/yAZku0wduA8i3VBH3ZbAd/jx4AwASXvAMOCEQnVuV70tCUv5g8wjAHB5KazkmjnDG6OLweeVyZlLjnh1OSi9ETc1zurQh8/Hk2c2d9HhzB3tGB+NKJGDWf65pl8qIb7icqRG/UIxkSr5aQTphcRVVZvP1EulQNpOo5mhnxCCrkCKIB/hiATlGq59zyKiuMkAm84z0t5LKzjyT/WPThGbXldKMGn1WCVZFk66Uthkk9kgyHWWUVNCO/rR89IY340okOO2Lu32xsbrBqBp8tGJs5SwfUF0rCUe03/XSbL7sKgNM5eAx+CuVCfxymc4zETFg22MEbPpg5dIh1TLEjhF5BF5e0m8Fyy0hanqDM0YfiPfPnpR8TYkm3zadP9KmtC09sHr0HsM4rkTy7/XttM27CA1bbMOaIHE5lagU319EB84qp0YcfBxL1J3glEGAFU9EFnsjOKOX7wnVkeSPp6AcK9CRRlJ3qZC0zCRfaR1R7YHOGBsctaCC6ivd+Ri3TtYWRHd2pA2JT8s/2Tx6V+GO68HWs65bS79ftlsOqNrBVRxILbMb9VjXR/D7B1lD/R3H1NH7jhuFp6ClBUfzC28h2n23sxnYW4hskQ6mD/B55fy8oQAvjl7XRcQkPOGQLhrjefWl3Cuo0Hr080RnZ9xntuiu8iM+VdPfxOeWu/CTRHtxGmP85++30V3PtwcHW8Gr/kHXyE18fX3RA7As//XBveiQWdm/5mrceiStnX3y7BHsMuYElfyRg0f4WhK/l8zHk9G/CC0JXGXzv8sizXUrWME4xGfROALgFvpl7UTbe8Lb7CdLskcIIMHezGS61t20l1TncfhlUu4jwNtPA8pxXsVsJpKPOHtsgaf+JbYLl/BHG7QdntjQxua5/IHtPM0+xo1Ilm/tlCc5hRuq3S/RvQQgTxV8ZcI9EqJD5o7u5ckpgetJ6k9UXVZtCAQh5UeAjd3aIylAsYsJFWkAuI4yqeukMoPNN+cCbjljcLlBAl67rz5pHhNrC84MAD1IPPHb2M1PtUrvJNsYNyJ5dkuXsifr2EyVOlG/WCG5mJRURK87sEbIZNww58vMZoM8QMnWL2k9h7vueBbJREam9eKXaxlinci8scaU6e9WLyWa9z5njD1m1JXQHB7SSZvhdcZqq/Rtp8OALQkf7sz19tG6Xdm/ynXciOThde26cW6DNeG0L2B+3XjnUZ0nKIN3gIwryuZyQOElSW4NwxUdXXAvroAY7D0uQ90HQ91XuK9m/ytZjvLtGGmAVcYzd/xNlZahX203zqc2S/hc6u3F+7Sz/2c0bkRy/2p99ohsrEtAUAFB0ooAjFhqKotpNg60jTemnMlDnFNZcSuYFhl2tQcDb/uEx1DrqTqDGxltmcPdBwjCvT435mdqkoCruHH5imyKaxyYWsvRqWqhrgl4bEP2nzA/LlG5o72XntzYIXUgGwvpSAITVzcKr4wzaQo3JryZLCew8Gomk5Od4cHfhmxiTtnoLTsfgfHtjOEerxjCsYLZb+O6f6czxhdz6kuostS1G7ZNYhJIS2KrYu3ozhV74M0qxqU1/p17Izjeg43UbYRmuu/XBIR6ETXVllCFXSI93ijintH8H/G/4jHOkQFGsupT+PdmcMqV7R9P4EbNBZV6yfxoQBbLkynHcW/ki+LKBUyv4fiXA4Tacmw1TY8knqiuCvR/rGmXd2tnE+NyHcln/ryZvvXXrcH1ImW8tfpg52JpH6UlePDzwOtHcF1JMStfeE0jnXrAOB8jiaN3J9Hyl7LcpDb2WCBdFUd8WUCrezJYvmNABHIF+T7TfYkHGpd5/4PxMgB0uyYE8MsEuvdbcT9QtQ/RYXfyX25uxdv7btpKj6zt8K4hgdRrSnA2tJc3pKcXD4LGtSUs3XUkuK6ki+1lH19CewePXxg5xpxI8GOn/Ww13f38HiEM/2I0JRLVcT0JSFdJRMkEl8RD/8t758gVfjmH3u1Eq99K1PZwjDRcFUd8BQTwI1B0rqABviTpVWQ8DxDdW5YvAz1NfsMJRPtdxf9gU8SdS/jXmg764M1bowQiemiDNLpFOiJxZAKCuf7cefTGA7N3e8mYt8YupsiNLb3c5XLdMpMyDduYSYCLBGWmV5fkJokAJY3c1b6GqPIA5yggI/g7eygY7nxxJC2n9lCifa/ISRIBDp1bIb10aRwQMlWIW1Wnx9oayyc2Zvdy+bEnEqbL7W09bgMViZInUgEizUm0/6wxemTAcFE6m2jRb1nOdI4Y3HYUkA78lzqe9VS1lOigW3joNPpPPxsucIxkSrV7mrGrK20raojfJR/mw2MFsokxJ5JOJpJtbdwjEcttNpiSFUtwqj+YBFg4NceJBCidTrT4bg7Iw5yDEd2MAsYbqfZH3UuIDryVe5djfFf5MLBkWtgWpN1go/SrgO7s4Kyom25oze5FaWNOJOt2dkmvJNhIJPbr5unGqp7sH/O7fYeLsjlE835GVL7IOQrIeVQtIdrnSt5nKXqTOYZZcoVrUnthyYrq7k/afC5txYvWsogxb5WPbujApsnHYJpKTP1cL58Vn4VzHuULeZhzO/dQZjlHATmLSiaRg+7gfcZ/AHmCRlyI5xqH317UwCTajgzwYlSQTYw9kWzsDDZON1Vh1AKyUDhbVZWMhY05cEXrUCDHTJhMKgoHYMcEQfwMATWHEO1/I++rUXhn9Chi/5l4IHS4yaYHtlOCtuUS0NLRR7vt1oIsYBx6JPr+XNsg2czYVoqwAix9e2oml0PnGsoXE83lYQ5IpYDRBU7bDgXogSy9mol+gXPkDxbg4kRA2og1FAVUSaYIVMEU1YTRQbYw5kTyyDoMbRTYyJA1wwTEJYDrS3BpcF6iYh/umfy5MMzJJVQs4uHM3Sx5CJqHaKrDG/hCJLUZ6GLzRHSXCfHQuuzdczOmRLKro1fO2gC6QW6rAhmFbTQAxt2Pu3J5jbL5RPNv0R5KAeOLyqVE+1zL+2S6c+QfasqL9c8Y7ce1Fb/N+Ij0WJz89/o87ZHgZcbYBp8VTaruppbhYOZR88bpQUbZRMX+RHO4K10y1o+IzDMMdYgyFOAisyU81KzifZHHwAVpM+uSjhnq4QLXmoL2A8CCjbRqR5f4soExJZKWTjtSHG5adCND+LphcT6dsUmHykOJFt7JAd3kHAVEkbT3EzAcssHT7Q78G5PIfs6R3zjA9dJT1Zj5ISNlmGlW78jetSRjSySuRwIM2DCHqC9kU8jptXl4oDUVyvfhnsk1TCbea0AnK4bV+0iKnkFQzkPLvX/Kcq5z5D/sWhJAZbQHkgTL37S7R+7LyQbGlEjwwGdsRXxDpRsGp8uw/KCcUxpG/f2+Y4zql+rZnBy7szQnMdSAl/IcODYfHou59HqimtF/veZYYlZdwp8rb7bfdtK1rbYsnQIe46FN2COxTQltp/sOgRvT8WTM3qg3lqjiwF74Fw70/D3olzVY4/eRjX9MvCFxvz9zXU+8a3mmRS6HiPVGPANqaIbannwkkrbu2EpHti7cuCTIS8bldscJCFysNucKJpPcvUksp5GObHDj3V4/5n8hHkpOQNTgfciMpJYBXyQ3VgjmgDY5TIwpkfR7O1y6W2mA7LCIPotksHnyGjWvJpp3DW/kBDmgPFpI6rWkAt49tPTXRHUvd46Jh/KhXlfFxa0doSo78OSjLGBsiYSTv9mqD35wCMjO5uY4qo4lWvBH7pnk16XaI0LSjjXfUHe6P1/pNCaRW7lOD1bfBAWeLJhRAxJE2xr0jiy9I2nceiSpMIBWMq6kCYKqI4lm/YAjJDcfqDNqGAlpxIFrdBb+kHt5RzjHxAWaR9BEnBI2mcEbT0dPPg5tnEwaogxwxSplSMSb76g7lWju9bzBeXaD4ojBeziJGIZCMsWV3BO5hajhJOeY2EBbsnaRqn0k+a0Ndubl0CaTLkkKSIWlqqmJiGoe5sy7mfdQ7j9gZ9iwcMiUPMSXIgiQh57I4l9x3R2qvkmAshI9fjhc5OUxkpGcdenlHlhfdrY5T8B1VfMKHuYM8sLyCYMhxEZSHOBanAXf597cCWxMnn8c3dIRtKsR/Ln7GGMiccowABKZXETiUP9G7plcx7EywYY5SfsynS9dXlE50RLuvU15nXNMHuDJ8Hh6/HCRrUsqxpZI5KU+jEy225Wxoj29+nj9SYlq7pnMuWpi9kxkl8aCeSi7GXWy8KfcexvCC8omEPyeeqpqS/Ib94zkz93HmBIJLioDEjcskLFcZ2bn2HK+guut7gyimd9ktdL58hjpAsDHAB/Xg+9DT2T+ZdwTOQ2G+iYhgipxSlhFAypwAPKzR8K/5m+a6oNvrICLZVhy4qLhHKK5V3ObyeNhzoAAiAVy0k5OKkdlemB16pnOnpyQ3khSnSUi+jcNXa5DyQLGtkdiQxtGfIOSEPpVw6sIJze4/mpPJprF/8L52DNJtdOTAiCdz3oik+zAahKGc3zEnyUvhzZV8Xe1WhJEKyRqKdqzdF9AfoPrsOE8HuZ8ldtQvl9OHyOBpJ0e96E3Nu9bRI1nszGm4ZuTaHdXpqavOqdBxApWZolJxnRP1FeUDNg4f7tEj20oHOba1TEgc/JiyoVEc67UhpUPGLCjHYkk7dIBPi4LH7Z14VVMIuequwB9NEeA2BFGNsyGDPNCDY9rzAbGmEj457yNM6CrJd0tl2H5QTmn7GifIG/fzwq4LutOJ2r6Gjew7L1VflQQ7EhGJrrB94FE5nAvrOFUNsY0bHMaW5JedMX1FlQddBjOYX6RPLG7h0eKsSWSyuLIhpjuI+oLGRZyw64eNQpwKCGa+m4mky+onovwd2igux6GIZUuQFkOU5DI9HexXSARH5tbe4MqUzngvOcA+OXzt0ciCDfV3+hUuuHZzdl9X+mEwZSLiWZ/j5UcI5OknZjuuEiizjEz//tE097h7AJ8rNymbSKxqhnmh4yU4W4K7Lp8JBIcbEVXyj9qDIQb6aYJ+cC/1mTv8fkTCkVMIPVnE834L9VzAbF9qLYjkXheHEE+b8usz+mB1VzZrhwCqunJDUlPgmeS4EytxmgPxSxMZ9SW5OfpX2D/Jn2lBDYk3ER/U0P4hIKyeHYCLgkuIAFoaNM+yt3/z8JQ33ghvovETiCRVLqAy8/+PA/bPqx6AQPQye0BL+SXduTqL/4nbEgqc+js7F1CMOZEcuicSt0ebJdLzgwSEJcAdDyJvoA0aPwgN74vOWOM4e9AILCHQCKmz+ZtmP5eZxSQhO1t4fERwPS4z/f77e3oeVVqZAFjTiSHgwV5K2zjoMnGWTJhBVj6dnNL4cxNWuDakqkXE9W80jnGCbb/hkwiXL7pk9zv/oBuSwEpsXanO/nA9eb3OACokgKFkytg/rwmksOYSHRzFKa7DlrAmOpx+Twx9/IthQOugwINsOnLrIzR7g12lEOgD4dELiWa9WlxFZAej2/okmqzajTdbFOCtqVmgKPn5vHQZq/GcnkQi20cEJW6yfGNBkAym3cXeiQZoeJAoqpRviNWd1WIwAaBcErKNyTpTZcQzfyYMwoYDNtwDYmrO7861dAWFvEzYMNbyf81s+uz1+MbcyKpKC0KL0yzxH4kTEM99Ft1YJp4AU4BycA7c0YDtmN8BHZCLwTw7SR9+vu5J/IZnj3HL67LIWzlthCvSrOtXWEatDFIl6ZXZ/eK6LEnkpIiaqy2S+UdRfCW+RsJp/qDiZvy0KZwLUnmKJ3plCwAO8CSj8DneiFAUhlDkt74dqI5X3FGAZli9Q49RoJqlHYDTb8K6M7GY07Vr9PZiS8fHz7GnEjKeVwzjdlQNk5dyZIn2HSrCJ0QPb+la3I+KW04QD0Np65sPj/5GOD3CMQvm2QbAp3nneCvjBgN4DKIdTt7tIpdXWpbUUP8Lvkw39yG7B7IHnMiwfGRpdPLeGN0k40p/QrwJaD5WgbPqjUmLiBDhBWYWUqFSL71QDglzTeYLXAEVMCQ8eymbvcsEq1Yv3rFrapgQFtjuX9TdoeQY04kwEvnV+v2c5INhgySUYrmiQ6/TgS3P7NHlQJGH7YTXN2HBMKI+B3ivpR2CgIqICNc90irSK1Cf2oTFmhLrAdJnPq0wcPnZPd5NuNDJAuq3EbLpjldbZFCJqxptgmXR3T/yo7C8CYjeI11WMlIw0t+vo9UPh+B7ZZj2Hw5UccyZxQwGDCseWRdZ6QKA50VaT3Shpyu7oh9+JzsXUMCjAuRHDizguoq9E5gZUpo/saaXxMQ6v20p7uP2rL0FvWJD58IMkGK8v7O8JHkj/sidsJ6dK4mevFCoq61zlFAOuxo65NL41GpQdXyxPRI4onqqkDHgdYFU/L8GAmAG4Vegl6JbBh/IHkCKRsLafDKOJO2c0Vu41TAIEBl+SlCEilSfB5LPgbz+wjs2PINpnc+zwP/45lM1jlHAamAY4R4Mpq0G7ZNYhJIS2KrYu3oxCW18GYV40IkwLELqmV4gg21BMjGirSkGw9Yd62rp59edLdPFzAERCt2YGpncsbdpM2c4m9g88vFkeSP+FIQSNzubSF64c1MKivUV0AiEPsRkoCQ5E9VC3VNaHOv3Luatexi3IjkkFm4VJ4/vGFWKSAK7WeYXytCPZowgfzlo7thFZAt7OolWtZGtIlJZCOnZ1gHsQQVn4CkvIjP64X4SGe3P8dk8jai7k3OUUAcv3lyT1BlkKLzRHST8oFtUlMxt/h9pusd+NnEuBHJ0unlXo+EP07HRHWx1IaAU03Je3x9J+3ucmUKSA2tsMETCMQHxuBrO53hwZ/HR8SXYhgDpLNN72AyeebYwjAnARjW42FG1mYAJQu14ZK2gm+QDxMfIrzIYX6WryEBxo1IFjeWU2UZHnKkGyhSNlhPT4nPkqsRqxD3pX+sahd/AVlA0sFr3I6Ap5Sjsi35GOAfhEB8X5ItwDIYPbu4Z3I+D3NeVLsAwZ+fa9Oq4omQg6u3eFUGbQjleKJ6P82sK5WUbYwbkVSWFtE5hzaEGwvJH3lPB76WxO8l8/EEdz8WMAiCissgJSHpPPuA8o5AgKTlxH0p7RgJtT1JtOI8JpWtzlHAExu4l8j1Y9UUT9LLDxKIxkhEyeWio6ZKryTbGDciAT5+/DQ3vNGNtf/EPueRD2qAIRUjmkqkB1YVHr04JrAKtxQQh0uRPId0Ph9ie8vxARvHTJ46gXtMG9Q3yWHXj0jiibYRp/Mk+tE2JWX5g1r+0MsaeZp9jCuRLJ5aTrPqSoJKwBZHGVVcTvKHldDfT+t29NCL2wtnb1JCKi/DlBFcgwdSzTtkn7c8g18eEgdeV76H9cl9a8STG7toZ5v7m3X1Y21BdLP9JD4tv++Mcu8B7NnFuBIJXuG5ZFq5biwnDGv0o5VgPRTLB1TXioH+nXt4LF1ACngNf9iwZXCyHYGUhCR/3BeZ362bXyaV3vIg0bbfOGPyAfH+uT9u0+rjSdBOguTbpvNH2pT6D8niM1rjGFciwQOsX74I15Pg2IirBEjYsMSvFSGmiLBikJZv6yo8xzUdUEk+GaRMHvwK9lMcqfKTfEBgu9+MlxlMxzBnkgIP9NrcaoN+qzqtGG0zSOyRNmM6ymgvv5eN/1ic/etHDONKJMC5h7kDrvh4Gw5dxneia5UJqUBx+fCjq/d84fGLKYDKcmIoKRUyKZfkj5RPIBDAt5N03PdTO0oPasoD/Htdp9xjo3HPDifl5ISamuf0+B9zKff+T9u3jj2jg3Enkv1mVNBR8/zL5WXzXSU4GXhMVw0Slzvc9Hjh4rRRg1W4VnoyUpUJfK4HYiTiIz6f6YEf83CqOZxo6ilwTDqgGm56fE9IDvIx3dmureifrXhUh2T/afvV0qxROO1rGHciAc4/vMFVgFaM9kjUDvwuT3VUj7P5c/eKdtrUWngEYyLCikqfhoJ080b8RiCMeNl0diAd8ZROIVpyhfomIV7Y2k1PNeNsjcY9YIQBWNuADwp0UTmhLcFz0ZFToYwacoJIXob7blhK4q2XIY2zpVLkoxVjupENDIjfPFHolQwAKmqk8JcBPd0yI3kpCARIZ4vuEVDVPkSHPEBUuVjtSYhrH26VGEfdIOaVHLSqXBMIZNiGtKXAV11eTAfPyv5l8T5ygkgO4o3EO0itF4JJtFfiiEOzRAKQRjYPJV3OXYCrtFgaKlLN5y9T8o0AOAU+D3Gfbwe6N2/5HKIDfk9U1oSMSQnEPU77ojrCP1aXeKLEgWRtxdqQ+tGGlk6voHmjcFm8j5wgktLiIvraKTO1QrgGpHJYoj7U1poRYoHG0ipMEn+ebu6ip3GzWQGDQ6szmgZD4jwecfgEIHke4j7fjuhuGQDIY//bODhG5wKqfMFfediOF2EhxoN454nEPwqIjLcZTbBwDPEbrx19Is4JIgHec/RUmlaDXolVFlcGT5RVoVvlxBN/kMfp07dvp2554EsBgmxUhVZyDEYeDollGEl+3w50EIi3vKoDeTjzIA9nFjrH5ASeOfLZO7ZrNfJEYh265KotbQJ5QVvRUtZu9p1RRq9YXKMzjCJyhkiKOI7kGSWsa2/DqxiWYQ9E/YBWGkunb97dQ8s2FU4Fh0ADZZFJSgQad0IabN64P142orvlic6pjIczB/JwprRBfZMYD67qcKd8o3EOaUQBGW8bvv7afbP/EKMk5AyRAO88eopWiny4Mpy0LptVIqDlwkqD3sMsdHPhoGsMMRLINFkDT0pxpMpPadvy8VsM85fwP+cBPJwpGb3rHfIJuKxBiIF1IwvtgbjY93T5AxYfE4hMeVjD6e1HjO7ZGkNOEckp+9bR4mn6nBJUXMi20FFBqDhUmFYedK04SMUfn20rXKDmQypqGCkTpCob90dsR1AGX9/rfyf9cMbw0JpOuUEPsOoTemDFdPsztTai7YTzOEG+au8aOmjm6J6tMeQUkeD/6RNyR3BYIVYparvKM7+rWNSmn/fzh/RR/QVkEa6eI8lH3B+3/V4O4OdBFlUTTX+T2pMciPWf/rNFY1xiOox51kLd5YftI/Th87lXz3BLHH3kFJEAJy2tlZv5pIK4MqyiUDFSYVxGKlY+8Dufl+5b2U478JjAyQ6/UgZLqZAq35/X8uO2P4Tx8yw/ondpKkAuQHtyY2cQ13GpbUHbBwtpD0FbEUnUVFs6Zr0RIOeIZOGUMnrDgXVKHkjs094GKhIVh8pi3eUL+7p8s3G0+0M3b6HeApdkD1y3keRjgC/W+wCS5jFA7+shWvc9Z0xe4DUTH7llK0uuCYltSNPVlljnsqprexCdpbQTNj7ysmnUUFmCRY4Jco5IgJ+8aU7wGEarKCUMqyitSPGxlCTl1IZ/BbP6Y3ia1GRHUEGDpFSI5/vzBHl+z8MjkEgZJ5Nsw9r/JdrzlDMmJ+5a3k7b2nolnlE1/p+n2E43wrC2YeWQZteX0kePn8Y5Y4ecJJLK0mJ6zdIawt0zQhqoING5wlxliWQfi4huZXE5yeX37ZL5JzWkYlwaLiLLYKJIRRxApKyTvg0MyHfL6esmevpsop33ad4kA846XvWvFolZqRbEsqdH/Wpre9B2goQzNWcf2jAqj1NMh5wkEuBdx0yVSgoYlxOIJaxAV6HygY5K1vKmP72pi255ovCe4ABSUSlSKqCBR8gDPmTEkORPsn1fsGzoKqhrM9FzFxO1L3eOyQFs/mV/2ykvv5I4ZofEstO1erQdWPwHOkpB5xLFRUV0weFTpPRYImeJ5KQltdwrqdXKYlvIwenwhbrmoTJ9HRLp5w8rw09KYLvt337QZOXTJEOqvMF8BvtN0V0CTO/aQvTvk4h2Py7uyYCd7X10+zNtQdyCQCSW47okxLprF/yBX1M/vf+lU+WVuGONnCUSPD3tv149nUp4Da2SkPCkJyMQJRSWUp0MnkQrvZ+aW3rp63ft1PzJiGxsOJbhJ0MmfoNPWmK7ZIjrvW1ET11AtOuf6pvAQLx++c87qLWTI5kNjV0X19C5jP5RIvY139qDtgGVUyqL6RMnTNeFjjFylkiAo+ZWye3PfVxzVrlIqDSMBUU36XQpx/Oyl231/fap3fTkZH51hVZI+pQK8bx08yT5ffIA4mV8O57XuZHomXfyMGeVc0xM/OX5drr/xXaNX7YtdiXeoUOKrnFuf6ZB3Dvf6QfUyQvCxwM5TSR42fhvzl9ApSWoNFQoKlAlbKlQrkWtaJOo2FBXm+gb90zCXgk2OFXyEbd9pJov7rc80VP0PiJlXAIS89z8nZuJHjmRhzlPSvZEA+Lz+/ftHBCviGdfh+zlicQ+f6wtWLuYWl1C333dLLfUsUdOEwkwp76Uzjq4nvAiAlSmVmyo6zAHlcp+6FLNgKtoaJy/fEsX/fxfhSteA0jFuDQY/LLxeSJ+EEeG5AEk5QtAIk4Fulu4Z/IBbkkT68A54verd+2g5tbY6V75hLrFuB/3puPsJE5CfOjYRqopH7/mnPNEAlz6iulUymuKikWFSk9EKlalVLiz+au+oLLZx8uAft2/W2krXkM5WSAbPoSUKaS86zHYGR1r/EnLSrJ9X6C7ZZrtl9v9LFHzTc6YGFi+uZv+uAwHWDVGNaZ5kznFdUlcyvSwN95P1WVF9D4mkvFEXhDJ/k0V9MWTmuRK1Qgbcx6k6C5hl1i+r6PCcWT8Xb/aTJ097JgswKZaygR+eUnWuL0kxIG8WDIk+VPabnmybGQ4JOkdE+dte7s6+uijt26hDo5Fi2GJVd5YX0dMK4lofCuRaHn4gF+dM48aq8buKtYk5AWRAG87ooFm1JS4SkVlcuLa9CU+VsFxnVWZbuBu5I8e4K7ypIE1fGusKRKASorD92klhsmQid8QsfHbLFLlR/I4VBtf4fT8xzfu3knb7a15bEtMs+Qwjuja62YfTwI9iPV+OmxOxZg8uGgw5A2RzKgppS++pkkqWIc2Vsmc2BfoXuWziFS++a7nIc7Dk+IZr15DHSylQ1KZdPPG/ZGyIC1HXkllDHF91luJpr5M7TwGNgUXSf7lOR7SsG6xibjUGPV1llxKdCmruva+ecJV+J3XzZIX8o838oZIgIuOmkKv3Lua2VkrFUMb6+5J5Tp/sANsJ3DiryMVzf/s7dukezmhIRvt9OEC8yclQ6q8iB0jj8QyTial6a8l2ufLrOQ/Vm/voe/+bWdADIhJ7KZAh5+nFqthTLthDudLHit4ENhLF4ze2/OGgrwiEuC/T2yiEh4OWuVGEu8AkyxYdxXPSYkl3BHoVn781q20uxOeCQ5UQCYpCUn+dPNE/EYgLOJlfTue7+tNZxAdcjVRaf4/NW3Lnl76+G+3yt3pShQaj35sis/5peeNPLbtBAMS9PrKYvrk8eNz8VkS8o5IXjK/ir5ycpOys1Rs2CvRSmadndCF4V0epCbO4+VgBz3V3EXXTPSHIPE2JyZD3E6CP59fNu6XYy3W80ggEL8skCofAvODRA7+CS9yfA8kZgPYrMv+upPW7+oJyIGjUqToLkYtbjWG1dak5aADt124gBZOHd1XTAwFeUckwLuPnkr7zChPIBC1gyEPy4D5g7KhBLNf+0gr/WYy3tjH2y8pHaxMYoqTBpLLM0TKw+FkGhsEglQ09zyiAy5T5wTAD+7bRXcub5eYkxjkDYYMCcTFJZdF7OLKbbHZEe2NEJ2yX6285jaXkJdEggtvrj5rjpw/1x3iUlD5oQSpcN1rnui645Cw87rZ+YP7d9GyTRP0Enps/HCTwBFGPEXKeBgwv0PcF7ONQICiOecQ7f+/+jDoCYC/vtBOv3xUH+SMFMQfVwBiMpScgthFWfhhhzre3/ujN8we88cEDIa8JBIAjHzJCdPkcf1W0WDuSC+FK157JEYerizPbz7snJbOPnrHLzfT9rYJdrGa9BK8lEQIkZQArqPEZBiKP24zfAIBiuZdyD2R7zor/4EHkX/qtm3y5LMg5niCWDUdMRkMZ7hy1KexbL0R6Ij1/z1tpjxGMdeQt0QC4HFyRzKhBN1Fx+I6tGEf2z6xSBmn44OdxmqQ95Fbtsn9DBMW2LRUKR2SylsyZOJ3MPIICMTlF1UvIVryX+qbAMBB1U/+blsYY+wTouCETZY4ZMX+7ODHWZrIH6LENCeenHf4FDp9/9w86JzXRFJbUUw3njtPbp8W4sBOksqHtB2iuvg5sep07EDV4UPv5bnNXfS+m7ZSGwfAhAE2JZOUCqny0s2fwh/vfUTLsP+QnxKVjs0LnUYbO9r66OxrmmlDS4/2jNnn944lBtkHacQR/umZRBnN37epnK5842x5MHouIq+JBJjfUEafO3GG2xlGHF7ivSJ+Lms7iIVXxvkgOeex9Z10yW/1XyTvgW0Y6XbYMuLJkCbP73kEBJJQTvSSev5n2E/tPAdi7uJfb6aNLb1hbPEERAFdYxS6iz/MA50NjUlNFs89nK584xx5R3auIu+JBHjfSxrlOZV6m7Uyu91yHR795iQ6dprtPN2B/NUyTj6ytiN45+qEADZksJQOSeUtOcRJI5E4vPIDfD0t+pjFPAdiCL3aVdt7NKbEp7FlxMGCN1uJRYcz8CtpiGRbeydKOl96TRMdMz+3ztLEMSGIBO8N/sYpM2l2fVnI6uyXncGKEEuwg1y+24m2s/grfhYy753PtdGlt22TcW5eA6s/0pQGEdLwkWreuN9s7IAnP8qVn79vSdzV3kcXXLeJHuVercQW+4JYMxn41ReSiPqUXMK8Y+ZVybHAXMeEIBIAp8Xue+8iqq4oCkhDd56/o0w3P2KYJc+PHcwuybOxLE7b4VJ6ducnRrziA3sZ8RQAv+UnQ5I/hd2/5R6idb9UX54BcfOhW7bKWRqLrXiMiXT+MAYHxqb94S2eVkZ3vXsRVZXl7pDGMGGIBJjXUEbfPHVmsJNkp7gdYztMdew4b0e7vAiZ8PJQ9r6VHfTp3+fvMZOkxp+UFJB+igF1kCoZMvEbxPZ+D/X+zP8jevFHyM0bdPX003tu2ELPburSmGJfEFv8QWwFx0M8qYTh68jTVFZC9KMzZ1N5jh5cjWNCEQmq/KKjptL7XtooB6iCncM70z/oGu40b4ebLbs+JBMExV3Pt9P7b95Ce7rgyTNglS0NB4PN7+fHyyT5Iz7XSPwy/b3U/9yXiTbcJHquA9cevfFnzfTkRiYR3ghshsQUy1QkInHIBcLLFBCXGpOITXwuf/1sOmGv/Lkgb0IRieFrr22iA2dVyk7EzhPi4J0jO5J1IxbJ4/K2g33JQnasDXP+vbaT3n/TZrmwKG+BVU+V0iGpvCVDRnmu5yG9DyTnN5jd10P9j32Yhzk3iDtXgRs+cSHj5lY9O4PYEWJgab1cIxEhCctnh8QjS8wX0bnMu4+ZSuce1uB+JT8wIYmkuqyY7r94ER02tyLYeXqhj+m688KdmoJMXHn8u0Au29RNb79+s9x4lRfwG2smKRMkzYdkSMyLEYf4nEzpY7p/8lKiVVc5R27h3+s66exfbApO8SJGLHbwNyTS2dHY0tiTuIPOfv8itDMPqqPvnTE7p0/1JmFCEgmA+3FuvWABzaotkR0kO1B2nkcmsvPcTuV5/B0u8yAknC1kwjbeFH8Wd2Xz5sFIvP5DBuZJlZIwIB+NwCUjkDjivsj8DOh93dT/9OeJmv/Idm4Mc7Badyxr497pFumJCCmwz2IHJGLxFsSSy7d4C2MPJIJyWvbwORX0szfPxc/kHSYskQB4x8ctb1sQ7ETdYboDRQY7lP3QeR7bqdY1RR5/xQ8JG+9oveS3W/PnEQS83oMmwNfj8MsGyRFFhDSQvDIG32f+QW1eFoY5D7+bhznj/+BnxAUekfjlO3cMiA3kWWzFhzNh74NToNt8esHZDP7Du4X/+HLhaWfDwYQmEuDwOZV0z3sW0dRqvYze/gFsRw4gk2AHRwMCEn4W0lPBZfT/98Auuuxvu3L3ICxWK9OUCkE+AtylJMKQMh5S5cV9cRuw5Rv6+H//Ke6ZtK12jrEH3j7wxT9tp988sTu4Ac96IkkxY7bmu8SOiJ8V+PeZXk5/f99ecglDvmLCEwlw3MJq+sHr9T4F26G6c6M7FEl3vPdvwhFuOx5SyrgxbTc78PzXT962NYcf24gGmUlKgSTSSIKfHy+T5E8s537L4Jfp3kX9G37vjLHFlt29MpS549k2FxceGXAKyINXNhI7Ll8SF4jEFtuQDVXFdNP58+VWj3zGpCAS4MwD6+mX58yTNuPvyGCHm+0kC/GL5ABR3YLGurS6rIfXdMoVjbgYKefA65hxGgxJ81gyZJonMJLyCCRexrdR6WMMXJR4zi82ySXvFhe678M4UL/mmd+PJT/WfBskci/3ltEjyXdMGiIBTtuvVm5+qi4PhzmQeM1NYHPEhjveCxCeX32qW8BIHkscvT+fyQQPScqpU8RYFUvDQSbzpyuTlBeQh7OBeBnAt0trqWj2Kc4YfbRwD/OLf95OeJYIepv+vkaSg6xsIyawmuEwR2NkYCxFSWQu90D+eNFC2m9GhfxevmNSEQlw/uENdNnpM6mYt9x2rAaAt6MlADR44LPgkYAx2wWSlAn8RD9/uFX+wdAdHn+4f3kDNiBVSoWksvFkSJXn9zqQDPFyQNwnehEVHfBZotq91TeK4N1Iy7lneebVzfT7p9vCfewkbMQHymkcWH4YK4idOImoX+3KsiK65YL5dNjsSv3RCYBJRyTA+YdPoZvOm0+l/jET2cn+vwbrgR9Sbf66wIlK1VWu2dFDZ1+ziX76z5agPYwLeF20IWaQZJgR8yF57V6QVMaSwCOMdMQRlGfEfb5dXEZFR3yHaNF5yBlVYN9+/a4d9M5fbZYeiR7z0H1qxz90X2ucSCzwBLEh+190LRfEjenOxgHVf7x/MR08a2L0RAyTkkiAU/atpV+fN0/e3mfBYjvbTtfFhzwaRC6AnLRjJr4PEo9vvOLBFnrH9ZvpqY3j+DxYXp+MUJIQCvAVccIyLCXCJw7n8pFq3iS/bxeXc0/kM0QL3sI/MXpnNHh3ybGQ1125kW55ao97jebAfZrkk/jglbbYsZgJTvmyRDmc4t2vqZzufs8i2ndG/h8TiaOIGwJv+uTFP9a006uuXCWBUVJUJA/VLSkuYoZlHdL5VMJWHYnVwFZd82GJ9PRzj6ij9x9XP7ZPuFpzLfU/8QlnDIKOLira6T1Nn1e+f1odUalrwJlGSbpySXkpfbwHjvg20cKzxTVawPGsz/xhG/1tZYfEAJoDfh46eiFoHUIc7NM/DfhNV1uIg5P1WII/Hkjnb6wupkc/vDfNzMHnrWYDk55IgKc2ddIZP18jj8XzSUOJgxP/KZeAEJgRjGyKTBpp8HKEUFCedRZqi1/LzZtSSu84pp5ed2C1+EcdG3+vF3Nlip5eou4eXXncfoo3kSUhk4hJVSbJH/hcraAncvg3iea/kV2j804bEMBVPPS88fHdtLNNhzFoCVgVkAF0O/4RIRfWzS+kAZ8jDMtX8gjzj9+rWl70Pa06/9/PkwoFInHYvLuHzrpuHf2TeyggCPRGjEiMXFQHoYTEYiQBiV4MZwc+0QPJPlagHz2/gt790gY6ZE65lB01tC6n/ntH8OLtoUZGuvJJeYHPq4QiJpGDP0u097ucI7vAk9gfXNUpZ9dWbu9W8kCj5zzoQS/EJE+wmkISrInkieg8kxGGkUZAIFwG9jmH1dOVb5pDZaO6o8cfBSLx0M17/sSfrqIHV7dTKbd4IQ4OAJCADXMQD0FPBflsQ/JXSAP5IBFIJFi+D+VMP3xuBX3zjGlUV4FfGB30330C0e7nnTVCZBopqcoFfqmYEOYv4ho8+nKieW9wjuyiuaVXHgchb7vj3wRFIPpNj/t8UpE8EITkGXGo34gDZOQfE/n0K2fQF06coT8+wVEgkhhwoO1r926l/7l3izT4Ab0SZgB0UCM6y4BE4GcfCymDJmNSfFgqyjk/XvJ17KJKuugl9bR0xihc3bjnReq/50SO8DbnyBIyiZqgDLbWQ9K8xZVUdMS3eDjDJIIDvFnEA6s66IZHd8uNlvizQEPHKiDyQ7JQooBf8p1PdSUJGcJwCfREhDxQBnmeDnKpLi+i754+i847bIrExGRAgUhS4PrHdtHH/9BMu3j8bEOYpJ5IXEc5IRRHGPCxiPrYlmGOk0Y8r15aRWcdWksHzS7P7pOxll9G/c9+k1vKMK9tGUqEBGUT1j9pOfAVV1DRIZ/n4cyF6ssC2rr65dmpV/+rRR46hCj3ycLIAX54pMfBthJH6NOkBGG6TxzxPDwe8edvnptzr9QcbRSIJA227Omhl/3fi7RmR3d4zIQbiBwj8XQhENZxtlSJQ8nFyELIBRqkCP44HyR/ZT6glJfRUFlCXz2tkY6Yl61rDXgXL/8B9T/zFWePAAOiRdd7ANJFlZ9XVEJFL/kR0dxTYahvBECD/uOyNvrmPTvkwd1o8Oo3AmGdNciAQHwdH5aYT328DPRAnC69EdaFPDwdQ5qTcUnBufOpIk/v4B0JCkQyCLa19dJn/rSZrnp4h5CH9kq04SPFeybSw/B1XgZs/ipheOShZUNdpOms7MNDnWMWVNJbD6ulmXUjPOLf10W04gomk//hFpKqZ4JfHwIyiZxUZeAvwXDma0QLzuKfHv72YVErt3bTDY/tpn+t6ZSzb4hqhDbyJDldicPT5RP6rdcS74GY7vdE4JNyPM83TmmSR3zmyzNWs40CkWQAVNAV/9xOn79zi9x3kY5MQr+ShuksBvRAIAMCkfyoDQ065j95v2p6/UE1tE9TGdWWo+Qw8fRXqP/5/+ONQvgPAUOJklRlfT+uWD30CzyceYdzDA1YFF7/8ExzF/3ikVZ5YhkiGX4hB9NdQx9oK4HAHxwnkeRIgvOMLMwXHc6ovrixjH7x1rl05NzJNZSJo0AkGQKVhCHOyVevppXbuuRReDgFbL0KEENKQnE+VsUWghCpeZBqh37ThTJcHoY9OMODYygfe8UUmj9lGBc3oTfCRNL/FPcEZKuGgUxmS1UGfhnO4OzM6awPnRRxpfC37t1J63f2UGtnnzRqoQX+hqQREoXoQV7UD6IwcsHwRMspUYifU0ggTnI+TiOfcUAdXXXWXKofxbNu+YICkQwReMDNF+7ioc5DOyWwfPJA51yIRUjG6ZyPHgx/tZzzs6kkIiQBwgj1aK/Es2P6vKmlck3KoXMr6Pi9qqi2At4MgGHOc9+j/mcvY30ENxcOFjlJ+bjY7LAvEi0+jzdi8OEMFrGDh5d/Wd5Oz27upvtXtktPBH4jCNU5saEyagtZyEfzQAaWL+TAVkASLOE38hBdloE89YPMP3/idHrX0Y15+0SzbKNAJMPE75a10iV/aJYb9NL3RLTxywVsTrc8FurDR6T6ASMc0V2elHS6Sl2G+Y6cX0lnHVpDC5lgmmpL5HEJmDclnvoq9S//Ibcc/B8PgkyjJFU5+ItKmUQ+R7Q09cVmOLCJXsbm3b20fEsXXffIbnpxW7dr+LoYIQXTRUJDY1cfnNL7ENVIA7YjCrZ90oDEsQ7LtzxfIh84cl4l/fiNc+iApol1091IUSCSEQA35v3gge30pbu3yBF8/2wOGnekJyJ+09H4HaGwT3oZokeJQfyQno7JwDxkQFdfOf9LNlQWy7/l8Yur6PSDamjR1BI58xRBfw/R8h9T/5M4m5NhGGRSLCjj/R6GM8dwD2jB61nHVofA/S7PbuqmXz+2m57e1CVnW3a29wqpYFFCBfoNE4ctpPnR2J0Z6iyUUPjDupCG5Dsd+SLNr+XsQCvmE50z67k+r37zHDppae2kPaCaDgUiyQJw4x/I5C8r9oRkwRINF43cJxYjjpBQwvIBOcAvH08XOTAPUF19QJjnynECyS2ZXiYXveGO50WNZbTXNO65VPdR/Qv/SyXPZ9gzMSRGja0Bw88vLqOuA/8f7Zp/ETW3gjS6aAsPETe29oq+bqc7y8JFdTbX8EV3fnYEtsuDJ9BFeravsyKk4XxKHs7P+dIbcflSjidGLHjUxIVHNtAnTphOC6fk9+MQRxMFIskibnxiF/3nH/W9N8H9ONy2QBRo2Cr1+Engc2WEXNgvhCB+p4vkBImP04EgX3RxBWVU14SJlnQ2pCkMqB9o+D6dV3st6144DIgMb6YkJERSH2/J91o+QjfsOTuSbVFnPjR89w19YquluktsqNf8agdlWAERiO10621Y7wN+OaDKH59Y7NgIcOicCvrJm+bSQTMLw5jBUCCSLGM7d8l/9fgu+tTtm+S1Ff5B1wihsB9SSIQ/Qb7nR47mYxlaztelhOgKIxbVPb98RAl8QOgrorKiHjqfieS99T9iKxYSmUZIrFwvb/1Xdn6a7ug4hRtoiTRa9w0guvMpHThdVafH/VoSjd8s+EOfEoOQh/hCooiQiisnflceB1Zn1pbwMGYuvWxBdV68wDsXUCCSUcLqnd30P/dulUvtO7pxmb0e+ERPQwmFSYL1gGRMR7OG7Rq4SCkP2+mQovMk0NUPWFnRZRLOA6hPVBbmJSaTbnpf/RV0Qe31vB5ocoMgTeT09JfS/7VeTL/YfR43TmydQpu2KKLZIkSigYvl8pwBL/Qgz+mS3Dzi44kQA3984jB/oLNUMjGdU18fzWkoo4tfMpU+cGzjyK7VmYQoEMkoA48nOO8GfTxBF//dSW+D/UIeroErsYR2SC7q98tYvkrYTueEieqqiE9sJ0XR8qrpxGzDRxp+QG+vvY79GYZGrFg/z/mdlg8xiZzjPAopxhMrrlJJQjVP8gSEEOqWtLzoIAORjhhMZ82IBL6gB8KTOLHAV1teRBccMYW+cerMCX+7/2ihQCRjAATtk80d9OW7t9DvnmkVIvCHPEIGLE33SUbKiAx1GIHPzYuyAMqIFF3UMA+afp0dwsoC5TzMAZF8sP7HXCbD8HDFMJz5+q5L6Oa207lXEl4n4keZqSJ5os3dt53OU8ynOktWQBL4GiEgT2TMJ6QhRY1UQt0IBWdfPn78NLroqCm0oHAgdUQoEMkYAkH8txf30E8e2kG3P7eb9nT2B6QRJw807OBArOeDHvRUxA79vg7IPKYjmcFQVcv7MBPHTD5W/0M6v/ZGXgc0uxgSogbHQX7Y+k66svVt3FB1aBAvptGmjV01nfi2haTqkFo+0CE5yVkY8/MEetjrUJ+Ri08g8xtK6cyD6uniY6bSkmkT7/mp44ECkYwT8NyTj9y2kX71eIseQ+EWLaQB6Rq43/tAnulGEFoGM2lZ2DAsT6U4VXdK6LGpwhUVmHpJww/pojoMcxLgRQ6GM99ueT9d1Xqus0P4ERaqSgiqhX4jBOSpXxWhMpE6n+SxAoKAJUQhqpIFSCNepqGqhP77xCY5DlJAdlEgknHGul3ddM/KNvr6vVvo+a1dSijs156IIxSeoCH7BAJNyIUR5sOvee4blIUe+KDDp4rAU1V3joqiLnpP3bX0/vqreb38UHEFpAEX83Dmg3T9njOpuz98WLRfOqKLERKGWuqB7bLVhup8IAcAxOCXFT9/7dgIDCMW5J28Ty195LhpdMz8qsJ9MaOEApHkCBD4dzzXSlc/vJPuW9VGO9vRS+EdxK3dehtCCE5qD8X1RAI/J8cORjKWpzryVRNdVZUC9ZvD/KXUSx9r+DFdUPsbqi7qcF5Fa18N/aT1bB7SvJ2br84RBBQrqntT5zOPkYFYoqulhACfTyba24Aj7HE4v0jYqu/VWEYnLq2h97+0sXA5+xigQCQ5iq//dSt96a7Nci0KWoj0OjiFpAIZEoLo5scHiuguT82gjOjQInYInd/3EDWVbOPeya9o/7IVbBXRY13705VMIjv76rRAAG7aXlSZKpInSgFqWznVLUf9sKxMQChih34jFEis87yGMrr89bPptdwLKWDsUCCSHAbuQXliYwf97cU2uuqRHfTcZgx94kMZJQ2xfd3ysCDzia4+0SFNYU/gCyYKT02LSCCxYbZKN3VOCFEdEahufv6YLtKVMd3l4dJ2PJXuPxbX0AWHT5HHGy6dVu5tUwFjhQKR5BH+tbZdLsN/aF0HPb+1k7a29Umj0V6KIwieiMTHNSj1q6G6qKJjGrUVovuOoHQUYfB4YeQausF0jTQlBdG8ctbLUF1LwbYyyLdhDe5uXjq9gl69pIbeekg9za0vnLodbxSIJA8hBxJ5tz2yvoO+fd82+t2yFuqVi92Qq8dPlFBCctEc9blvACtr8PPMiPgSEASRU/ygMorwI01UnhhhiCm287Gix0n0mMfU6hJ659FT6WPHNVIj63ZndQG5gQKRTAC0dfXRizu66YXtXfRUcwc9sLqN/sm9FzwWEhBikY/CJw6Zih0i1DXDz0sH1+5t4qYKc5vPyEJ1tZU4iBZNLaNjF1TTSxdU0b4zKmhxYznNayiVp9IVkJsoEMkEBfbqsi2d9OCaNnnMAR4ShMv1t7b1UmtnL+c7KvGIQv/h1TKfj1Q9gKQICl1RwsAEEm8EnVJVQjO4dzGrvpQOmVXJxFFNL2PymFk3Md+PO5FRIJJJAjwkCAdvu/lvv727T953/PC6dk3r22ntzh5X0pEIT3zeSMEhAfwg8gkDwKXoB8ysoCPmVMoB0aPmVtJe3MvAC9VxbwvyC8OU/EaBSAoQ4A10GAqht4Inv0nq6JUrcPGgY3m/OCQnlEXDBwngwT8ii5Uw8HjH+ooSeaIYLv7C803r2C6MSiY2CkRSQAEFjBg4c1hAAQUUMCIUiKSAAgoYIYj+PzJ2107FcJcsAAAAAElFTkSuQmCC;" vertex="1" parent="YkggqUMwKx66I1lC0KBP-51">
          <mxGeometry width="74.57" height="64.5" as="geometry" />
        </mxCell>
        <mxCell id="YkggqUMwKx66I1lC0KBP-16" value="Key Vault" style="text;html=1;align=center;verticalAlign=middle;resizable=0;points=[];autosize=1;strokeColor=none;fillColor=none;fontSize=20;" vertex="1" parent="YkggqUMwKx66I1lC0KBP-51">
          <mxGeometry x="-12.710000000000036" y="68" width="102" height="36" as="geometry" />
        </mxCell>
        <mxCell id="YkggqUMwKx66I1lC0KBP-52" value="" style="group" vertex="1" connectable="0" parent="1">
          <mxGeometry x="-71.00000000000006" y="621" width="111" height="93" as="geometry" />
        </mxCell>
        <mxCell id="YkggqUMwKx66I1lC0KBP-10" value="" style="shape=image;verticalLabelPosition=bottom;labelBackgroundColor=#ffffff;verticalAlign=top;aspect=fixed;imageAspect=0;image=data:image/svg+xml,PHN2ZyB4bWxuczpjYz0iaHR0cDovL2NyZWF0aXZlY29tbW9ucy5vcmcvbnMjIiB4bWxuczpkYz0iaHR0cDovL3B1cmwub3JnL2RjL2VsZW1lbnRzLzEuMS8iIHhtbG5zOmlua3NjYXBlPSJodHRwOi8vd3d3Lmlua3NjYXBlLm9yZy9uYW1lc3BhY2VzL2lua3NjYXBlIiB4bWxuczpyZGY9Imh0dHA6Ly93d3cudzMub3JnLzE5OTkvMDIvMjItcmRmLXN5bnRheC1ucyMiIHhtbG5zOnNvZGlwb2RpPSJodHRwOi8vc29kaXBvZGkuc291cmNlZm9yZ2UubmV0L0RURC9zb2RpcG9kaS0wLmR0ZCIgeG1sbnM6c3ZnPSJodHRwOi8vd3d3LnczLm9yZy8yMDAwL3N2ZyIgeG1sbnM9Imh0dHA6Ly93d3cudzMub3JnLzIwMDAvc3ZnIiB4bWxuczp4bGluaz0iaHR0cDovL3d3dy53My5vcmcvMTk5OS94bGluayIgdmVyc2lvbj0iMS4xIiBpZD0ic3ZnNTUzNjYiIGlua3NjYXBlOnZlcnNpb249IjAuOTIuMyAoMjQwNTU0NiwgMjAxOC0wMy0xMSkiIHNvZGlwb2RpOmRvY25hbWU9ImF6dXJlX2Jsb2Jfc3RvcmFnZS5zdmciIHg9IjBweCIgeT0iMHB4IiB2aWV3Qm94PSIwIDAgNDggNDAuOTkiIHN0eWxlPSJlbmFibGUtYmFja2dyb3VuZDpuZXcgMCAwIDQ4IDQwLjk5OyIgeG1sOnNwYWNlPSJwcmVzZXJ2ZSI+JiN4YTs8c29kaXBvZGk6bmFtZWR2aWV3IGJvcmRlcmNvbG9yPSIjNjY2NjY2IiBib3JkZXJvcGFjaXR5PSIxIiBmaXQtbWFyZ2luLWJvdHRvbT0iMCIgZml0LW1hcmdpbi1sZWZ0PSIwIiBmaXQtbWFyZ2luLXJpZ2h0PSIwIiBmaXQtbWFyZ2luLXRvcD0iMCIgZ3JpZHRvbGVyYW5jZT0iMTAiIGd1aWRldG9sZXJhbmNlPSIxMCIgaWQ9Im5hbWVkdmlldzU1MzY4IiBpbmtzY2FwZTpjdXJyZW50LWxheWVyPSJzdmc1NTM2NiIgaW5rc2NhcGU6Y3g9IjQ5LjQ2MTI0NiIgaW5rc2NhcGU6Y3k9IjIzLjk2Nzc0MiIgaW5rc2NhcGU6cGFnZW9wYWNpdHk9IjAiIGlua3NjYXBlOnBhZ2VzaGFkb3c9IjIiIGlua3NjYXBlOndpbmRvdy1oZWlnaHQ9IjEwMTciIGlua3NjYXBlOndpbmRvdy1tYXhpbWl6ZWQ9IjEiIGlua3NjYXBlOndpbmRvdy13aWR0aD0iMTkyMCIgaW5rc2NhcGU6d2luZG93LXg9Ii04IiBpbmtzY2FwZTp3aW5kb3cteT0iLTgiIGlua3NjYXBlOnpvb209IjEwLjgyMDc2NSIgb2JqZWN0dG9sZXJhbmNlPSIxMCIgcGFnZWNvbG9yPSIjZmZmZmZmIiBzaG93Z3JpZD0iZmFsc2UiPiYjeGE7CTwvc29kaXBvZGk6bmFtZWR2aWV3PiYjeGE7PGcgaWQ9Imc1NTM2NCIgdHJhbnNmb3JtPSJ0cmFuc2xhdGUoLTAuNzUsLTAuNzU0KSI+JiN4YTsJPHRpdGxlIGlkPSJ0aXRsZTU1MzI0Ij5QYWdlLTE8L3RpdGxlPiYjeGE7CTxnIGlkPSJncm91cDUyMTYtMSIgdHJhbnNmb3JtPSJ0cmFuc2xhdGUoMC43NSwtMC43NSkiPiYjeGE7CQk8dGl0bGUgaWQ9InRpdGxlNTUzMjYiPkF6dXJlIEJsb2IgU3RvcmFnZTwvdGl0bGU+JiN4YTsJCTxnIGlkPSJzaGFwZTUyMTctMiI+JiN4YTsJCQk8dGl0bGUgaWQ9InRpdGxlNTUzMjgiPlNoZWV0LjUyMTc8L3RpdGxlPiYjeGE7CQkJPHBhdGggaWQ9InBhdGg1NTMzMCIgaW5rc2NhcGU6Y29ubmVjdG9yLWN1cnZhdHVyZT0iMCIgc3R5bGU9ImZpbGw6I0EwQTFBMjsiIGQ9Ik0wLDQwLjY3YzAsMC45NiwwLjc3LDEuODIsMS43MywxLjgyaDQ0LjQ1ICAgICBjMC45NiwwLDEuODItMC43NywxLjgyLTEuODJWOC44OUgwVjQwLjY3eiIvPiYjeGE7CQk8L2c+JiN4YTsJCTxnIGlkPSJzaGFwZTUyMTgtNCIgdHJhbnNmb3JtPSJ0cmFuc2xhdGUoMCwtMzMuNjk2KSI+JiN4YTsJCQk8dGl0bGUgaWQ9InRpdGxlNTUzMzMiPlNoZWV0LjUyMTg8L3RpdGxlPiYjeGE7CQkJPHBhdGggaWQ9InBhdGg1NTMzNSIgaW5rc2NhcGU6Y29ubmVjdG9yLWN1cnZhdHVyZT0iMCIgc3R5bGU9ImZpbGw6IzdBN0E3QTsiIGQ9Ik00Ni4xOCwzNS4ySDEuNzNDMC43NywzNS4yLDAsMzYuMDYsMCwzNy4wMiAgICAgdjUuNDdoNDh2LTUuNDdDNDgsMzYuMDYsNDcuMjMsMzUuMiw0Ni4xOCwzNS4yeiIvPiYjeGE7CQk8L2c+JiN4YTsJCTxnIGlkPSJzaGFwZTUyMTktNiIgdHJhbnNmb3JtPSJ0cmFuc2xhdGUoMy41NTIsLTE3Ljg1NikiPiYjeGE7CQkJPHRpdGxlIGlkPSJ0aXRsZTU1MzM4Ij5TaGVldC41MjE5PC90aXRsZT4mI3hhOwkJCTxyZWN0IGlkPSJyZWN0NTUzNDAiIHg9IjAiIHk9IjMwLjAxIiBzdHlsZT0iZmlsbDojMDA3MkM2OyIgd2lkdGg9IjE5LjU4IiBoZWlnaHQ9IjEyLjQ4Ii8+JiN4YTsJCTwvZz4mI3hhOwkJPGcgaWQ9InNoYXBlNTIyMC04IiB0cmFuc2Zvcm09InRyYW5zbGF0ZSgzLjU1MiwtMy42NDgpIj4mI3hhOwkJCTx0aXRsZSBpZD0idGl0bGU1NTM0MyI+U2hlZXQuNTIyMDwvdGl0bGU+JiN4YTsJCQk8cmVjdCBpZD0icmVjdDU1MzQ1IiB4PSIwIiB5PSIzMC4wMSIgc3R5bGU9ImZpbGw6IzAwNzJDNjsiIHdpZHRoPSIxOS41OCIgaGVpZ2h0PSIxMi40OCIvPiYjeGE7CQk8L2c+JiN4YTsJCTxnIGlkPSJzaGFwZTUyMjEtMTAiIHRyYW5zZm9ybT0idHJhbnNsYXRlKDI0Ljg2NCwtMTcuODU2KSI+JiN4YTsJCQk8dGl0bGUgaWQ9InRpdGxlNTUzNDgiPlNoZWV0LjUyMjE8L3RpdGxlPiYjeGE7CQkJPHJlY3QgaWQ9InJlY3Q1NTM1MCIgeD0iMCIgeT0iMzAuMDEiIHN0eWxlPSJmaWxsOiNGRkZGRkY7IiB3aWR0aD0iMTkuNDkiIGhlaWdodD0iMTIuNDgiLz4mI3hhOwkJPC9nPiYjeGE7CQk8ZyBpZD0ic2hhcGU1MjIyLTEyIiB0cmFuc2Zvcm09InRyYW5zbGF0ZSgyNC44NjQsLTMuNjQ4KSI+JiN4YTsJCQk8dGl0bGUgaWQ9InRpdGxlNTUzNTMiPlNoZWV0LjUyMjI8L3RpdGxlPiYjeGE7CQkJPHJlY3QgaWQ9InJlY3Q1NTM1NSIgeD0iMCIgeT0iMzAuMDEiIHN0eWxlPSJmaWxsOiMwMDcyQzY7IiB3aWR0aD0iMTkuNDkiIGhlaWdodD0iMTIuNDgiLz4mI3hhOwkJPC9nPiYjeGE7CQk8ZyBpZD0ic2hhcGU1MjIzLTE0IiB0cmFuc2Zvcm09InRyYW5zbGF0ZSgwLC0wLjA5NikiPiYjeGE7CQkJPHRpdGxlIGlkPSJ0aXRsZTU1MzU4Ij5TaGVldC41MjIzPC90aXRsZT4mI3hhOwkJCTxwYXRoIGlkPSJwYXRoNTUzNjAiIGlua3NjYXBlOmNvbm5lY3Rvci1jdXJ2YXR1cmU9IjAiIHN0eWxlPSJmaWxsOiNGRkZGRkY7ZmlsbC1vcGFjaXR5OjAuMjsiIGQ9Ik0xLjkyLDEuNiAgICAgQzAuODYsMS42LDAsMi40NiwwLDMuNTJ2N3YzLjE3djI2Ljg4YzAsMS4wNiwwLjg2LDEuOTIsMS45MiwxLjkyaDIuMTFMNDEuODYsMS42SDEuOTJ6Ii8+JiN4YTsJCTwvZz4mI3hhOwk8L2c+JiN4YTs8L2c+JiN4YTs8L3N2Zz4=;" vertex="1" parent="YkggqUMwKx66I1lC0KBP-52">
          <mxGeometry x="11.300000000000011" width="64.39" height="55" as="geometry" />
        </mxCell>
        <mxCell id="YkggqUMwKx66I1lC0KBP-11" value="Blob Storage" style="text;html=1;align=center;verticalAlign=middle;resizable=0;points=[];autosize=1;strokeColor=none;fillColor=none;fontSize=20;" vertex="1" parent="YkggqUMwKx66I1lC0KBP-52">
          <mxGeometry x="-23" y="57" width="134" height="36" as="geometry" />
        </mxCell>
        <mxCell id="YkggqUMwKx66I1lC0KBP-53" value="" style="group" vertex="1" connectable="0" parent="1">
          <mxGeometry x="-260" y="-86" width="152" height="91" as="geometry" />
        </mxCell>
        <mxCell id="YkggqUMwKx66I1lC0KBP-12" value="" style="shape=image;verticalLabelPosition=bottom;labelBackgroundColor=#ffffff;verticalAlign=top;aspect=fixed;imageAspect=0;image=data:image/svg+xml,PHN2ZyB4bWxuczp2PSJodHRwOi8vc2NoZW1hcy5taWNyb3NvZnQuY29tL3Zpc2lvLzIwMDMvU1ZHRXh0ZW5zaW9ucy8iIHhtbG5zOmRjPSJodHRwOi8vcHVybC5vcmcvZGMvZWxlbWVudHMvMS4xLyIgeG1sbnM6Y2M9Imh0dHA6Ly9jcmVhdGl2ZWNvbW1vbnMub3JnL25zIyIgeG1sbnM6cmRmPSJodHRwOi8vd3d3LnczLm9yZy8xOTk5LzAyLzIyLXJkZi1zeW50YXgtbnMjIiB4bWxuczpzdmc9Imh0dHA6Ly93d3cudzMub3JnLzIwMDAvc3ZnIiB4bWxucz0iaHR0cDovL3d3dy53My5vcmcvMjAwMC9zdmciIHhtbG5zOnNvZGlwb2RpPSJodHRwOi8vc29kaXBvZGkuc291cmNlZm9yZ2UubmV0L0RURC9zb2RpcG9kaS0wLmR0ZCIgeG1sbnM6aW5rc2NhcGU9Imh0dHA6Ly93d3cuaW5rc2NhcGUub3JnL25hbWVzcGFjZXMvaW5rc2NhcGUiIHZlcnNpb249IjEuMSIgaWQ9InN2ZzU2NjExIiBpbmtzY2FwZTp2ZXJzaW9uPSIwLjkyLjMgKDI0MDU1NDYsIDIwMTgtMDMtMTEpIiBzb2RpcG9kaTpkb2NuYW1lPSJhenVyZV9jb250YWluZXJfcmVnaXN0cnkuc3ZnIiB4PSIwcHgiIHk9IjBweCIgdmlld0JveD0iMCAwIDI2Ljk0IDIzLjYzIiB4bWw6c3BhY2U9InByZXNlcnZlIiB3aWR0aD0iMjYuOTQwMDAxIiBoZWlnaHQ9IjIzLjYyOTk5OSI+PG1ldGFkYXRhIGlkPSJtZXRhZGF0YTU5OTIiPjxyZGY6UkRGPjxjYzpXb3JrIHJkZjphYm91dD0iIj48ZGM6Zm9ybWF0PmltYWdlL3N2Zyt4bWw8L2RjOmZvcm1hdD48ZGM6dHlwZSByZGY6cmVzb3VyY2U9Imh0dHA6Ly9wdXJsLm9yZy9kYy9kY21pdHlwZS9TdGlsbEltYWdlIi8+PGRjOnRpdGxlLz48L2NjOldvcms+PC9yZGY6UkRGPjwvbWV0YWRhdGE+PGRlZnMgaWQ9ImRlZnM1OTkwIi8+JiN4YTs8ZmlsdGVyIGlkPSJmaWx0ZXJfMiI+JiN4YTsJPGZlR2F1c3NpYW5CbHVyIGlkPSJmZUdhdXNzaWFuQmx1cjU2NTI0IiBzdGREZXZpYXRpb249IjIiLz4mI3hhOzwvZmlsdGVyPiYjeGE7PHNvZGlwb2RpOm5hbWVkdmlldyBib3JkZXJjb2xvcj0iIzY2NjY2NiIgYm9yZGVyb3BhY2l0eT0iMSIgZml0LW1hcmdpbi1ib3R0b209IjAiIGZpdC1tYXJnaW4tbGVmdD0iMCIgZml0LW1hcmdpbi1yaWdodD0iMCIgZml0LW1hcmdpbi10b3A9IjAiIGdyaWR0b2xlcmFuY2U9IjEwIiBndWlkZXRvbGVyYW5jZT0iMTAiIGlkPSJuYW1lZHZpZXc1NjYxMyIgaW5rc2NhcGU6Y3VycmVudC1sYXllcj0ic3ZnNTY2MTEiIGlua3NjYXBlOmN4PSItMy4yMzMzOTE1IiBpbmtzY2FwZTpjeT0iMy4zOTE1MjcxIiBpbmtzY2FwZTpwYWdlb3BhY2l0eT0iMCIgaW5rc2NhcGU6cGFnZXNoYWRvdz0iMiIgaW5rc2NhcGU6d2luZG93LWhlaWdodD0iMTAxNyIgaW5rc2NhcGU6d2luZG93LW1heGltaXplZD0iMSIgaW5rc2NhcGU6d2luZG93LXdpZHRoPSIxOTIwIiBpbmtzY2FwZTp3aW5kb3cteD0iLTgiIGlua3NjYXBlOndpbmRvdy15PSItOCIgaW5rc2NhcGU6em9vbT0iMTUuMjM5OTUyIiBvYmplY3R0b2xlcmFuY2U9IjEwIiBwYWdlY29sb3I9IiNmZmZmZmYiIHNob3dncmlkPSJmYWxzZSI+JiN4YTsJPC9zb2RpcG9kaTpuYW1lZHZpZXc+JiN4YTs8djpkb2N1bWVudFByb3BlcnRpZXMgdjpsYW5nSUQ9IjIwNTciIHY6bWV0cmljPSJ0cnVlIiB2OnZpZXdNYXJrdXA9ImZhbHNlIi8+JiN4YTsmI3hhOzxwYXRoIGlkPSJwYXRoNTY1MzciIGlua3NjYXBlOmNvbm5lY3Rvci1jdXJ2YXR1cmU9IjAiIHN0eWxlPSJmaWxsOiM1OWI0ZDkiIGQ9Ik0gOC4xOCwxOC4wMyBIIDQuNDMgQyAxLjkzLDE3LjM5IDAsMTUuMzYgMCwxMi42NyAwLDEwLjQ0IDEuNCw4LjQgMy4yOSw3LjYzIDMuMjcsNy40IDMuMjYsNy4xNiAzLjI2LDYuOTMgMy4yNiwzLjEgNi4yNywwIDkuOTgsMCBjIDIuMDQsMCAzLjk3LDAuOTUgNS4yNCwyLjU5IDAuNzYsLTAuNCAxLjYsLTAuNiAyLjQ1LC0wLjYgMi45NCwwIDUuNDksMi42OSA1LjU5LDUuNyBMIDEzLjIyLDMuNDIgOC4xOCw2LjU1IFoiLz4mI3hhOyYjeGE7PHBhdGggaWQ9InBhdGg1NjU0NyIgaW5rc2NhcGU6Y29ubmVjdG9yLWN1cnZhdHVyZT0iMCIgc3R5bGU9ImZpbGw6Izk1OTU5NSIgZD0iTSAyNi45NCwyMC44OCAxMy4xLDIzLjYgMTMuMTYsMTMuNTggMjYuOTQsMTYuMjEgWiBNIDEzLjE1LDQuNzMgMjYuOTQsMTAuMDcgdiA1LjM2IEwgMTMuMTcsMTIuNDEgWiIvPiYjeGE7JiN4YTsmI3hhOzxwYXRoIGlkPSJwYXRoNTY1NTkiIGlua3NjYXBlOmNvbm5lY3Rvci1jdXJ2YXR1cmU9IjAiIHN0eWxlPSJmaWxsOiNiM2I0YjUiIGQ9Ik0gMTMuMTcsMTIuNCA5LjQyLDE0LjIgViA3LjA2IGwgMy43MywtMi4zMyB6IG0gMTMuMTQsMi40MSAtMTIuNSwtMi45NCB2IC02LjQgbCAxMi41LDQuNzUgeiBtIC02Ljg4LC0yLjMgMS4yNSwwLjM2IFYgOC42OSBMIDE5LjQzLDguMjQgWiBNIDE4LjE4LDcuODMgMTYuOTMsNy4zNyB2IDQuNDYgbCAxLjI1LDAuMzYgeiBtIDMuNzUsNS4zOSAxLjI0LDAuMzMgMC4wMiwtMy45NyAtMS4yNiwtMC40NCB6IG0gLTcuNSwtMi4wNSAxLjI1LDAuMzMgViA2Ljk0IEwgMTQuNDMsNi41MiBaIG0gMTEuMjUsLTAuNzEgLTEuMjUsLTAuNDUgdiAzLjg4IGwgMS4yNSwwLjM1IHogbSAtMTEuODcsNC4xOSB2IDguMjYgbCAxMi41LC0yLjM2IHYgLTMuOTIgeiBtIDAuNjIsNy4yOSB2IC02LjM1IGwgMS4yNSwwLjE2IHYgNS45OCB6IG0gMy43NSwtMC42NSAtMS4yNSwwLjI0IHYgLTUuNjIgbCAxLjI1LDAuMTkgeiBtIDEuMjUsLTAuMTggdiAtNC44OCBsIDEuMjUsMC4xNiB2IDQuNDggeiBtIDMuNzUsLTAuNjggLTEuMjUsMC4yMiB2IC00LjEgbCAxLjI1LDAuMTkgeiBtIDIuNTUsLTAuNDIgLTEuMywwLjI0IHYgLTMuMzggbCAxLjIxLDAuMTYgeiIvPiYjeGE7JiN4YTsmI3hhOzxwYXRoIGlkPSJwYXRoNTY1NjkiIGlua3NjYXBlOmNvbm5lY3Rvci1jdXJ2YXR1cmU9IjAiIHN0eWxlPSJmaWxsOiM5NTk1OTUiIGQ9Im0gMTAuNjksMTIuMjggLTAuNjMsMC4zOCBWIDcuNTkgbCAwLjYzLC0wLjM1IHogbSAxLjI0LC01Ljc4IC0wLjYyLDAuNDQgLTAuMDEsNC45MyAwLjYzLC0wLjM1IHoiLz4mI3hhOyYjeGE7PHBhdGggaWQ9InBhdGg1NjU3OSIgaW5rc2NhcGU6Y29ubmVjdG9yLWN1cnZhdHVyZT0iMCIgc3R5bGU9ImZpbGw6I2IzYjRiNSIgZD0iTSA5LjQyLDIxLjMyIDkuNCwxNS40NiAxMy4xNiwxMy41OSAxMy4xOCwyMy42MyBaIi8+JiN4YTsmI3hhOyYjeGE7PHBhdGggaWQ9InBhdGg1NjU4OSIgaW5rc2NhcGU6Y29ubmVjdG9yLWN1cnZhdHVyZT0iMCIgc3R5bGU9ImZpbGw6Izk1OTU5NSIgZD0iTSAxMC42MSwyMS4zIDEwLjA0LDIxIHYgLTQuOTUgbCAwLjU3LC0wLjI2IHogbSAxLjM0LC02LjEzIC0wLjYyLDAuMjggLTAuMDIsNi4yNCAwLjY0LDAuMzQgeiIvPiYjeGE7JiN4YTs8cGF0aCBpZD0icGF0aDU2NTk3IiBpbmtzY2FwZTpjb25uZWN0b3ItY3VydmF0dXJlPSIwIiBzdHlsZT0iZmlsbDojN2E3YTdhIiBkPSJtIDI1LjY3LDEwLjg4IC0xMS4yNCwtMy44OSAwLjAyLC0wLjUgMTEuMjIsMy45OCB6IG0gLTAuMDMsNi4xNSAtMTEuMTksLTEuNDQgdiAwLjUgbCAxMS4yLDEuMzYgeiBNIDExLjkzLDcuMTcgViA2LjUzIEwgMTAuMTIsNy41NyAxMC4wOSw4LjEgWiBtIC0xLjg5LDkuMjUgMS45MSwtMC43MSB2IC0wLjU1IGwgLTEuOTEsMC44OSB6Ii8+JiN4YTsmI3hhOyYjeGE7PC9zdmc+;" vertex="1" parent="YkggqUMwKx66I1lC0KBP-53">
          <mxGeometry x="24.75" y="30" width="67.49" height="61" as="geometry" />
        </mxCell>
        <mxCell id="YkggqUMwKx66I1lC0KBP-13" value="Container Registry" style="text;html=1;align=center;verticalAlign=middle;resizable=0;points=[];autosize=1;strokeColor=none;fillColor=none;fontSize=20;" vertex="1" parent="YkggqUMwKx66I1lC0KBP-53">
          <mxGeometry x="-32" y="-2" width="184" height="36" as="geometry" />
        </mxCell>
        <mxCell id="YkggqUMwKx66I1lC0KBP-54" value="" style="group" vertex="1" connectable="0" parent="1">
          <mxGeometry x="-482" y="-159" width="142.10000000000002" height="63" as="geometry" />
        </mxCell>
        <mxCell id="YkggqUMwKx66I1lC0KBP-28" value="" style="shape=image;verticalLabelPosition=bottom;labelBackgroundColor=#ffffff;verticalAlign=top;aspect=fixed;imageAspect=0;image=data:image/svg+xml,PHN2ZyB4bWxuczpkYz0iaHR0cDovL3B1cmwub3JnL2RjL2VsZW1lbnRzLzEuMS8iIHhtbG5zOmNjPSJodHRwOi8vY3JlYXRpdmVjb21tb25zLm9yZy9ucyMiIHhtbG5zOnJkZj0iaHR0cDovL3d3dy53My5vcmcvMTk5OS8wMi8yMi1yZGYtc3ludGF4LW5zIyIgeG1sbnM6c3ZnPSJodHRwOi8vd3d3LnczLm9yZy8yMDAwL3N2ZyIgeG1sbnM9Imh0dHA6Ly93d3cudzMub3JnLzIwMDAvc3ZnIiB4bWxuczpzb2RpcG9kaT0iaHR0cDovL3NvZGlwb2RpLnNvdXJjZWZvcmdlLm5ldC9EVEQvc29kaXBvZGktMC5kdGQiIHhtbG5zOmlua3NjYXBlPSJodHRwOi8vd3d3Lmlua3NjYXBlLm9yZy9uYW1lc3BhY2VzL2lua3NjYXBlIiB2ZXJzaW9uPSIxLjEiIGlkPSJzdmc1MDMyOSIgaW5rc2NhcGU6dmVyc2lvbj0iMC45Mi4zICgyNDA1NTQ2LCAyMDE4LTAzLTExKSIgc29kaXBvZGk6ZG9jbmFtZT0iYXp1cmUuc3ZnIiB4PSIwcHgiIHk9IjBweCIgdmlld0JveD0iMCAwIDYyLjc2IDQ4LjQ4IiBzdHlsZT0iZW5hYmxlLWJhY2tncm91bmQ6bmV3IDAgMCA2Mi43NiA0OC40ODsiIHhtbDpzcGFjZT0icHJlc2VydmUiPjxtZXRhZGF0YSBpZD0ibWV0YWRhdGExNjgwNyI+PHJkZjpSREY+PGNjOldvcmsgcmRmOmFib3V0PSIiPjxkYzpmb3JtYXQ+aW1hZ2Uvc3ZnK3htbDwvZGM6Zm9ybWF0PjxkYzp0eXBlIHJkZjpyZXNvdXJjZT0iaHR0cDovL3B1cmwub3JnL2RjL2RjbWl0eXBlL1N0aWxsSW1hZ2UiLz48ZGM6dGl0bGUvPjwvY2M6V29yaz48L3JkZjpSREY+PC9tZXRhZGF0YT48ZGVmcyBpZD0iZGVmczE2ODA1Ii8+JiN4YTs8c29kaXBvZGk6bmFtZWR2aWV3IGJvcmRlcmNvbG9yPSIjNjY2NjY2IiBib3JkZXJvcGFjaXR5PSIxIiBmaXQtbWFyZ2luLWJvdHRvbT0iMCIgZml0LW1hcmdpbi1sZWZ0PSIwIiBmaXQtbWFyZ2luLXJpZ2h0PSIwIiBmaXQtbWFyZ2luLXRvcD0iMCIgZ3JpZHRvbGVyYW5jZT0iMTAiIGd1aWRldG9sZXJhbmNlPSIxMCIgaWQ9Im5hbWVkdmlldzUwMzMxIiBpbmtzY2FwZTpjdXJyZW50LWxheWVyPSJzdmc1MDMyOSIgaW5rc2NhcGU6Y3g9IjQ5LjM2MTQ4NiIgaW5rc2NhcGU6Y3k9IjEyLjA3MjQ5NyIgaW5rc2NhcGU6cGFnZW9wYWNpdHk9IjAiIGlua3NjYXBlOnBhZ2VzaGFkb3c9IjIiIGlua3NjYXBlOndpbmRvdy1oZWlnaHQ9IjEwMTciIGlua3NjYXBlOndpbmRvdy1tYXhpbWl6ZWQ9IjEiIGlua3NjYXBlOndpbmRvdy13aWR0aD0iMTkyMCIgaW5rc2NhcGU6d2luZG93LXg9Ii04IiBpbmtzY2FwZTp3aW5kb3cteT0iLTgiIGlua3NjYXBlOnpvb209IjUuOTY3MzU3NyIgb2JqZWN0dG9sZXJhbmNlPSIxMCIgcGFnZWNvbG9yPSIjZmZmZmZmIiBzaG93Z3JpZD0iZmFsc2UiPiYjeGE7CTwvc29kaXBvZGk6bmFtZWR2aWV3PiYjeGE7JiN4YTs8cGF0aCBpZD0icGF0aDUwMzI0IiBpbmtzY2FwZTpjb25uZWN0b3ItY3VydmF0dXJlPSIwIiBzdHlsZT0iZmlsbDojMjA3NUI4OyIgZD0iTTE1LjY4LDQ4LjM2YzAuMDctMC4wNyw2LjQtMS4yMywxNC4wNi0yLjU3ICBjNy42NS0xLjM1LDEzLjk3LTIuNSwxNC4wMy0yLjU2YzAuMTItMC4xMS0wLjc1LTEuMTctMTAuMjItMTIuNDZjLTIuNTItMi45OS00LjYzLTUuNTYtNC43LTUuN2MtMC4wOS0wLjE5LDAuODktMy4wNCwzLjczLTEwLjgzICBjMi4xMS01LjgxLDMuODctMTAuNjUsMy45MS0xMC43NWMwLjAzLTAuMDksMC4xMy0wLjE3LDAuMjItMC4xN2MwLjE5LDAsMjYuMTQsNDQuOTEsMjYuMDUsNDUuMDZjLTAuMDQsMC4wNi0xMC42OCwwLjEtMjMuNjQsMC4xICBDMjUuMjEsNDguNDgsMTUuNiw0OC40MywxNS42OCw0OC4zNnogTTAsNDMuMDFjLTAuMDUtMC4xMywwLjU0LTEuMjksMS40NS0yLjg4YzAuODQtMS40Niw0LjQyLTcuNjYsNy45NS0xMy43N2w2LjQxLTExLjFsOS4wOC03LjYzICBDMjkuODgsMy40NCwzNC4wNCwwLDM0LjEzLDBjMC4xLDAsMC4xMywwLjA5LDAuMDgsMC4yNEMzMy43NCwxLjQ4LDE0LjMsNDIuOTIsMTQuMTMsNDMuMDVjLTAuMTksMC4xMy0xLjg0LDAuMTctNy4xNSwwLjE3ICBDMC45MSw0My4yMiwwLjA3LDQzLjE5LDAsNDMuMDF6Ii8+JiN4YTs8L3N2Zz4=;" vertex="1" parent="YkggqUMwKx66I1lC0KBP-54">
          <mxGeometry width="74.81" height="57" as="geometry" />
        </mxCell>
        <mxCell id="YkggqUMwKx66I1lC0KBP-32" value="&lt;b&gt;Azure&lt;/b&gt;" style="text;html=1;align=center;verticalAlign=middle;resizable=0;points=[];autosize=1;strokeColor=none;fillColor=none;fontSize=18;" vertex="1" parent="YkggqUMwKx66I1lC0KBP-54">
          <mxGeometry x="74.10000000000002" y="29" width="68" height="34" as="geometry" />
        </mxCell>
        <mxCell id="YkggqUMwKx66I1lC0KBP-55" value="" style="endArrow=classic;html=1;rounded=0;exitX=1;exitY=1;exitDx=0;exitDy=0;" edge="1" parent="1">
          <mxGeometry width="50" height="50" relative="1" as="geometry">
            <mxPoint x="-189.76" y="6" as="sourcePoint" />
            <mxPoint x="-190" y="58" as="targetPoint" />
          </mxGeometry>
        </mxCell>
        <mxCell id="YkggqUMwKx66I1lC0KBP-30" value="&lt;font style=&quot;font-size: 20px;&quot;&gt;TechNewsAuth&lt;/font&gt;" style="text;html=1;align=center;verticalAlign=middle;resizable=0;points=[];autosize=1;strokeColor=none;fillColor=none;" vertex="1" parent="1">
          <mxGeometry x="419" y="457" width="151" height="36" as="geometry" />
        </mxCell>
        <mxCell id="YkggqUMwKx66I1lC0KBP-73" value="" style="group" vertex="1" connectable="0" parent="1">
          <mxGeometry x="-124.21000000000004" y="125.38" width="191" height="146.5" as="geometry" />
        </mxCell>
        <mxCell id="YkggqUMwKx66I1lC0KBP-23" value="" style="shape=image;verticalLabelPosition=bottom;labelBackgroundColor=#ffffff;verticalAlign=top;aspect=fixed;imageAspect=0;image=data:image/svg+xml,PHN2ZyB4bWxuczpjYz0iaHR0cDovL2NyZWF0aXZlY29tbW9ucy5vcmcvbnMjIiB4bWxuczpkYz0iaHR0cDovL3B1cmwub3JnL2RjL2VsZW1lbnRzLzEuMS8iIHhtbG5zOmlua3NjYXBlPSJodHRwOi8vd3d3Lmlua3NjYXBlLm9yZy9uYW1lc3BhY2VzL2lua3NjYXBlIiB4bWxuczpyZGY9Imh0dHA6Ly93d3cudzMub3JnLzE5OTkvMDIvMjItcmRmLXN5bnRheC1ucyMiIHhtbG5zOnNvZGlwb2RpPSJodHRwOi8vc29kaXBvZGkuc291cmNlZm9yZ2UubmV0L0RURC9zb2RpcG9kaS0wLmR0ZCIgeG1sbnM6c3ZnPSJodHRwOi8vd3d3LnczLm9yZy8yMDAwL3N2ZyIgeG1sbnM9Imh0dHA6Ly93d3cudzMub3JnLzIwMDAvc3ZnIiB4bWxuczp4bGluaz0iaHR0cDovL3d3dy53My5vcmcvMTk5OS94bGluayIgdmVyc2lvbj0iMS4xIiBpZD0ic3ZnMTk4MDc4IiBpbmtzY2FwZTp2ZXJzaW9uPSIwLjkyLjMgKDI0MDU1NDYsIDIwMTgtMDMtMTEpIiBzb2RpcG9kaTpkb2NuYW1lPSJyZXN0LnN2ZyIgeD0iMHB4IiB5PSIwcHgiIHZpZXdCb3g9IjAgMCA1Ny42NSA1Ny42NSIgc3R5bGU9ImVuYWJsZS1iYWNrZ3JvdW5kOm5ldyAwIDAgNTcuNjUgNTcuNjU7IiB4bWw6c3BhY2U9InByZXNlcnZlIj4mI3hhOzxzb2RpcG9kaTpuYW1lZHZpZXcgYm9yZGVyY29sb3I9IiM2NjY2NjYiIGJvcmRlcm9wYWNpdHk9IjEiIGZpdC1tYXJnaW4tYm90dG9tPSIwIiBmaXQtbWFyZ2luLWxlZnQ9IjAiIGZpdC1tYXJnaW4tcmlnaHQ9IjAiIGZpdC1tYXJnaW4tdG9wPSIwIiBncmlkdG9sZXJhbmNlPSIxMCIgZ3VpZGV0b2xlcmFuY2U9IjEwIiBpZD0ibmFtZWR2aWV3MTk4MDgwIiBpbmtzY2FwZTpjdXJyZW50LWxheWVyPSJzdmcxOTgwNzgiIGlua3NjYXBlOmN4PSIzOC40MzAyMyIgaW5rc2NhcGU6Y3k9IjM4LjQzNjQ5NiIgaW5rc2NhcGU6cGFnZW9wYWNpdHk9IjAiIGlua3NjYXBlOnBhZ2VzaGFkb3c9IjIiIGlua3NjYXBlOndpbmRvdy1oZWlnaHQ9IjEwMTciIGlua3NjYXBlOndpbmRvdy1tYXhpbWl6ZWQ9IjEiIGlua3NjYXBlOndpbmRvdy13aWR0aD0iMTkyMCIgaW5rc2NhcGU6d2luZG93LXg9Ii04IiBpbmtzY2FwZTp3aW5kb3cteT0iLTgiIGlua3NjYXBlOnpvb209IjguOTE0MjA2OSIgb2JqZWN0dG9sZXJhbmNlPSIxMCIgcGFnZWNvbG9yPSIjZmZmZmZmIiBzaG93Z3JpZD0iZmFsc2UiPiYjeGE7CTwvc29kaXBvZGk6bmFtZWR2aWV3PiYjeGE7PGcgaWQ9ImcxOTgwNzYiIHRyYW5zZm9ybT0idHJhbnNsYXRlKC03LjY1LC03LjY1MDAwMTEpIj4mI3hhOwk8dGl0bGUgaWQ9InRpdGxlMTk4MDM4Ij5QYWdlLTE8L3RpdGxlPiYjeGE7CTxnIGlkPSJncm91cDEwNjktMSIgdHJhbnNmb3JtPSJ0cmFuc2xhdGUoNy42NSwtNy42NSkiPiYjeGE7CQk8dGl0bGUgaWQ9InRpdGxlMTk4MDQwIj5SRVNUPC90aXRsZT4mI3hhOwkJPGcgaWQ9InNoYXBlMTA3MC0yIj4mI3hhOwkJCTx0aXRsZSBpZD0idGl0bGUxOTgwNDIiPlNoZWV0LjEwNzA8L3RpdGxlPiYjeGE7CQkJPGNpcmNsZSBpZD0iZWxsaXBzZTE5ODA0NCIgc3R5bGU9ImZpbGw6IzEwN0MxMDsiIGN4PSIyOC44MiIgY3k9IjQ0LjEyIiByPSIyOC44MiIvPiYjeGE7CQk8L2c+JiN4YTsJCTxnIGlkPSJzaGFwZTEwNzEtNCI+JiN4YTsJCQk8dGl0bGUgaWQ9InRpdGxlMTk4MDQ3Ij5TaGVldC4xMDcxPC90aXRsZT4mI3hhOwkJCTxwYXRoIGlkPSJwYXRoMTk4MDQ5IiBpbmtzY2FwZTpjb25uZWN0b3ItY3VydmF0dXJlPSIwIiBzdHlsZT0iZmlsbDojMDA0QjFDOyIgZD0iTTguODYsMjMuMzdDMy4zOSwyOC42MywwLDM1Ljk4LDAsNDQuMTIgICAgIGMwLDE1LjkzLDEyLjksMjguODMsMjguODIsMjguODNjOC4xNSwwLDE1LjQ5LTMuMzksMjAuNzUtOC44N0w4Ljg2LDIzLjM3eiIvPiYjeGE7CQk8L2c+JiN4YTsJCTxnIGlkPSJncm91cDEwNzItNiIgdHJhbnNmb3JtPSJ0cmFuc2xhdGUoNi42NzI0NCwtMjAuOTk4NykiPiYjeGE7CQkJPHRpdGxlIGlkPSJ0aXRsZTE5ODA1MiI+U2hlZXQuMTA3MjwvdGl0bGU+JiN4YTsJCQk8ZyBpZD0ic2hhcGUxMDczLTciIHRyYW5zZm9ybT0idHJhbnNsYXRlKDAsLTAuMjU1ODAxKSI+JiN4YTsJCQkJPHRpdGxlIGlkPSJ0aXRsZTE5ODA1NCI+U2hlZXQuMTA3MzwvdGl0bGU+JiN4YTsJCQkJPHBhdGggaWQ9InBhdGgxOTgwNTYiIGlua3NjYXBlOmNvbm5lY3Rvci1jdXJ2YXR1cmU9IjAiIHN0eWxlPSJmaWxsOiNGRkZGRkY7IiBkPSJNMTAuODUsNzIuOTVIOC43NEw2LjIxLDY4LjcgICAgICBjLTAuMjQtMC4zOS0wLjQ2LTAuNzMtMC42OC0xLjAxYy0wLjIyLTAuMjctMC40NC0wLjUtMC42Ny0wLjY4Yy0wLjIzLTAuMTctMC40Ny0wLjMtMC43NC0wLjM4Yy0wLjI2LTAuMDgtMC41Ni0wLjEyLTAuODktMC4xMiAgICAgIEgxLjc3djYuNDRIMFY1Ny44MWg0LjUyYzAuNjYsMCwxLjI3LDAuMDgsMS44MywwLjI1YzAuNTYsMC4xNiwxLjA0LDAuNDEsMS40NiwwLjc1YzAuNDEsMC4zNCwwLjczLDAuNzYsMC45NiwxLjI2ICAgICAgYzAuMjMsMC41MSwwLjM1LDEuMDksMC4zNSwxLjc3YzAsMC41My0wLjA4LDEuMDEtMC4yNCwxLjQ1Yy0wLjE2LDAuNDQtMC4zOCwwLjgzLTAuNjcsMS4xOGMtMC4zLDAuMzQtMC42NSwwLjY0LTEuMDYsMC44OCAgICAgIHMtMC44NywwLjQzLTEuMzksMC41NnYwLjA1YzAuMjYsMC4xMSwwLjQ4LDAuMjQsMC42NiwwLjM4YzAuMTksMC4xNSwwLjM3LDAuMzIsMC41NCwwLjUxYzAuMTYsMC4yLDAuMzMsMC40MiwwLjUsMC42NyAgICAgIGMwLjE2LDAuMjUsMC4zNSwwLjU0LDAuNTUsMC44OEwxMC44NSw3Mi45NXogTTEuNzcsNTkuNDF2NS40OWgyLjQxYzAuNDQsMCwwLjg1LTAuMDcsMS4yMy0wLjJzMC43LTAuMzIsMC45OC0wLjU3ICAgICAgYzAuMjctMC4yNSwwLjQ5LTAuNTYsMC42NC0wLjkyYzAuMTYtMC4zNiwwLjIzLTAuNzcsMC4yMy0xLjIyYzAtMC44MS0wLjI2LTEuNDQtMC43OC0xLjljLTAuNTMtMC40NS0xLjI5LTAuNjgtMi4yOC0wLjY4SDEuNzd6ICAgICAgIi8+JiN4YTsJCQk8L2c+JiN4YTsJCQk8ZyBpZD0ic2hhcGUxMDc0LTkiIHRyYW5zZm9ybT0idHJhbnNsYXRlKDEyLjkzMDYsLTAuMjU1ODAxKSI+JiN4YTsJCQkJPHRpdGxlIGlkPSJ0aXRsZTE5ODA1OSI+U2hlZXQuMTA3NDwvdGl0bGU+JiN4YTsJCQkJPHBhdGggaWQ9InBhdGgxOTgwNjEiIGlua3NjYXBlOmNvbm5lY3Rvci1jdXJ2YXR1cmU9IjAiIHN0eWxlPSJmaWxsOiNGRkZGRkY7IiBkPSJNOC4wMiw3Mi45NUgwVjU3LjgxaDcuNjh2MS42SDEuNzd2NS4wNGg1LjQ3ICAgICAgdjEuNTlIMS43N3Y1LjNoNi4yNVY3Mi45NXoiLz4mI3hhOwkJCTwvZz4mI3hhOwkJCTxnIGlkPSJzaGFwZTEwNzUtMTEiIHRyYW5zZm9ybT0idHJhbnNsYXRlKDIzLjE1ODMpIj4mI3hhOwkJCQk8dGl0bGUgaWQ9InRpdGxlMTk4MDY0Ij5TaGVldC4xMDc1PC90aXRsZT4mI3hhOwkJCQk8cGF0aCBpZD0icGF0aDE5ODA2NiIgaW5rc2NhcGU6Y29ubmVjdG9yLWN1cnZhdHVyZT0iMCIgc3R5bGU9ImZpbGw6I0ZGRkZGRjsiIGQ9Ik0wLDcyLjA4di0yLjA5YzAuMjQsMC4yMSwwLjUzLDAuNCwwLjg2LDAuNTcgICAgICBzMC42OSwwLjMxLDEuMDYsMC40M2MwLjM3LDAuMTEsMC43NCwwLjIsMS4xMSwwLjI2YzAuMzcsMC4wNywwLjcyLDAuMSwxLjAzLDAuMWMxLjA5LDAsMS45MS0wLjIsMi40NS0wLjYxICAgICAgYzAuNTQtMC40LDAuODEtMC45OCwwLjgxLTEuNzRjMC0wLjQxLTAuMDktMC43Ny0wLjI3LTEuMDdjLTAuMTgtMC4zLTAuNDMtMC41OC0wLjc1LTAuODNjLTAuMzItMC4yNS0wLjY5LTAuNDktMS4xMi0wLjcyICAgICAgYy0wLjQ0LTAuMjItMC45LTAuNDctMS40LTAuNzJjLTAuNTMtMC4yNy0xLjAyLTAuNTQtMS40OC0wLjgxYy0wLjQ2LTAuMjgtMC44NS0wLjU4LTEuMTktMC45MXMtMC42LTAuNzEtMC44LTEuMTIgICAgICBjLTAuMTktMC40Mi0wLjI5LTAuOTEtMC4yOS0xLjQ4YzAtMC42OSwwLjE1LTEuMjksMC40NS0xLjhjMC4zMS0wLjUxLDAuNzEtMC45MywxLjItMS4yNmMwLjQ5LTAuMzMsMS4wNS0wLjU3LDEuNjgtMC43NCAgICAgIGMwLjYzLTAuMTYsMS4yNy0wLjI0LDEuOTMtMC4yNGMxLjQ5LDAsMi41OCwwLjE4LDMuMjYsMC41NHYyYy0wLjktMC42Mi0yLjA0LTAuOTMtMy40NC0wLjkzYy0wLjM5LDAtMC43OCwwLjA0LTEuMTYsMC4xMiAgICAgIGMtMC4zOSwwLjA4LTAuNzQsMC4yMS0xLjA0LDAuMzljLTAuMywwLjE5LTAuNTUsMC40Mi0wLjc0LDAuNzFzLTAuMjgsMC42NC0wLjI4LDEuMDZjMCwwLjM4LDAuMDcsMC43MiwwLjIxLDEgICAgICBjMC4xNSwwLjI4LDAuMzYsMC41NCwwLjY0LDAuNzdzMC42MywwLjQ2LDEuMDMsMC42N2MwLjQxLDAuMjIsMC44NywwLjQ2LDEuNCwwLjcyQzUuNyw2NC42Miw2LjIyLDY0LjksNi43LDY1LjIgICAgICBjMC40OSwwLjI5LDAuOTEsMC42MiwxLjI4LDAuOThjMC4zNiwwLjM2LDAuNjUsMC43NiwwLjg3LDEuMTljMC4yMSwwLjQ0LDAuMzIsMC45NCwwLjMyLDEuNWMwLDAuNzUtMC4xNSwxLjM4LTAuNDQsMS44OSAgICAgIGMtMC4yOSwwLjUyLTAuNjgsMC45NC0xLjE4LDEuMjdjLTAuNSwwLjMyLTEuMDcsMC41NS0xLjcxLDAuN2MtMC42NSwwLjE0LTEuMzQsMC4yMi0yLjA1LDAuMjJjLTAuMjQsMC0wLjU0LTAuMDItMC44OS0wLjA2ICAgICAgcy0wLjcxLTAuMS0xLjA4LTAuMTdjLTAuMzYtMC4wOC0wLjcxLTAuMTctMS4wNC0wLjI4QzAuNDYsNzIuMzMsMC4yLDcyLjIxLDAsNzIuMDh6Ii8+JiN4YTsJCQk8L2c+JiN4YTsJCQk8ZyBpZD0ic2hhcGUxMDc2LTEzIiB0cmFuc2Zvcm09InRyYW5zbGF0ZSgzMy43OTgxLC0wLjI1NTgwMSkiPiYjeGE7CQkJCTx0aXRsZSBpZD0idGl0bGUxOTgwNjkiPlNoZWV0LjEwNzY8L3RpdGxlPiYjeGE7CQkJCTxwYXRoIGlkPSJwYXRoMTk4MDcxIiBpbmtzY2FwZTpjb25uZWN0b3ItY3VydmF0dXJlPSIwIiBzdHlsZT0iZmlsbDojRkZGRkZGOyIgZD0iTTEwLjUsNTkuNDFINi4xM3YxMy41NEg0LjM2VjU5LjQxSDB2LTEuNiAgICAgIGgxMC41VjU5LjQxeiIvPiYjeGE7CQkJPC9nPiYjeGE7CQk8L2c+JiN4YTsJPC9nPiYjeGE7PC9nPiYjeGE7PC9zdmc+;" vertex="1" parent="YkggqUMwKx66I1lC0KBP-73">
          <mxGeometry x="98.5" width="49" height="49" as="geometry" />
        </mxCell>
        <mxCell id="YkggqUMwKx66I1lC0KBP-24" value="" style="shape=image;verticalLabelPosition=bottom;labelBackgroundColor=#ffffff;verticalAlign=top;aspect=fixed;imageAspect=0;image=data:image/svg+xml,PHN2ZyB4bWxuczpjYz0iaHR0cDovL2NyZWF0aXZlY29tbW9ucy5vcmcvbnMjIiB4bWxuczpkYz0iaHR0cDovL3B1cmwub3JnL2RjL2VsZW1lbnRzLzEuMS8iIHhtbG5zOmlua3NjYXBlPSJodHRwOi8vd3d3Lmlua3NjYXBlLm9yZy9uYW1lc3BhY2VzL2lua3NjYXBlIiB4bWxuczpyZGY9Imh0dHA6Ly93d3cudzMub3JnLzE5OTkvMDIvMjItcmRmLXN5bnRheC1ucyMiIHhtbG5zOnNvZGlwb2RpPSJodHRwOi8vc29kaXBvZGkuc291cmNlZm9yZ2UubmV0L0RURC9zb2RpcG9kaS0wLmR0ZCIgeG1sbnM6c3ZnPSJodHRwOi8vd3d3LnczLm9yZy8yMDAwL3N2ZyIgeG1sbnM9Imh0dHA6Ly93d3cudzMub3JnLzIwMDAvc3ZnIiB4bWxuczp4bGluaz0iaHR0cDovL3d3dy53My5vcmcvMTk5OS94bGluayIgdmVyc2lvbj0iMS4xIiBpZD0ic3ZnMTcwNzg2IiBpbmtzY2FwZTp2ZXJzaW9uPSIwLjkyLjMgKDI0MDU1NDYsIDIwMTgtMDMtMTEpIiBzb2RpcG9kaTpkb2NuYW1lPSJkb3RuZXRfY29yZS5zdmciIHg9IjBweCIgeT0iMHB4IiB2aWV3Qm94PSIwIDAgNDggNDgiIHN0eWxlPSJlbmFibGUtYmFja2dyb3VuZDpuZXcgMCAwIDQ4IDQ4OyIgeG1sOnNwYWNlPSJwcmVzZXJ2ZSI+JiN4YTs8c29kaXBvZGk6bmFtZWR2aWV3IGJvcmRlcmNvbG9yPSIjNjY2NjY2IiBib3JkZXJvcGFjaXR5PSIxIiBmaXQtbWFyZ2luLWJvdHRvbT0iMCIgZml0LW1hcmdpbi1sZWZ0PSIwIiBmaXQtbWFyZ2luLXJpZ2h0PSIwIiBmaXQtbWFyZ2luLXRvcD0iMCIgZ3JpZHRvbGVyYW5jZT0iMTAiIGd1aWRldG9sZXJhbmNlPSIxMCIgaWQ9Im5hbWVkdmlldzE3MDc4OCIgaW5rc2NhcGU6Y3VycmVudC1sYXllcj0ic3ZnMTcwNzg2IiBpbmtzY2FwZTpjeD0iMzEuNTU0NjA5IiBpbmtzY2FwZTpjeT0iMzEuNTU0NjA2IiBpbmtzY2FwZTpwYWdlb3BhY2l0eT0iMCIgaW5rc2NhcGU6cGFnZXNoYWRvdz0iMiIgaW5rc2NhcGU6d2luZG93LWhlaWdodD0iMTAxNyIgaW5rc2NhcGU6d2luZG93LW1heGltaXplZD0iMSIgaW5rc2NhcGU6d2luZG93LXdpZHRoPSIxOTIwIiBpbmtzY2FwZTp3aW5kb3cteD0iLTgiIGlua3NjYXBlOndpbmRvdy15PSItOCIgaW5rc2NhcGU6em9vbT0iMTIuOTYxNDQ1IiBvYmplY3R0b2xlcmFuY2U9IjEwIiBwYWdlY29sb3I9IiNmZmZmZmYiIHNob3dncmlkPSJmYWxzZSI+JiN4YTsJPC9zb2RpcG9kaTpuYW1lZHZpZXc+JiN4YTs8Y2lyY2xlIGlkPSJlbGxpcHNlMTcwNzM1IiBzdHlsZT0iZmlsbDojNUMyRDkxOyIgY3g9IjI0IiBjeT0iMjQiIHI9IjI0Ii8+JiN4YTs8cGF0aCBpZD0icGF0aDE3MDc0MCIgaW5rc2NhcGU6Y29ubmVjdG9yLWN1cnZhdHVyZT0iMCIgc3R5bGU9ImZpbGw6I0ZGRkZGRjtmaWxsLW9wYWNpdHk6MC4wOTg7IiBkPSJNNy4zNiw2Ljc1ICBDLTIuNTMsMTUuNTctMy40LDMwLjc0LDUuNDIsNDAuNjRTMjkuNDEsNTEuNCwzOS4zLDQyLjU4YzAuNjktMC42MSwxLjM0LTEuMjYsMS45NS0xLjk1TDcuMzYsNi43NXoiLz4mI3hhOzxwYXRoIGlkPSJwYXRoMTcwNzQ1IiBpbmtzY2FwZTpjb25uZWN0b3ItY3VydmF0dXJlPSIwIiBzdHlsZT0iZmlsbDojRkZGRkZGOyIgZD0iTTUuNTUsMjcuOTRjLTAuMjgsMC0wLjU2LTAuMTEtMC43NS0wLjMyICBjLTAuMi0wLjItMC4zMS0wLjQ3LTAuMzEtMC43NWMwLTAuMjgsMC4xMS0wLjU1LDAuMzEtMC43NUM1LDI1LjkxLDUuMjcsMjUuOCw1LjU1LDI1LjhjMC4yOCwwLDAuNTUsMC4xMSwwLjc1LDAuMzIgIGMwLjIsMC4yLDAuMzEsMC40NywwLjMxLDAuNzVjMCwwLjI4LTAuMTEsMC41NS0wLjMxLDAuNzVDNi4xMSwyNy44Miw1Ljg0LDI3Ljk0LDUuNTUsMjcuOTR6Ii8+JiN4YTs8cGF0aCBpZD0icGF0aDE3MDc1MCIgaW5rc2NhcGU6Y29ubmVjdG9yLWN1cnZhdHVyZT0iMCIgc3R5bGU9ImZpbGw6I0ZGRkZGRjsiIGQ9Ik0yMC40NSwyNy43NWgtMS45N2wtNy4wMi0xMC45MSAgYy0wLjE4LTAuMjctMC4zMi0wLjU1LTAuNDQtMC44NWgtMC4wNmMwLjA3LDAuNjIsMC4wOSwxLjI1LDAuMDgsMS44N3Y5Ljg5aC0xLjZWMTQuMDhoMi4wOGw2Ljg0LDEwLjcxICBjMC4yOCwwLjQ0LDAuNDcsMC43NSwwLjU1LDAuOTFoMC4wNGMtMC4wOC0wLjY3LTAuMTEtMS4zNC0wLjEtMi4wMXYtOS42MWgxLjZWMjcuNzV6Ii8+JiN4YTs8cGF0aCBpZD0icGF0aDE3MDc1NSIgaW5rc2NhcGU6Y29ubmVjdG9yLWN1cnZhdHVyZT0iMCIgc3R5bGU9ImZpbGw6I0ZGRkZGRjsiIGQ9Ik0zMS4yNywyNy43NUgyNFYxNC4wOGg2LjkzdjEuNDRoLTUuM3Y0LjU1aDQuOTQgIHYxLjQ0aC00Ljk0djQuNzRoNS42NEwzMS4yNywyNy43NXoiLz4mI3hhOzxwYXRoIGlkPSJwYXRoMTcwNzYwIiBpbmtzY2FwZTpjb25uZWN0b3ItY3VydmF0dXJlPSIwIiBzdHlsZT0iZmlsbDojRkZGRkZGOyIgZD0iTTQyLDE1LjUyaC0zLjk3djEyLjIzaC0xLjZWMTUuNTJIMzIuNXYtMS40NEg0MiAgVjE1LjUyeiIvPiYjeGE7PHBhdGggaWQ9InBhdGgxNzA3NjUiIGlua3NjYXBlOmNvbm5lY3Rvci1jdXJ2YXR1cmU9IjAiIHN0eWxlPSJmaWxsOiNGMkYyRjI7IiBkPSJNMTkuNTksMzcuMDVjLTAuNTQsMC4yNi0xLjE0LDAuMzktMS43NCwwLjM3ICBjLTAuODEsMC4wNC0xLjU5LTAuMjgtMi4xNS0wLjg2Yy0wLjU1LTAuNjItMC44NC0xLjQyLTAuODEtMi4yNWMtMC4wNC0wLjkxLDAuMjktMS43OSwwLjkxLTIuNDVjMC42MS0wLjYyLDEuNDQtMC45NiwyLjMxLTAuOTMgIGMwLjUxLTAuMDIsMS4wMiwwLjA3LDEuNSwwLjI2djAuNzVjLTAuNDYtMC4yNS0wLjk4LTAuMzgtMS41LTAuMzdjLTAuNjctMC4wMi0xLjMyLDAuMjUtMS43NywwLjc1Yy0wLjQ2LDAuNTMtMC43LDEuMjItMC42NywxLjkzICBjLTAuMDQsMC42NywwLjE5LDEuMzMsMC42MywxLjg0YzAuNDMsMC40NiwxLjAzLDAuNzEsMS42NiwwLjY4YzAuNTgsMC4wMSwxLjE0LTAuMTMsMS42NC0wLjQyTDE5LjU5LDM3LjA1eiIvPiYjeGE7PHBhdGggaWQ9InBhdGgxNzA3NzAiIGlua3NjYXBlOmNvbm5lY3Rvci1jdXJ2YXR1cmU9IjAiIHN0eWxlPSJmaWxsOiNGMkYyRjI7IiBkPSJNMjIuNjYsMzcuNDJjLTAuNjEsMC4wMi0xLjE5LTAuMjItMS42LTAuNjcgIGMtMC40MS0wLjQ2LTAuNjItMS4wNi0wLjU5LTEuNjdjLTAuMDQtMC42NSwwLjE4LTEuMjksMC42Mi0xLjc3YzAuNDQtMC40MywxLjA1LTAuNjcsMS42Ny0wLjY0YzAuNTktMC4wMywxLjE2LDAuMTksMS41NywwLjYyICBjMC40LDAuNDgsMC42LDEuMSwwLjU2LDEuNzJjMC4wMywwLjYzLTAuMTgsMS4yNS0wLjYsMS43M0MyMy44NywzNy4xOSwyMy4yNywzNy40NCwyMi42NiwzNy40MnogTTIyLjcxLDMzLjMyICBjLTAuNDItMC4wMi0wLjgyLDAuMTYtMS4wOSwwLjQ3Yy0wLjI5LDAuMzctMC40MywwLjgzLTAuNDEsMS4zYy0wLjAyLDAuNDYsMC4xMiwwLjkxLDAuNDEsMS4yNmMwLjI3LDAuMzEsMC42NywwLjQ4LDEuMDksMC40NyAgYzAuNDEsMC4wMiwwLjgtMC4xNCwxLjA3LTAuNDVjMC4yNy0wLjM3LDAuNDEtMC44MywwLjM4LTEuMjljMC4wMy0wLjQ2LTAuMTEtMC45Mi0wLjM4LTEuM0MyMy41MSwzMy40NywyMy4xMiwzMy4zLDIyLjcxLDMzLjMyeiIvPiYjeGE7PHBhdGggaWQ9InBhdGgxNzA3NzUiIGlua3NjYXBlOmNvbm5lY3Rvci1jdXJ2YXR1cmU9IjAiIHN0eWxlPSJmaWxsOiNGMkYyRjI7IiBkPSJNMjguMzksMzMuNTRjLTAuMTYtMC4xMS0wLjM1LTAuMTYtMC41NS0wLjE0ICBjLTAuMzEsMC4wMS0wLjU5LDAuMTctMC43NSwwLjQ0Yy0wLjIyLDAuMzUtMC4zMywwLjc2LTAuMywxLjE4djIuM2gtMC43NXYtNC41aDAuNzV2MC45NGMwLjA4LTAuMjksMC4yNC0wLjU1LDAuNDctMC43NSAgYzAuMi0wLjE3LDAuNDUtMC4yNywwLjcxLTAuMjdjMC4xNC0wLjAxLDAuMjgsMC4wMSwwLjQyLDAuMDZMMjguMzksMzMuNTR6Ii8+JiN4YTs8cGF0aCBpZD0icGF0aDE3MDc4MCIgaW5rc2NhcGU6Y29ubmVjdG9yLWN1cnZhdHVyZT0iMCIgc3R5bGU9ImZpbGw6I0YyRjJGMjsiIGQ9Ik0zMi43OCwzNS4yNWgtMy4xNyAgYy0wLjAyLDAuNDIsMC4xMSwwLjgzLDAuMzgsMS4xNWMwLjI4LDAuMjgsMC42NywwLjQzLDEuMDcsMC40MWMwLjUxLTAuMDEsMS0wLjE4LDEuMzktMC41djAuNjdjLTAuNDYsMC4zLTEuMDEsMC40Ni0xLjU2LDAuNDMgIGMtMC41NywwLjAzLTEuMTItMC4yLTEuNS0wLjYyYy0wLjM5LTAuNDktMC41OS0xLjEtMC41NS0xLjcyYy0wLjAzLTAuNjIsMC4xOC0xLjI0LDAuNTktMS43MWMwLjM4LTAuNDMsMC45My0wLjY4LDEuNS0wLjY2ICBjMC41Mi0wLjAzLDEuMDMsMC4xOCwxLjM3LDAuNTdjMC4zNSwwLjQ2LDAuNTIsMS4wMiwwLjQ4LDEuNTlWMzUuMjV6IE0zMi4wMywzNC42NGMwLjAyLTAuMzUtMC4wOS0wLjY5LTAuMy0wLjk3ICBjLTAuMjEtMC4yMy0wLjUxLTAuMzYtMC44Mi0wLjM0Yy0wLjMzLDAtMC42NCwwLjEzLTAuODYsMC4zN2MtMC4yNSwwLjI2LTAuNDEsMC41OS0wLjQ1LDAuOTVMMzIuMDMsMzQuNjR6Ii8+JiN4YTs8L3N2Zz4=;" vertex="1" parent="YkggqUMwKx66I1lC0KBP-73">
          <mxGeometry x="41.5" y="0.5" width="48" height="48" as="geometry" />
        </mxCell>
        <mxCell id="YkggqUMwKx66I1lC0KBP-25" value="&lt;font style=&quot;font-size: 20px;&quot;&gt;TechNews.Auth.Api&lt;/font&gt;" style="text;html=1;align=center;verticalAlign=middle;resizable=0;points=[];autosize=1;strokeColor=none;fillColor=none;fontSize=20;" vertex="1" parent="YkggqUMwKx66I1lC0KBP-73">
          <mxGeometry y="110.5" width="191" height="36" as="geometry" />
        </mxCell>
        <mxCell id="YkggqUMwKx66I1lC0KBP-27" value="" style="sketch=0;html=1;dashed=0;whitespace=wrap;fillColor=#2875E2;strokeColor=#ffffff;points=[[0.005,0.63,0],[0.1,0.2,0],[0.9,0.2,0],[0.5,0,0],[0.995,0.63,0],[0.72,0.99,0],[0.5,1,0],[0.28,0.99,0]];verticalLabelPosition=bottom;align=center;verticalAlign=top;shape=mxgraph.kubernetes.icon;prIcon=secret" vertex="1" parent="YkggqUMwKx66I1lC0KBP-73">
          <mxGeometry x="50" y="22.25" width="85" height="96" as="geometry" />
        </mxCell>
        <mxCell id="YkggqUMwKx66I1lC0KBP-74" value="" style="rounded=0;orthogonalLoop=1;jettySize=auto;html=1;strokeColor=#808080;entryX=0.005;entryY=0.63;entryDx=0;entryDy=0;entryPerimeter=0;" edge="1" parent="1" source="YkggqUMwKx66I1lC0KBP-80" target="YkggqUMwKx66I1lC0KBP-27">
          <mxGeometry relative="1" as="geometry">
            <mxPoint x="-289" y="347" as="sourcePoint" />
            <mxPoint x="-67" y="474" as="targetPoint" />
            <Array as="points" />
          </mxGeometry>
        </mxCell>
        <mxCell id="YkggqUMwKx66I1lC0KBP-75" value="" style="rounded=0;orthogonalLoop=1;jettySize=auto;html=1;strokeColor=#808080;" edge="1" parent="1" target="YkggqUMwKx66I1lC0KBP-15">
          <mxGeometry relative="1" as="geometry">
            <mxPoint x="13" y="190" as="sourcePoint" />
            <mxPoint x="-64" y="218" as="targetPoint" />
            <Array as="points" />
          </mxGeometry>
        </mxCell>
        <mxCell id="YkggqUMwKx66I1lC0KBP-76" value="" style="rounded=0;orthogonalLoop=1;jettySize=auto;html=1;strokeColor=#808080;entryX=0;entryY=0.5;entryDx=0;entryDy=0;exitX=0.995;exitY=0.63;exitDx=0;exitDy=0;exitPerimeter=0;" edge="1" parent="1" source="YkggqUMwKx66I1lC0KBP-27" target="YkggqUMwKx66I1lC0KBP-39">
          <mxGeometry relative="1" as="geometry">
            <mxPoint x="23" y="200" as="sourcePoint" />
            <mxPoint x="277" y="107" as="targetPoint" />
            <Array as="points" />
          </mxGeometry>
        </mxCell>
        <mxCell id="YkggqUMwKx66I1lC0KBP-77" value="" style="rounded=0;orthogonalLoop=1;jettySize=auto;html=1;strokeColor=#808080;entryX=0;entryY=0.5;entryDx=0;entryDy=0;exitX=0.995;exitY=0.63;exitDx=0;exitDy=0;exitPerimeter=0;" edge="1" parent="1" source="YkggqUMwKx66I1lC0KBP-20" target="YkggqUMwKx66I1lC0KBP-5">
          <mxGeometry relative="1" as="geometry">
            <mxPoint x="20" y="218" as="sourcePoint" />
            <mxPoint x="445" y="222" as="targetPoint" />
            <Array as="points" />
          </mxGeometry>
        </mxCell>
        <mxCell id="YkggqUMwKx66I1lC0KBP-78" value="" style="rounded=0;orthogonalLoop=1;jettySize=auto;html=1;strokeColor=#808080;entryX=0.5;entryY=0;entryDx=0;entryDy=0;" edge="1" parent="1" target="YkggqUMwKx66I1lC0KBP-10">
          <mxGeometry relative="1" as="geometry">
            <mxPoint x="-28" y="533" as="sourcePoint" />
            <mxPoint x="444" y="478" as="targetPoint" />
            <Array as="points" />
          </mxGeometry>
        </mxCell>
        <mxCell id="YkggqUMwKx66I1lC0KBP-79" value="" style="rounded=0;orthogonalLoop=1;jettySize=auto;html=1;strokeColor=#808080;entryX=0.496;entryY=0.892;entryDx=0;entryDy=0;exitX=0.5;exitY=0;exitDx=0;exitDy=0;exitPerimeter=0;entryPerimeter=0;" edge="1" parent="1" source="YkggqUMwKx66I1lC0KBP-20" target="YkggqUMwKx66I1lC0KBP-25">
          <mxGeometry relative="1" as="geometry">
            <mxPoint x="-18" y="543" as="sourcePoint" />
            <mxPoint x="-18" y="631" as="targetPoint" />
            <Array as="points" />
          </mxGeometry>
        </mxCell>
        <mxCell id="YkggqUMwKx66I1lC0KBP-80" value="" style="line;strokeWidth=4;direction=south;html=1;perimeter=backbonePerimeter;points=[];outlineConnect=0;" vertex="1" parent="1">
          <mxGeometry x="-211" y="143" width="27" height="375" as="geometry" />
        </mxCell>
        <mxCell id="YkggqUMwKx66I1lC0KBP-81" value="" style="rounded=0;orthogonalLoop=1;jettySize=auto;html=1;strokeColor=#808080;exitX=1;exitY=0.5;exitDx=0;exitDy=0;" edge="1" parent="1" source="YkggqUMwKx66I1lC0KBP-19" target="YkggqUMwKx66I1lC0KBP-80">
          <mxGeometry relative="1" as="geometry">
            <mxPoint x="-250" y="324.57" as="sourcePoint" />
            <mxPoint x="-128" y="324.57" as="targetPoint" />
            <Array as="points" />
          </mxGeometry>
        </mxCell>
      </root>
    </mxGraphModel>
  </diagram>
</mxfile>
